<svg height="2552" viewBox="0 0 513.04 2552" width="513.04" xmlns="http://www.w3.org/2000/svg" xmlns:xlink="http://www.w3.org/1999/xlink"><radialGradient id="a" cx="272.25" cy="116.28" gradientUnits="userSpaceOnUse" r="36.717"><stop offset=".01" stop-color="#fff2e8"/><stop offset=".1" stop-color="#feeddf"/><stop offset=".24" stop-color="#fde1c7"/><stop offset=".43" stop-color="#facd9f"/><stop offset=".65" stop-color="#f6b168"/><stop offset=".89" stop-color="#f08e22"/><stop offset="1" stop-color="#ee7d00"/></radialGradient><linearGradient id="b" gradientUnits="userSpaceOnUse" x1="256.51999" x2="256.51999" y1="-1.07049" y2="336.14208"><stop offset="0" stop-color="#1d4c80"/><stop offset="1" stop-color="#173a63"/></linearGradient><svg height="318.6" viewBox="0 0 513 318.6" width="513"><path d="m474.7 0h-446c-12.8 0-25.5 12.7-25.5 25.5v254.9c0 25.5 12.7 38.2 38.2 38.2h433.3c25.5 0 38.2-12.7 38.2-38.2v-242.2c0-25.5-12.8-38.2-38.2-38.2z" fill="#306fc5"/><g fill="#fff"><path d="m26.5 116.7h19.7l-9.9-24.1zm237.2-9.6c1.9-1 3-3.1 3-5.8.2-2.2-1-4.3-3-5.3-1.7-1-4.3-1.1-6.8-1.1h-17.8v13.4h17.5c2.8 0 5.1 0 7.1-1.2zm115-14.5-9.9 24.1h19.9zm134.3 146.2c-3.5 5.1-10.3 7.7-19.6 7.7h-27.8v-12.9h27.7c2.8 0 4.7-.4 5.8-1.5 1.1-1 1.7-2.4 1.7-3.9.1-1.5-.6-3-1.8-4-1-.9-2.6-1.3-5.1-1.3-13.5-.5-30.4.4-30.4-18.7 0-8.8 5.6-18 20.7-18h28.8v-12h-26.7c-8.1 0-13.9 1.9-18 4.9v-4.9h-39.5c-6.3 0-13.7 1.6-17.2 4.9v-4.9h-70.5v4.9c-5.6-4-15.1-4.9-19.5-4.9h-46.5v4.9c-4.4-4.3-14.3-4.9-20.3-4.9h-52l-11.9 12.8-11.2-12.9h-77.8v84.2h76.3l12.3-13.1 11.6 13.1h47v-19.8h4.6c6.2.1 13.6-.1 20.1-3v22.8h38.8v-22h1.9c2.4 0 2.6.1 2.6 2.5v19.5h117.9c7.5 0 15.3-1.9 19.6-5.4v5.4h37.4c7.8 0 15.4-1.1 21.2-3.9zm-258.6-12.6h-18v20.2h-28l-17.8-20-18.5 20h-57.2v-60.3h58l17.8 19.8 18.4-19.8h46.1c11.4.1 24.2 3.2 24.3 19.9 0 16.8-12.5 20.2-25.1 20.2zm86.7-2.6c2 2.9 2.3 5.7 2.4 11v12h-14.5v-7.6c0-3.6.4-9-2.3-11.8-2.1-2.2-5.3-2.7-10.6-2.7h-15.4v22h-14.5v-60.3h33.3c7.3 0 12.6.3 17.4 2.9 4.5 2.8 7.4 6.5 7.4 13.4.2 6.9-3.8 13.2-10.3 16 2.8 1 5.2 2.7 7.1 5.1zm59.3 23h-48.1l-.1-60.4h48.1v12.5h-33.7v11h33v12.3h-33v12l33.8.1zm36.7-.1h-28.1v-12.9h28c2.7 0 4.7-.4 5.9-1.5 1.1-1 1.7-2.4 1.7-3.9s-.6-3-1.8-4c-1.1-.9-2.6-1.3-5.1-1.3-13.5-.5-30.4.4-30.4-18.7 0-8.8 5.5-18 20.6-18h28.9v12.8h-26.4c-2.6 0-4.3.1-5.8 1.1-2.3 1.6-2.9 4.8-1.3 7 .6.8 1.3 1.4 2.3 1.8 1.8.5 3.7.8 5.6.7l7.8.2c7.9.2 13.2 1.5 16.5 4.9 2.8 2.9 4.3 6.6 4.3 12.8 0 13-8.1 19-22.7 19z"/><path d="m486.8 199c-2.6 0-4.4.1-5.8 1.1-1.4.9-2.3 2.6-2.1 4.3-.1 2 1.2 3.9 3.1 4.5 1.8.5 3.7.8 5.6.7l7.8.2c7.9.2 13.1 1.6 16.4 4.9.5.4 1 .9 1.3 1.5l-.1-17.2zm-161.4.7c-1.8-1-4.3-1.1-6.9-1.1h-17.8v13.6h17.5c2.8 0 5.2-.1 7.1-1.2 2-1.3 3.2-3.5 3.1-5.9.1-2.2-1-4.3-3-5.4zm-103.4 41.3v-48.4l-22.1 23.8zm-92.7-42.4v11h31.7v12.3h-31.7v12h35.5l16.5-17.7-15.8-17.6zm1.1-54.3v10.4h120.6l-.1-22h2.3c1.6.1 2.1.2 2.1 2.9v19.1h62.3v-5.1c5 2.7 12.9 5.1 23.1 5.1h26.2l5.6-13.4h12.4l5.5 13.4h50.5v-12.7l7.6 12.7h40.5v-84.3h-40.1v9.9l-5.6-9.9h-41.1v9.9l-5.1-9.9h-55.5c-9.3 0-17.5 1.3-24.1 4.9v-4.9h-38.3v4.9c-4.2-3.7-9.9-4.9-16.3-4.9h-140l-9.4 21.7-9.5-21.7h-44.1v9.9l-4.8-9.9h-37.6l-17.5 40v44.2h24.6l5.6-13.4h12.4l5.5 13.4h48.5v-10.2l4.3 10.3h25.2zm190.2-54.9c4.7-4.8 12-7 21.9-7h14v12.9h-13.7c-5.3 0-8.2.8-11.1 3.6-2.5 2.5-4.1 7.3-4.1 13.7s1.3 11.1 4 14.2c2.2 2.4 6.3 3.1 10 3.1h6.5l20.3-47.4h21.6l24.4 57.1v-57.2h22l25.4 42v-42h14.8l-.2 60.3h-20.4l-27.3-45.3v45.3h-29.4l-5.6-13.5h-30l-5.5 13.5h-16.8c-7 0-15.9-1.6-20.9-6.7s-7.7-12.1-7.7-23c0-8.9 1.6-17.1 7.8-23.6zm-29.6-7h14.7v60.3h-14.7zm-66.3 0h33.2c7.4 0 12.8.2 17.5 2.9s7.2 6.6 7.2 13.3c.2 6.9-3.8 13.3-10.2 16.1 2.8 1 5.2 2.8 7.1 5.1 2 3 2.4 5.7 2.4 11.1v11.9h-14.5v-7.6c0-3.6.4-8.8-2.3-11.8-2.1-2.1-5.3-2.6-10.5-2.6h-15.5v21.9h-14.4zm-58.2 0h48.2v12.6h-33.8v10.9h33v12.4h-33v12h33.8v12.4h-48.2zm-59.2 60.3-21-47.3v47.3h-29.3l-5.5-13.5h-30l-5.6 13.5h-15.7l25.8-60.3h21.4l24.6 57.1v-57.1h23.5l18.9 40.9 17.3-40.9h24v60.3h-14.8l-.1-47.2-20.8 47.2zm147.9 55.9h-18.8v15.4h18.6c5.5 0 9-2.7 9-8s-3.6-7.4-8.8-7.4z"/></g></svg><svg height="318.58" viewBox="0 0 513.04 318.58" width="513.04" y="319"><path d="m474.68 0h-446.01c-12.75 0-25.49 12.74-25.49 25.48v254.87q0 38.23 38.23 38.23h433.27q38.23 0 38.23-38.23v-242.13q-.04-38.22-38.23-38.22z" fill="#666"/><path d="m46.25 116.68-9.87-24.06-9.82 24.06zm217.48-9.58c-2 1.2-4.33 1.24-7.13 1.24h-17.52v-13.4h17.79c2.51 0 5.14.11 6.84 1.09a5.52 5.52 0 0 1 3 5.33c0 2.64-1.1 4.76-3 5.74zm125 9.58-10-24.06-9.86 24.06zm-233 26h-14.79l-.07-47.23-20.9 47.26h-12.66l-21-47.3v47.3h-29.31l-5.54-13.46h-30l-5.59 13.46h-15.71l25.83-60.34h21.43l24.53 57.13v-57.13h23.54l18.88 40.94 17.34-40.94h24v60.34zm58.93 0h-48.18v-60.31h48.18v12.57h-33.79v10.88h33v12.37h-33v12.05h33.76v12.48zm67.94-44.09a17 17 0 0 1 -10.16 16.08 16.72 16.72 0 0 1 7.13 5.08c2 3 2.39 5.68 2.39 11.07v11.85h-14.55l-.05-7.61c0-3.63.35-8.85-2.28-11.76-2.11-2.12-5.32-2.58-10.51-2.58h-15.49v21.95h-14.42v-60.3h33.21c7.37 0 12.8.19 17.47 2.89s7.3 6.63 7.3 13.36zm23.08 44.09h-14.72v-60.31h14.72v60.34zm170.74 0h-20.44l-27.34-45.26v45.29h-29.38l-5.61-13.46h-30l-5.45 13.46h-16.84c-7 0-15.89-1.55-20.91-6.67s-7.71-12.06-7.71-23c0-8.95 1.58-17.13 7.78-23.6 4.66-4.82 12-7 21.9-7h14v12.86h-13.7c-5.26 0-8.24.78-11.1 3.57-2.46 2.54-4.15 7.34-4.15 13.67s1.28 11.13 4 14.17c2.22 2.39 6.26 3.11 10.05 3.11h6.48l20.3-47.45h21.57l24.42 57.08v-57.08h22l25.35 42v-42h14.77v60.34zm-476.42 11.89h24.64l5.56-13.4h12.44l5.54 13.4h48.49v-10.25l4.33 10.29h25.17l4.33-10.44v10.4h120.5l-.06-22h2.33c1.63.06 2.11.21 2.11 2.9v19.1h62.33v-5.12c5 2.69 12.85 5.12 23.14 5.12h26.22l5.61-13.4h12.44l5.49 13.4h50.53v-12.7l7.65 12.73h40.48v-84.19h-40.07v9.94l-5.61-9.94h-41.12v9.94l-5.15-9.94h-55.54c-9.3 0-17.47 1.3-24.07 4.91v-4.91h-38.33v4.91c-4.2-3.73-9.92-4.91-16.29-4.91h-140l-9.4 21.74-9.65-21.74h-44.12v9.94l-4.85-9.94h-37.61l-17.47 40v44.16zm513 44.44h-26.25c-2.62 0-4.37.1-5.84 1.09a4.7 4.7 0 0 0 -2.11 4.34 4.55 4.55 0 0 0 3.15 4.5 16.44 16.44 0 0 0 5.56.68l7.82.21c7.89.19 13.15 1.55 16.36 4.86a7.77 7.77 0 0 1 1.34 1.49zm0 39.79c-3.5 5.12-10.33 7.72-19.57 7.72h-27.82v-12.95h27.74c2.75 0 4.68-.36 5.84-1.49a5.31 5.31 0 0 0 1.71-3.94 5 5 0 0 0 -1.76-4c-1-.92-2.57-1.34-5.08-1.34-13.54-.46-30.44.42-30.44-18.68 0-8.75 5.56-18 20.69-18h28.73v-12h-26.7c-8.06 0-13.91 1.93-18.05 4.93v-4.93h-39.48c-6.31 0-13.73 1.57-17.23 4.93v-4.93h-70.51v4.93c-5.61-4-15.08-4.93-19.45-4.93h-46.51v4.93c-4.44-4.3-14.31-4.93-20.33-4.93h-52l-11.91 12.92-11.2-12.89h-77.8v84.22h76.29l12.27-13.09 11.56 13.09h47v-19.77h4.62c6.24.1 13.6-.15 20.09-3v22.77h38.79v-22h1.87c2.39 0 2.62.1 2.62 2.48v19.52h117.89c7.48 0 15.3-1.91 19.63-5.39v5.39h37.37c7.78 0 15.37-1.09 21.15-3.88v-15.7zm-57.53-24.11c2.81 2.91 4.31 6.58 4.31 12.79 0 13-8.11 19-22.66 19h-28.06v-12.91h28c2.74 0 4.68-.36 5.89-1.49a5.35 5.35 0 0 0 1.7-3.94 5.18 5.18 0 0 0 -1.76-4c-1.1-.92-2.62-1.34-5.14-1.34-13.49-.46-30.38.42-30.38-18.68 0-8.75 5.5-18 20.62-18h28.88v12.85h-26.43c-2.62 0-4.33.1-5.78 1.09a5.06 5.06 0 0 0 1 8.84 16.58 16.58 0 0 0 5.61.68l7.76.21c7.83.19 13.2 1.55 16.47 4.85zm-130.15-3.73c-1.93 1.14-4.32 1.24-7.12 1.24h-17.49v-13.56h17.76c2.57 0 5.14.05 6.88 1.09a5.74 5.74 0 0 1 3 5.43 6.51 6.51 0 0 1 -3 5.79zm8.71 7.51a15.68 15.68 0 0 1 7.07 5.07c2 2.95 2.33 5.7 2.39 11v12h-14.45v-7.55c0-3.63.35-9-2.33-11.81-2.11-2.16-5.32-2.68-10.58-2.68h-15.42v22h-14.49v-60.34h33.3c7.3 0 12.62.32 17.35 2.85 4.55 2.75 7.42 6.52 7.42 13.4a16.9 16.9 0 0 1 -10.22 16.06zm18.22-32.31h48.14v12.48h-33.74v11h33v12.31h-33v12l33.78.05v12.52h-48.15v-60.36zm-97.28 27.85h-18.64v-15.37h18.81c5.21 0 8.82 2.12 8.82 7.4s-3.45 8-9 8zm-33 27-22.14-24.59 22.14-23.8zm-57.19-7.09h-35.47v-12h31.67v-12.31h-31.67v-11h36.16l15.78 17.59-16.48 17.74zm114.67-27.89c0 16.77-12.51 20.23-25.12 20.23h-18v20.24h-28l-17.76-20-18.46 20h-57.17v-60.34h58l17.75 19.78 18.35-19.78h46.09c11.45 0 24.31 3.17 24.31 19.88z" fill="#fff"/></svg><svg height="318.1" viewBox="0 0 512 318.1" width="512" y="638"><path d="m481.9 5c13.8 0 25.1 11.3 25.1 25.1v257.9c0 13.9-11.3 25.1-25.1 25.1h-451.8c-13.9 0-25.1-11.2-25.1-25.1v-257.9c0-13.9 11.2-25.1 25.1-25.1z" fill="#fff"/><path d="m481.9 5c13.9 0 25.1 11.3 25.1 25.1v257.9c0 13.9-11.3 25.1-25.1 25.1h-451.8c-13.8 0-25.1-11.2-25.1-25.1v-257.9c0-13.9 11.3-25.1 25.1-25.1zm0-5h-451.8c-16.6 0-30.1 13.5-30.1 30.1v257.9c0 16.6 13.5 30.1 30.1 30.1h451.8c16.6 0 30.1-13.5 30.1-30.1v-257.9c0-16.6-13.5-30.1-30.1-30.1z" fill="#ef7d00"/><path d="m508.6 298.8v-121.6s-136.7 96.4-386.9 139.6h359.5c15.4-.5 24.3-5.5 27.4-18z" fill="#ef7d00"/><path d="m272.3 80c-20.5 0-37.2 16-37.2 35.8 0 21 15.9 36.8 37.2 36.8 20.7 0 37.1-15.9 37.1-36.4s-16.3-36.2-37.1-36.2z" fill="url(#a)"/><path d="m61.2 81.3h-20v69.7h19.9c10.6 0 18.2-2.5 24.9-8 8-6.6 12.6-16.4 12.7-26.8-.1-20.6-15.5-34.9-37.5-34.9zm15.9 52.3c-4.3 3.9-9.8 5.6-18.6 5.6h-3.7v-46.1h3.7c8.8 0 14.1 1.6 18.6 5.6 4.8 4.5 7.6 10.8 7.5 17.3.1 6.7-2.6 13.1-7.5 17.6zm27.8-52.3h13.6v69.7h-13.6zm46.9 26.7c-8.2-3-10.6-5-10.6-8.8 0-4.4 4.3-7.7 10.1-7.7 4.1 0 7.4 1.7 11 5.6l7.1-9.3c-5.6-5-13-7.8-20.5-7.7-12.3 0-21.7 8.6-21.7 20 0 9.6 4.4 14.5 17.1 19.2 5.3 1.9 8 3.1 9.4 4 2.5 1.5 4.1 4.2 4.1 7.2 0 5.6-4.5 9.8-10.6 9.8-6.5 0-11.7-3.2-14.8-9.3l-8.8 8.5c6.3 9.2 13.8 13.3 24.1 13.3 14.1 0 24-9.4 24-22.9.1-11.2-4.5-16.2-19.9-21.9zm24.3 8.2c0 20.5 16.1 36.4 36.8 36.4 5.9 0 11.7-1.4 17-4.1v-16c-5.4 5.4-10.2 7.6-16.4 7.6-13.7 0-23.4-9.9-23.4-24.1 0-13.4 10-23.9 22.8-23.9 6.5 0 11.4 2.3 17 7.8v-15.9c-5.1-2.8-10.9-4.3-16.7-4.3-20.6 0-37.1 16.2-37.1 36.5zm164 11.9-18.6-46.8h-14.9l29.6 71.5h7.3l30.1-71.5h-14.6zm39.8 22.9h38.6v-11.8h-25v-18.8h24v-11.8h-24v-15.5h25v-11.8h-38.6zm92.4-49.1c0-13.1-9-20.6-24.7-20.6h-20.2v69.7h13.6v-28h1.8l18.8 28h16.7l-22-29.4c10.4-2.1 16-9.1 16-19.7zm-27.3 11.5h-4v-21.2h4.2c8.5 0 13.1 3.6 13.1 10.3 0 7.1-4.6 10.9-13.3 10.9z" fill="#05171d"/><g fill="#1d1d1b"><path d="m481.9 86.5c0-1.2-.8-1.9-2.3-1.9h-2v6.1h1.5v-2.4l1.7 2.4h1.8l-2-2.5c.8-.2 1.3-.9 1.3-1.7zm-2.6.8h-.3v-1.6h.3c.7 0 1.1.3 1.1.8s-.3.8-1.1.8z"/><path d="m479.9 82.3c-3 0-5.4 2.3-5.4 5.3s2.3 5.4 5.3 5.4 5.4-2.3 5.4-5.3v-.1c0-2.9-2.4-5.3-5.3-5.3zm0 9.8c-2.4.1-4.5-1.8-4.6-4.2s1.8-4.5 4.2-4.6 4.5 1.8 4.6 4.2v.2c0 2.3-1.8 4.3-4.2 4.4zm-316.8 77.2 18.2 19.1v-18.1h2.6v24.4l-18.2-19v18h-2.6z"/><path d="m162.9 169.3v24.6h3v-17.6l18.2 19v-25.2h-3.1v17.7l-18.1-19.1zm.5.6c.8.8 18.2 19.1 18.2 19.1v-18.4h2.1v23.5l-18.2-19v18.3h-2.1zm33.1.4h12.1v2.4h-9.5v6.9h9.2v2.4h-9.2v9.1h9.5v2.4h-12.1z"/><path d="m208.6 170.1h-12.3v23.8h12.6v-2.9h-9.5v-8.7h9.2v-2.9h-9.2v-6.4h9.5v-2.9zm-.3.5v1.9h-9.5v7.4h9.2v1.9h-9.2v9.6h9.5v1.9h-11.6v-22.8h11.6zm18.6 23.1h-2.6v-20.9h-5.6v-2.4h13.9v2.4h-5.7z"/><path d="m232.6 170.1h-14.2v2.9h5.6v20.9h3.1v-20.9h5.7v-2.9zm-.2.5v1.9h-5.7v20.9h-2.1v-20.9h-5.6v-1.9zm17.6 17.2 7.5-18.7 7.5 18.7 6.1-17.5h2.8l-9 24.5-7.5-18.8-7.6 18.8-8.9-24.5h2.9z"/><path d="m257.4 169-7.3 18.1-6-17h-3.3l9.3 25.5 7.5-18.8c.4 1.1 7.5 18.8 7.5 18.8l9.3-25.5h-3.4l-6 17c-.5-1.1-7.5-18.6-7.5-18.6zm-7.2 18.9 7.3-18.1c.4 1 7.6 18.7 7.6 18.7l6.3-17.9h2.3c-.2.6-8.2 22.5-8.6 23.6l-7.5-18.8-7.6 18.8c-.4-1.1-8.4-23-8.6-23.6h2.3l6.3 17.9zm57.5-5.9c0 6.7-5.4 12.2-12.1 12.2s-12.2-5.4-12.2-12.1 5.4-12.2 12.1-12.2h.1c6.6 0 12 5.4 12.1 12.1zm-21.8 0c.1 5.3 4.4 9.5 9.7 9.5 5.3-.1 9.5-4.4 9.5-9.7-.1-5.2-4.3-9.5-9.5-9.5-5.4.1-9.7 4.4-9.7 9.7z"/><path d="m283.1 182c0 6.8 5.5 12.4 12.3 12.5 6.8 0 12.4-5.5 12.5-12.3 0-6.8-5.5-12.4-12.3-12.5h-.1c-6.8 0-12.4 5.5-12.4 12.3zm.5 0c-.1-6.6 5.2-12 11.8-12.1s12 5.2 12.1 11.8-5.2 12-11.8 12.1h-.1c-6.6 0-12-5.3-12-11.8z"/><path d="m285.7 182c0 5.4 4.5 9.8 9.9 9.7s9.8-4.5 9.7-9.9c0-5.4-4.4-9.7-9.8-9.7s-9.8 4.4-9.8 9.9zm.5 0c.1-5.1 4.3-9.3 9.4-9.2s9.3 4.3 9.2 9.4-4.2 9.2-9.3 9.2c-5.2 0-9.3-4.2-9.3-9.4zm35.3 11.6h-2.6v-23.3h3.4c4.4 0 8.5 1.2 8.5 6.4.2 3.4-2.4 6.2-5.7 6.4h-.1l7.4 10.5h-3.2l-7-10.2h-.7zm0-12.5h.8c2.9 0 5.9-.6 5.9-4.2 0-3.8-2.8-4.2-5.9-4.2h-.8z"/><path d="m318.9 170.1h-.2v23.8h3.1v-10.2h.4c0 .2 6.9 10.1 6.9 10.1l3.4.1h.5s-7.1-10-7.5-10.6c3.3-.3 5.9-3.2 5.7-6.6 0-4.5-2.9-6.7-8.8-6.7zm3.4.5c5.6 0 8.3 2 8.3 6.2.2 3.2-2.3 6-5.5 6.2h-.5l7.4 10.4h-2.7c0-.2-6.9-10.1-6.9-10.1l-.9-.1h-.2v10.2h-2.1v-22.9z"/><path d="m321.5 172.5h-.2v8.9h1c2.9 0 6.1-.5 6.1-4.4 0-4.1-3.2-4.4-6.2-4.4zm.8.5c3 0 5.7.3 5.7 4 0 3.5-2.9 3.9-5.7 3.9h-.6v-7.9zm33.7-2.7h3.5l-11 10.9 11.3 12.5h-3.6l-9.6-10.7-.6.6v10.1h-2.6v-23.3h2.6v10z"/><path d="m359.5 170.1h-3.6s-8.8 8.9-9.6 9.6v-9.6h-3.1v23.8h3.1v-10.3c.1-.1.3-.2.4-.3.3.4 9.4 10.5 9.4 10.5l3.8.1h.6s-11.2-12.4-11.6-12.7l11.2-11.1zm-.6.5c-.8.8-10.7 10.6-10.7 10.6l11.1 12.2h-3c0-.1-9.4-10.6-9.4-10.6l-.2-.2-.8.8s-.1 9.5-.1 10h-2.1v-22.9h2.1v10.4l10.3-10.4h2.8z"/></g></svg><svg height="318.1" viewBox="0 0 512 318.1" width="512" y="957"><path d="m481.9 5c13.8 0 25.1 11.3 25.1 25.1v257.9c0 13.9-11.3 25.1-25.1 25.1h-451.8c-13.9 0-25.1-11.2-25.1-25.1v-257.9c0-13.9 11.2-25.1 25.1-25.1z" fill="#fff"/><path d="m481.9 5c13.9 0 25.1 11.3 25.1 25.1v257.9c0 13.9-11.3 25.1-25.1 25.1h-451.8c-13.8 0-25.1-11.2-25.1-25.1v-257.9c0-13.9 11.3-25.1 25.1-25.1zm0-5h-451.8c-16.6 0-30.1 13.5-30.1 30.1v257.9c0 16.6 13.5 30.1 30.1 30.1h451.8c16.6 0 30.1-13.5 30.1-30.1v-257.9c0-16.6-13.5-30.1-30.1-30.1z" fill="#919191"/><path d="m508.6 298.8v-121.6s-136.7 96.4-386.9 139.6h359.5c15.4-.5 24.3-5.5 27.4-18zm-236.3-218.8c-20.5 0-37.2 16-37.2 35.8 0 21 15.9 36.8 37.2 36.8 20.7 0 37.1-15.9 37.1-36.4s-16.3-36.2-37.1-36.2z" fill="#999"/><g fill="#666"><path d="m61.2 81.3h-20v69.7h19.9c10.6 0 18.2-2.5 24.9-8 8-6.6 12.6-16.4 12.7-26.8-.1-20.6-15.5-34.9-37.5-34.9zm15.9 52.3c-4.3 3.9-9.8 5.6-18.6 5.6h-3.7v-46.1h3.7c8.8 0 14.1 1.6 18.6 5.6 4.8 4.5 7.6 10.8 7.5 17.3.1 6.7-2.6 13.1-7.5 17.6zm27.8-52.3h13.6v69.7h-13.6zm46.9 26.7c-8.2-3-10.6-5-10.6-8.8 0-4.4 4.3-7.7 10.1-7.7 4.1 0 7.4 1.7 11 5.6l7.1-9.3c-5.6-5-13-7.8-20.5-7.7-12.3 0-21.7 8.6-21.7 20 0 9.6 4.4 14.5 17.1 19.2 5.3 1.9 8 3.1 9.4 4 2.5 1.5 4.1 4.2 4.1 7.2 0 5.6-4.5 9.8-10.6 9.8-6.5 0-11.7-3.2-14.8-9.3l-8.8 8.5c6.3 9.2 13.8 13.3 24.1 13.3 14.1 0 24-9.4 24-22.9.1-11.2-4.5-16.2-19.9-21.9zm24.3 8.2c0 20.5 16.1 36.4 36.8 36.4 5.9 0 11.7-1.4 17-4.1v-16c-5.4 5.4-10.2 7.6-16.4 7.6-13.7 0-23.4-9.9-23.4-24.1 0-13.4 10-23.9 22.8-23.9 6.5 0 11.4 2.3 17 7.8v-15.9c-5.1-2.8-10.9-4.3-16.7-4.3-20.6 0-37.1 16.2-37.1 36.5zm164 11.9-18.6-46.8h-14.9l29.6 71.5h7.3l30.1-71.5h-14.6zm39.8 22.9h38.6v-11.8h-25v-18.8h24v-11.8h-24v-15.5h25v-11.8h-38.6zm92.4-49.1c0-13.1-9-20.6-24.7-20.6h-20.2v69.7h13.6v-28h1.8l18.8 28h16.7l-22-29.4c10.4-2.1 16-9.1 16-19.7zm-27.3 11.5h-4v-21.2h4.2c8.5 0 13.1 3.6 13.1 10.3 0 7.1-4.6 10.9-13.3 10.9zm36.9-26.9c0-1.2-.8-1.9-2.3-1.9h-2v6.1h1.5v-2.4l1.7 2.4h1.8l-2-2.5c.8-.2 1.3-.9 1.3-1.7zm-2.6.8h-.3v-1.6h.3c.7 0 1.1.3 1.1.8s-.3.8-1.1.8z"/><path d="m479.9 82.3c-3 0-5.4 2.3-5.4 5.3s2.3 5.4 5.3 5.4 5.4-2.3 5.4-5.3v-.1c0-2.9-2.4-5.3-5.3-5.3zm0 9.8c-2.4.1-4.5-1.8-4.6-4.2s1.8-4.5 4.2-4.6 4.5 1.8 4.6 4.2v.2c0 2.3-1.8 4.3-4.2 4.4zm-316.8 77.2 18.2 19.1v-18.1h2.6v24.4l-18.2-19v18h-2.6z"/><path d="m162.9 169.3v24.6h3v-17.6l18.2 19v-25.2h-3.1v17.7l-18.1-19.1zm.5.6c.8.8 18.2 19.1 18.2 19.1v-18.4h2.1v23.5l-18.2-19v18.3h-2.1zm33.1.4h12.1v2.4h-9.5v6.9h9.2v2.4h-9.2v9.1h9.5v2.4h-12.1z"/><path d="m208.6 170.1h-12.3v23.8h12.6v-2.9h-9.5v-8.7h9.2v-2.9h-9.2v-6.4h9.5v-2.9zm-.3.5v1.9h-9.5v7.4h9.2v1.9h-9.2v9.6h9.5v1.9h-11.6v-22.8h11.6zm18.6 23.1h-2.6v-20.9h-5.6v-2.4h13.9v2.4h-5.7z"/><path d="m232.6 170.1h-14.2v2.9h5.6v20.9h3.1v-20.9h5.7v-2.9zm-.2.5v1.9h-5.7v20.9h-2.1v-20.9h-5.6v-1.9zm17.6 17.2 7.5-18.7 7.5 18.7 6.1-17.5h2.8l-9 24.5-7.5-18.8-7.6 18.8-8.9-24.5h2.9z"/><path d="m257.4 169-7.3 18.1-6-17h-3.3l9.3 25.5 7.5-18.8c.4 1.1 7.5 18.8 7.5 18.8l9.3-25.5h-3.4l-6 17c-.5-1.1-7.5-18.6-7.5-18.6zm-7.2 18.9 7.3-18.1c.4 1 7.6 18.7 7.6 18.7l6.3-17.9h2.3c-.2.6-8.2 22.5-8.6 23.6l-7.5-18.8-7.6 18.8c-.4-1.1-8.4-23-8.6-23.6h2.3l6.3 17.9zm57.5-5.9c0 6.7-5.4 12.2-12.1 12.2s-12.2-5.4-12.2-12.1 5.4-12.2 12.1-12.2h.1c6.6 0 12 5.4 12.1 12.1zm-21.8 0c.1 5.3 4.4 9.5 9.7 9.5 5.3-.1 9.5-4.4 9.5-9.7-.1-5.2-4.3-9.5-9.5-9.5-5.4.1-9.7 4.4-9.7 9.7z"/><path d="m283.1 182c0 6.8 5.5 12.4 12.3 12.5 6.8 0 12.4-5.5 12.5-12.3 0-6.8-5.5-12.4-12.3-12.5h-.1c-6.8 0-12.4 5.5-12.4 12.3zm.5 0c-.1-6.6 5.2-12 11.8-12.1s12 5.2 12.1 11.8-5.2 12-11.8 12.1h-.1c-6.6 0-12-5.3-12-11.8z"/><path d="m285.7 182c0 5.4 4.5 9.8 9.9 9.7s9.8-4.5 9.7-9.9c0-5.4-4.4-9.7-9.8-9.7s-9.8 4.4-9.8 9.9zm.5 0c.1-5.1 4.3-9.3 9.4-9.2s9.3 4.3 9.2 9.4-4.2 9.2-9.3 9.2c-5.2 0-9.3-4.2-9.3-9.4zm35.3 11.6h-2.6v-23.3h3.4c4.4 0 8.5 1.2 8.5 6.4.2 3.4-2.4 6.2-5.7 6.4h-.1l7.4 10.5h-3.2l-7-10.2h-.7zm0-12.5h.8c2.9 0 5.9-.6 5.9-4.2 0-3.8-2.8-4.2-5.9-4.2h-.8z"/><path d="m318.9 170.1h-.2v23.8h3.1v-10.2h.4c0 .2 6.9 10.1 6.9 10.1l3.4.1h.5s-7.1-10-7.5-10.6c3.3-.3 5.9-3.2 5.7-6.6 0-4.5-2.9-6.7-8.8-6.7zm3.4.5c5.6 0 8.3 2 8.3 6.2.2 3.2-2.3 6-5.5 6.2h-.5l7.4 10.4h-2.7c0-.2-6.9-10.1-6.9-10.1l-.9-.1h-.2v10.2h-2.1v-22.9z"/><path d="m321.5 172.5h-.2v8.9h1c2.9 0 6.1-.5 6.1-4.4 0-4.1-3.2-4.4-6.2-4.4zm.8.5c3 0 5.7.3 5.7 4 0 3.5-2.9 3.9-5.7 3.9h-.6v-7.9zm33.7-2.7h3.5l-11 10.9 11.3 12.5h-3.6l-9.6-10.7-.6.6v10.1h-2.6v-23.3h2.6v10z"/><path d="m359.5 170.1h-3.6s-8.8 8.9-9.6 9.6v-9.6h-3.1v23.8h3.1v-10.3c.1-.1.3-.2.4-.3.3.4 9.4 10.5 9.4 10.5l3.8.1h.6s-11.2-12.4-11.6-12.7l11.2-11.1zm-.6.5c-.8.8-10.7 10.6-10.7 10.6l11.1 12.2h-3c0-.1-9.4-10.6-9.4-10.6l-.2-.2-.8.8s-.1 9.5-.1 10h-2.1v-22.9h2.1v10.4l10.3-10.4h2.8z"/></g></svg><svg height="318.6" viewBox="0 0 513 318.6" width="513" y="1276"><path d="m30.6 0h451.8c16.9 0 30.6 13.7 30.6 30.6v257.4c0 16.9-13.7 30.6-30.6 30.6h-451.8c-16.9 0-30.6-13.7-30.6-30.6v-257.4c0-16.9 13.7-30.6 30.6-30.6z" fill="url(#b)"/><path d="m140.9 156.3 2.2-8.8c8.5-2.6 25.9-3.7 29.2 5.5 1.9 5.4-3.5 27.7-4.6 34.2l-8.3.1c-1.9-2.3-.4 2-1.6-3.7-7.9 7.1-24.9 6-23.6-8.4s13.7-12.4 27.1-14.5c-.2-9.1-11.7-6.7-20.6-4.6zm62.5-1.4c-7.6 0-8.8-1.6-15.4 1.3.8 8.3 5.1 5 11.1 9 11.3 7.5-.8 30.6-27.8 20.7l1.5-8.4c7.6 1.5 11.4 3 17.3-.2 1.4-11.8-19.5-4.1-13.7-23 3.1-10.3 17.1-8.9 28.5-7.8l-1.6 8.5zm-116.3-17.9 17.9.6 1.9 28 9.7-22.4c3.3-8.1 1.1-6.3 21.6-6.1l-9.2 50.1-10-.1 5.5-36-14.8 36.2-12-.4c-.3-7-.9-31.6-2.8-36.3l-6.1 36.4-10.5-.1zm170.4 106.4 4.9-5.8c-9.8-1.3-11.6 1.5-16-6.4l22.5-.2c1.4-2.3 3.7-4.6 4.9-7.2-25.7-1.8-32.9 4.8-37-6.4h41.2l4.6-7.1-50.9-.2-2.3-6 54.9-.2c3.1-1.8 3.1-3.7 4-7.4l-52-.1c-9.3.1-9.9 2.2-11.7-6.3h65.4l2.1-7.2-19.1-.2-.9 4.9-11-.5 6.9-40.8 10.4 1.4c0 .2.2 1.1.2 1.4s.1.6.1.7l.6 2.1c2.9-3.5 4.8-6.1 11.6-5.8l-3.5 9.5c-2 2.6-7.8-.4-10.3 6.7l11.5.5c1.3-7.4 2.7-9.6 4.8-15.5l.1-3.5-71.7.2-.2 2.6c3.9 0 3.7-.7 6 1.2l-1.1 6.9c-7.2 1.8-7-2.6-7.7 6.9 1.1 1.8-.2.8 2 1.4l4.6.1c7.4-23.9 29.3-18.7 34.3-11.2 2.7 4 5.4 17.1-1.3 18.1l-22.3.2c1.1 11.8 14.6 9.3 23.4 6.4-.4 4.9 0 8.9-4.6 10.5-3.6 1.3-11.2.9-15.2 0-9.8-2.2-14-7.1-14.7-17.8l-4.2-.1c-3.9-1.8-.8 0-2.8-4.8-1.6 9.8-6.1 16.1 6.1 14.7-.7 5.8.1 7.8-6.3 8.5-18.7 2.2-12.6-10.3-9.6-27 4.8-26.6 1.1-23.4 14.6-23.1l69.6.1-1.4-7.2-67.3-.2 1.3-5.8 63.7-.3c-1.6-9.9-2-7.5-25.1-7.5h-35.3c2.4-8.5 1.2-6.2 24.1-6.2h31l-3.3-7.3-44.9-.1 3-6.1 37.5-.2c-4.8-9.8-4.6-7-31.1-7.5 3.4-8.4 9.3-6.3 19.7-6.3-2.9-4.7-5-4.3-6.8-8.3-4.3-2.2-8.2-6.2-12.5-9.2-33-23.4-77.9-25.8-113.8-8.3-32.5 15.1-64.2 51.3-63.9 101.4.5 71.6 63.3 123.8 134.4 111.7 33.4-5.7 41.8-19.3 55.6-26.9z" fill="#e41d2c"/><path d="m333.7 147.2c36.2-7.4 30.2 10.5 27.3 25-.9 4.3-.9 12.9-4.3 15.2-2 .1-4.1 0-6.1-.1-3.3-1.3-1.8 2.6-2.2-3.4-9.8 5.6-25.3 6.9-23.5-8.8 1.5-12.5 14.1-14.5 27-13.9-.5-9.2-8.9-7.7-20.6-4.8l2.5-9.2zm35.7-1.1 9.7.1c.1.3.2.5.2.8l1.5 4.3c1.8-2.7 5-5 10.2-5.1l-1.3 8.3-4.8 1.9c-9.6 3.1-9 15.2-11.6 31h-10.9zm51.6-8.9h9.9l-8.5 50.2c-11.1.1-8.4.7-11.9-3.5-7.2 10.8-29 .8-22.3-21.4 4.9-16.6 21.5-21 29.7-11.2l3.3-14.2zm-163.4-63c1.8 4 4 3.6 6.8 8.3-10.4 0-16.4-2.2-19.7 6.3 26.5.5 26.3-2.3 31.1 7.5l-37.5.2-3 6.1 44.9.1 3.3 7.4h-31c-22.8 0-21.6-2.2-24.1 6.2h35.3c23.1 0 23.5-2.4 25.1 7.5l-63.8.2-1.3 5.9 67.3.2 1.4 7.2-69.6-.1-.9 6.5 71.6-.1-.1 3.5c5.4-5.1 4.4-7.8 14.5-10.8 8.3-2.3 13.5-.6 21.7 1.2l-1.8 10.8c-14-4.2-23.1-3.1-26.4 11.3-3.6 15.5 8.6 21.4 21.6 15.2-1.2 11.3-3 14.1-16.4 12.4-9.2-1.2-12-5.6-16.1-11.1h-16.7l-.9 6.4 19.1.2-2.1 7.2h-65.4c1.8 8.5 2.3 6.4 11.7 6.3l52 .1c-.9 3.5-.8 5.6-4 7.4l-54.9.2 2.3 6 50.9.2-4.6 7.1h-41.2c4.1 11.1 11.3 4.7 37 6.4-1.2 2.7-3.5 4.9-4.9 7.2l-22.5.2c4.3 7.8 6.2 5.1 16 6.4l-4.9 5.9c16.7 12.3 29.7 22.5 56.6 27.2 23.8 3.8 48.2.3 69.8-10.2 85.5-42.2 83.2-163.6-.7-203.8-30.1-14.4-70.1-15.7-101.3.7-15.1 7.8-18.7 13.4-24.3 16.8z" fill="#f8b02b"/><path d="m78.1 187.1 10.5.1 6.1-36.4c1.9 4.7 2.4 29.3 2.8 36.3l12 .4 14.8-36.2-5.5 36 10 .1 9.2-50.1c-20.6-.2-18.3-2-21.6 6.1l-9.7 22.4-1.9-28-17.8-.6zm325.4-9.2c-8.8-9-1.3-23.9 6.9-22s6.5 21.7-6.9 22zm14.2-26.5c-8.2-9.8-24.6-5.4-29.7 11.2-6.7 22.1 15.1 32.1 22.3 21.4 3.5 4.2.8 3.5 11.9 3.5l8.5-50.2h-9.9l-3.3 14.2zm-80.2 26.6c-1.6-7.8 5.6-10.9 12.5-9.5.3 8-5.3 12.3-12.5 9.5zm-3.8-30.7-2.5 9.2c11.7-2.8 20.2-4.3 20.6 4.8-12.9-.6-25.5 1.4-27 13.9-2 15.6 13.7 14.4 23.5 8.8.5 6-1 2.1 2.2 3.4 2 .2 4 .2 6.1.1 3.5-2.2 3.5-10.9 4.3-15.2 3-14.6 8.9-32.4-27.3-25zm-174.2 20.9c.2 4-.5 7-3 9-1.8 1.3-7 2.8-9.1.8-6.5-6 5.7-9.9 12-9.8zm-18.6-11.9c8.9-2.1 20.3-4.6 20.6 4.6-13.4 2.1-25.8.2-27.1 14.5s15.5 15.5 23.6 8.4c1.3 5.7-.2 1.4 1.6 3.7l8.3-.1c1.1-6.7 6.4-28.9 4.6-34.2-3.3-9.3-20.6-8.2-29.2-5.5l-2.2 8.8zm96.8 5.8c1.5-6 4.1-8.4 11-7.5 2.4 3.5 2.4 2.4 2.9 7.5zm-12.4.6-.5 6.3c.7 10.6 5 15.4 14.7 17.8 4 .9 11.6 1.3 15.2 0 4.6-1.5 4.2-5.6 4.6-10.5-8.8 2.9-22.3 5.4-23.4-6.4l22.3-.2c6.7-1.1 4-14 1.3-18.1-5-7.5-27-12.7-34.3 11.2zm68-15.5c-2.1 6-3.5 8.2-4.8 15.5v6.4l2 7.1c4.1 5.5 6.9 9.9 16.1 11.1 13.3 1.8 15.2-1.1 16.4-12.4-13.1 6.2-25.2.4-21.6-15.2 3.4-14.6 12.5-15.5 26.4-11.3l1.8-10.8c-8.2-1.6-13.4-3.4-21.7-1.2-10 2.8-9.1 5.6-14.5 10.8zm-88.4-.9c-11.4-.9-25.3-2.4-28.5 7.8-5.8 18.9 14.9 11.2 13.7 23-6 3.3-9.7 1.8-17.3.2l-1.5 8.4c27 9.9 39-13.1 27.8-20.7-6-4-10.3-.6-11.1-9 6.7-3 7.7-1.3 15.4-1.3l1.6-8.5z" fill="#fefefe"/><path d="m218 164.1.8-2.8c.7-9.5.5-5.1 7.7-6.9l1.1-6.9c-2.2-1.9-2.1-1.2-6-1.2l.2-2.6.9-6.5c-13.6-.2-9.8-3.5-14.6 23.1-3 16.7-9.1 29.2 9.6 27 6.3-.7 5.6-2.7 6.3-8.5-12 1.4-7.5-4.9-6-14.7zm54.9 18.6.9-6.4 1.2-7 2.1-7c2.6-7 8.4-4.1 10.3-6.7l3.5-9.5c-6.9-.2-8.8 2.3-11.6 5.8l-.6-2.1c0-.1-.1-.5-.1-.7s-.2-1.2-.2-1.4l-10.4-1.4-6.9 40.8 11 .5.9-4.9zm89.6 4.6h10.9c2.6-15.8 2-27.8 11.6-31l4.8-1.8 1.4-8.3c-5.1.1-8.4 2.4-10.2 5.1l-1.5-4.3c-.1-.2-.1-.6-.2-.8l-9.7-.1z" fill="#fefefe"/><path d="m403.5 177.9c13.5-.2 15.1-20 6.9-22s-15.7 13-6.9 22z" fill="#f8b02b"/><path d="m159.5 168.2c-6.3-.1-18.6 3.9-12 9.8 2.1 1.9 7.4.4 9.1-.8 2.6-1.9 3.1-5 3-9zm114.3 7.9 16.7.1-2-7.1h-13.5z" fill="#e41d2c"/><path d="m337.5 178c7.4 2.7 12.9-1.5 12.5-9.5-7-1.3-14.2 1.8-12.5 9.5zm-62.5-8.9h13.5v-6.4l-11.4-.6z" fill="#f8b02b"/><path d="m237.7 162.1h13.9c-.4-4.9-.5-4-2.9-7.5-6.9-.9-9.5 1.5-11 7.5z" fill="#e41d2c"/><path d="m218 164.1c2 4.8-1.1 3 2.8 4.8l4.2.1.5-6.3-4.6-.1c-2.3-.5-1.1.4-2-1.4l-.8 2.8z" fill="#f8b02b"/></svg><svg height="318.62" viewBox="0 0 513.04 318.62" width="513.04" y="1595"><rect fill="#666" height="318.62" rx="30.6" width="513.04"/><g transform="translate(-.3 -.44)"><path d="m141.21 156.71 2.22-8.76c8.53-2.57 25.93-3.74 29.2 5.49 1.87 5.37-3.5 27.68-4.56 34.22l-8.29.12c-1.87-2.34-.35 2-1.64-3.74-7.94 7.12-24.88 6-23.59-8.41s13.67-12.38 27.1-14.48c-.23-9.11-11.68-6.66-20.56-4.56zm62.49-1.4c-7.59 0-8.76-1.64-15.42 1.28.82 8.29 5.14 5 11.1 9 11.33 7.47-.82 30.6-27.8 20.67l1.52-8.41c7.59 1.52 11.45 3 17.29-.23 1.4-11.8-19.5-4.09-13.67-23 3.15-10.28 17.05-8.88 28.5-7.83l-1.64 8.53zm-116.33-17.87 17.87.58 1.87 28 9.69-22.42c3.27-8.06 1.05-6.31 21.61-6.07l-9.23 50.11-10-.12 5.49-36-14.83 36.21-12-.35c-.35-7-.93-31.65-2.8-36.32l-6.07 36.44-10.51-.12zm170.41 106.4 4.91-5.84c-9.81-1.28-11.56 1.52-16-6.42l22.54-.23c1.4-2.34 3.74-4.56 4.91-7.24-25.7-1.75-32.94 4.79-37-6.42h41.23l4.56-7.12-50.93-.25-2.34-6 54.89-.23c3.15-1.75 3.15-3.74 4-7.36l-52-.12c-9.34.12-9.93 2.22-11.68-6.31h65.41l2.1-7.24-19.15-.23-.93 4.91-11-.47 6.89-40.76 10.39 1.4c0 .23.23 1.05.23 1.4s.12.58.12.7l.58 2.1c2.92-3.5 4.79-6.07 11.56-5.84l-3.5 9.46c-2 2.57-7.83-.35-10.28 6.66l11.45.47c1.28-7.36 2.69-9.58 4.79-15.53l.12-3.5-71.65.17-.23 2.57c3.85 0 3.74-.7 6 1.17l-1.05 6.89c-7.24 1.75-7-2.57-7.71 6.89 1.05 1.75-.23.82 2 1.4l4.56.12c7.36-23.94 29.32-18.69 34.34-11.21 2.69 4 5.37 17.05-1.28 18.1l-22.31.23c1.05 11.8 14.6 9.34 23.36 6.42-.35 4.91 0 8.88-4.56 10.51-3.62 1.28-11.21.93-15.18 0-9.81-2.22-14-7.12-14.72-17.75l-4.2-.12c-3.85-1.75-.82 0-2.8-4.79-1.64 9.81-6.07 16.12 6.07 14.72-.7 5.84.12 7.83-6.31 8.53-18.69 2.22-12.61-10.28-9.58-27 4.79-26.63 1.05-23.36 14.6-23.13l69.61.12-1.4-7.24-67.27-.23 1.28-5.84 63.65-.35c-1.64-9.93-2-7.47-25.11-7.47h-35.3c2.45-8.53 1.17-6.19 24.06-6.19h31l-3.32-7.35-44.85-.12 3-6.07 37.49-.23c-4.79-9.81-4.56-7-31.07-7.47 3.39-8.41 9.34-6.31 19.74-6.31-2.92-4.67-5-4.32-6.77-8.29-4.32-2.22-8.18-6.19-12.5-9.23-33.02-23.38-77.87-25.83-113.84-8.28-32.4 15.62-64.12 51.82-63.77 101.93.47 71.6 63.3 123.8 134.43 111.66 33.4-5.72 41.81-19.27 55.6-26.86z" fill="#5a5a5a"/><path d="m78.37 187.55 10.51.12 6.12-36.45c1.87 4.67 2.45 29.32 2.8 36.32l12 .35 14.83-36.21-5.49 36 10 .12 9.23-50.11c-20.56-.23-18.34-2-21.61 6.07l-9.69 22.42-1.87-28-17.87-.58zm325.4-9.23c-8.76-9-1.28-23.94 6.89-22s6.54 21.76-6.89 22zm14.23-26.51c-8.18-9.81-24.64-5.37-29.67 11.21-6.66 22.07 15.07 32.12 22.31 21.37 3.5 4.2.82 3.5 11.91 3.5l8.53-50.22h-9.93l-3.27 14.25zm-80.22 26.63c-1.64-7.83 5.61-10.86 12.5-9.46.35 7.94-5.28 12.26-12.5 9.46zm-3.78-30.72-2.45 9.23c11.68-2.8 20.21-4.32 20.56 4.79-12.85-.58-25.46 1.4-27 13.9-2 15.65 13.67 14.37 23.48 8.76.47 6-1.05 2.1 2.22 3.39a51.14 51.14 0 0 0 6.07.12c3.5-2.22 3.5-10.86 4.32-15.18 3-14.6 8.88-32.35-27.33-25zm-174.22 20.9c.23 4-.47 7-3 9-1.75 1.28-7 2.8-9.11.82-6.54-6 5.72-9.93 12-9.81zm-18.57-11.91c8.88-2.1 20.32-4.56 20.56 4.56-13.43 2.1-25.81.23-27.1 14.48s15.53 15.53 23.59 8.41c1.28 5.72-.23 1.4 1.64 3.74l8.29-.12c1.05-6.66 6.42-28.85 4.56-34.22-3.27-9.34-20.56-8.18-29.2-5.49l-2.22 8.76zm96.79 5.84c1.52-6 4.09-8.41 11-7.47 2.45 3.5 2.45 2.45 2.92 7.47zm-12.38.58-.47 6.31c.7 10.63 5 15.42 14.72 17.75 4 .93 11.56 1.28 15.18 0 4.56-1.52 4.2-5.61 4.56-10.51-8.76 2.92-22.31 5.37-23.36-6.42l22.31-.23c6.66-1.05 4-14 1.28-18.1-5-7.47-27-12.73-34.34 11.21zm68.01-15.53c-2.1 6-3.5 8.18-4.79 15.53v6.42l2 7.12c4.09 5.49 6.89 9.93 16.12 11.1 13.31 1.75 15.18-1.05 16.35-12.38-13.08 6.19-25.23.35-21.61-15.18 3.39-14.6 12.5-15.53 26.4-11.33l1.75-10.75c-8.18-1.64-13.43-3.39-21.72-1.17-10 2.8-9.11 5.61-14.48 10.75zm-88.41-.82c-11.45-.93-25.34-2.45-28.5 7.83-5.84 18.92 14.95 11.21 13.67 23-6 3.27-9.69 1.75-17.29.23l-1.52 8.41c27 9.93 39-13.08 27.8-20.67-6-4-10.28-.58-11.1-9 6.66-3 7.71-1.28 15.42-1.28l1.64-8.53z" fill="#fff"/><path d="m218.3 164.54.82-2.8c.7-9.46.47-5.14 7.71-6.89l1.05-6.89c-2.22-1.87-2.1-1.17-6-1.17l.23-2.57.93-6.54c-13.55-.23-9.81-3.5-14.6 23.13-3 16.7-9.11 29.2 9.58 27 6.31-.7 5.61-2.69 6.31-8.53-11.99 1.37-7.55-4.93-6.03-14.74zm54.89 18.57.93-6.42 1.17-7 2.1-7c2.57-7 8.41-4.09 10.28-6.66l3.5-9.46c-6.89-.23-8.76 2.34-11.56 5.84l-.58-2.1c0-.12-.12-.47-.12-.7s-.23-1.17-.23-1.4l-10.39-1.4-6.89 40.76 11 .47.93-4.91zm89.58 4.67h10.86c2.57-15.77 2-27.8 11.56-31l4.81-1.78 1.4-8.29c-5.14.12-8.41 2.45-10.16 5.14l-1.52-4.32c-.12-.23-.12-.58-.23-.82l-9.69-.12z" fill="#fff"/><path d="m159.78 168.62c-6.31-.12-18.57 3.85-12 9.81 2.1 1.87 7.36.35 9.11-.82 2.57-1.87 3.15-5 3-9z" fill="#5a5a5a"/></g><path d="m273.83 176.13 16.7.12-1.98-7.13h-13.55z" fill="#5a5a5a"/><path d="m238 162.55h13.9c-.35-4.91-.47-4-2.92-7.47-6.86-.94-9.43 1.51-10.98 7.47z" fill="#5a5a5a" transform="translate(-.3 -.44)"/><path d="m334 147.6c36.21-7.36 30.25 10.51 27.33 25-.93 4.32-.93 12.85-4.32 15.18a51.14 51.14 0 0 1 -6.07-.12c-3.27-1.28-1.75 2.57-2.22-3.39-9.81 5.61-25.34 6.89-23.48-8.76 1.52-12.5 14.13-14.48 27-13.9-.47-9.23-8.88-7.71-20.56-4.79l2.45-9.23zm35.74-1.05 9.69.12a2.17 2.17 0 0 1 .23.82l1.52 4.32c1.75-2.69 5-5 10.16-5.14l-1.34 8.33-4.79 1.87c-9.58 3.15-9 15.18-11.56 31h-10.88zm51.51-8.88h9.93l-8.53 50.22c-11.1.12-8.41.7-11.91-3.5-7.24 10.75-29 .82-22.31-21.37 4.91-16.59 21.49-21 29.67-11.21l3.27-14.25zm-163.36-63.07c1.75 4 4 3.62 6.77 8.29-10.39 0-16.35-2.22-19.74 6.31 26.51.47 26.28-2.34 31.07 7.47l-37.49.23-3 6.07 44.85.12 3.27 7.36h-31c-22.78 0-21.61-2.22-24.06 6.19h35.27c23.13 0 23.48-2.45 25.11 7.47l-63.65.35-1.29 5.86 67.27.23 1.4 7.24-69.61-.12-.93 6.54 71.6-.12-.12 3.5c5.37-5.14 4.44-7.83 14.48-10.75 8.29-2.34 13.55-.58 21.72 1.17l-1.75 10.75c-14-4.2-23.13-3.15-26.4 11.33-3.62 15.53 8.64 21.37 21.61 15.18-1.17 11.33-3 14.13-16.35 12.38-9.23-1.17-12-5.61-16.12-11.1h-16.7l-.93 6.42 19.15.23-2.1 7.24h-65.38c1.75 8.53 2.34 6.42 11.68 6.31l52 .12c-.93 3.5-.82 5.61-4 7.36l-54.89.23 2.34 6 50.92.23-4.56 7.12h-41.23c4.09 11.1 11.33 4.67 37 6.42-1.17 2.69-3.5 4.91-4.91 7.24l-22.54.23c4.32 7.83 6.19 5.14 16 6.42l-4.88 5.88c16.7 12.26 29.67 22.54 56.65 27.21a117.58 117.58 0 0 0 69.84-10.21c85.49-42.16 83.16-163.63-.7-203.81-30.13-14.37-70.08-15.65-101.26.7-15.07 7.84-18.69 13.44-24.3 16.83z" fill="#b7b7b7" transform="translate(-.3 -.44)"/><path d="m403.77 178.32c13.55-.23 15.07-20 6.89-22s-15.66 13-6.89 22zm-65.99.12c7.36 2.69 12.85-1.52 12.5-9.46-7.01-1.29-14.14 1.75-12.5 9.46z" fill="#b7b7b7" transform="translate(-.3 -.44)"/><path d="m275 169.12h13.55v-6.42l-11.45-.59z" fill="#b7b7b7"/><path d="m218.3 164.54c2 4.79-1.05 3 2.8 4.79l4.2.12.47-6.31-4.56-.12c-2.34-.47-1.05.35-2-1.4l-.82 2.8z" fill="#b7b7b7" transform="translate(-.3 -.44)"/></svg><svg height="318.83" viewBox="0 0 505.4 318.83" width="505.4" y="1914"><path d="m483.22.17h-461.22c-9 0-14.66 1.38-17.72 4.24-2.66 3.26-3.95 8.59-3.95 16.49v276.68c0 14.12 7.31 21.42 21.67 21.42h461.22c15 0 22.51-7.3 22.51-21.42v-276.78c0-13.92-7.5-20.63-22.51-20.63z" fill="#dfdfe0" transform="translate(-.33 -.17)"/><path d="m97 260.27c74.53-32 179.06-60.9 317.55-31.88l1.45-35.15c-146.09-16-250.92 30.6-319 63.57v3.45z" fill="#f6ab1b" transform="translate(-.33 -.17)"/><g fill="#005696"><path d="m174.52 167.51 32.28-106.51h28.82l-32.28 106.51z"/><path d="m162 61.27-26 45.11c-6.61 11.85-10.46 17.77-12.34 25.27h-.39c.49-9.48-.89-21.12-1-27.64l-2.86-42.74h-48.41l-.49 2.86c12.44 0 19.84 6.22 21.91 19.05l9.48 84.5h29.81l60.42-106.51h-30.13zm224.09 106.41-.79-15.79h-36l-7.4 15.89h-31.32l56.76-106.31h38.4l9.57 106.31h-29.22zm-3.26-62.78c-.3-7.9-.59-18.56-.1-25h-.39c-1.78 5.33-9.28 21.12-12.63 29l-10.76 23.3h25.27l-1.38-27.34zm-116.57 65.84a80.25 80.25 0 0 1 -43.53-12.24l13.72-20.93c8.69 4.84 15.4 10.46 31.09 10.46 5 0 9.87-1.28 12.63-6 4-6.91-.89-10.66-12.14-17l-5.53-3.65c-16.68-11.45-23.89-22.21-16.09-41.16 5-12.14 18.26-21.22 40.17-21.22 15.1 0 29.22 6.51 37.51 12.93l-15.78 18.56c-8.1-6.49-14.71-9.78-22.31-9.78-6.12 0-10.66 2.37-12.34 5.53-3 5.92 1 10 9.77 15.4l6.61 4.24c20.24 12.73 25.07 26.16 20 38.69-8.88 21.32-26 26.16-43.83 26.16zm157.05-93.09h-1.88v-11.55h4.34c2.76 0 4.24 1 4.24 3.36a3 3 0 0 1 -3 3.16l3.26 5h-2.17l-3-4.94h-1.7v4.94zm2.07-6.51c1.38 0 2.67-.1 2.67-1.78 0-1.38-1.38-1.58-2.47-1.58h-2.27v3.36zm0 11c-6 0-10.27-4.44-10.27-10.46a10.22 10.22 0 1 1 10.27 10.42zm0-19.05c-4.54 0-8 3.55-8 8.59 0 4.74 3.06 8.59 8 8.59 4.44 0 8-3.55 8-8.59s-3.55-8.59-8-8.59z" transform="translate(-.33 -.17)"/></g></svg><svg height="318.83" viewBox="0 0 505.4 318.83" width="505.4" y="2233"><path d="m483.22.17h-461.22c-9 0-14.66 1.38-17.72 4.24-2.66 3.26-3.95 8.59-3.95 16.49v276.68c0 14.12 7.31 21.42 21.67 21.42h461.22c15 0 22.51-7.3 22.51-21.42v-276.78c0-13.92-7.5-20.63-22.51-20.63z" fill="#dfdfdf" transform="translate(-.33 -.17)"/><path d="m97 260.27c74.53-32 179.06-60.9 317.55-31.88l1.45-35.15c-146.09-16-250.92 30.6-319 63.57v3.45z" fill="#b2b2b2" transform="translate(-.33 -.17)"/><g fill="#434343"><path d="m174.52 167.51 32.28-106.51h28.82l-32.28 106.51z"/><path d="m162 61.27-26 45.11c-6.61 11.85-10.46 17.77-12.34 25.27h-.39c.49-9.48-.89-21.12-1-27.64l-2.86-42.74h-48.41l-.49 2.86c12.44 0 19.84 6.22 21.91 19.05l9.48 84.5h29.81l60.42-106.51h-30.13zm224.09 106.41-.79-15.79h-36l-7.4 15.89h-31.32l56.76-106.31h38.4l9.57 106.31h-29.22zm-3.26-62.78c-.3-7.9-.59-18.56-.1-25h-.39c-1.78 5.33-9.28 21.12-12.63 29l-10.76 23.3h25.27l-1.38-27.34zm-116.57 65.84a80.25 80.25 0 0 1 -43.53-12.24l13.72-20.93c8.69 4.84 15.4 10.46 31.09 10.46 5 0 9.87-1.28 12.63-6 4-6.91-.89-10.66-12.14-17l-5.53-3.65c-16.68-11.45-23.89-22.21-16.09-41.16 5-12.14 18.26-21.22 40.17-21.22 15.1 0 29.22 6.51 37.51 12.93l-15.78 18.56c-8.1-6.49-14.71-9.78-22.31-9.78-6.12 0-10.66 2.37-12.34 5.53-3 5.92 1 10 9.77 15.4l6.61 4.24c20.24 12.73 25.07 26.16 20 38.69-8.88 21.32-26 26.16-43.83 26.16zm157.05-93.09h-1.88v-11.55h4.34c2.76 0 4.24 1 4.24 3.36a3 3 0 0 1 -3 3.16l3.26 5h-2.17l-3-4.94h-1.7v4.94zm2.07-6.51c1.38 0 2.67-.1 2.67-1.78 0-1.38-1.38-1.58-2.47-1.58h-2.27v3.36zm0 11c-6 0-10.27-4.44-10.27-10.46a10.22 10.22 0 1 1 10.27 10.42zm0-19.05c-4.54 0-8 3.55-8 8.59 0 4.74 3.06 8.59 8 8.59 4.44 0 8-3.55 8-8.59s-3.55-8.59-8-8.59z" transform="translate(-.33 -.17)"/></g></svg></svg>