<svg enable-background="new 0 0 113.8 61.6" viewBox="0 0 113.8 61.6" xmlns="http://www.w3.org/2000/svg"><g transform="translate(-668 -39)"><path d="m688.8 48.5c-9.8 0-17.7 7.9-17.7 17.7s7.9 17.7 17.7 17.7h73.8c9.8 0 17.7-7.9 17.7-17.7s-7.9-17.7-17.7-17.7z" fill="#fff"/><path d="m688.8 48.5c-9.8 0-17.7 7.9-17.7 17.7s7.9 17.7 17.7 17.7h73.8c9.8 0 17.7-7.9 17.7-17.7s-7.9-17.7-17.7-17.7zm73.8 36.9h-73.8c-10.6 0-19.2-8.6-19.2-19.2s8.6-19.2 19.2-19.2h73.8c10.6 0 19.2 8.6 19.2 19.2s-8.6 19.2-19.2 19.2z" fill="#c5c7c9"/><path d="m753.8 63.3c-1.5 0-2.7-1.2-2.7-2.7s1.2-2.7 2.7-2.7 2.7 1.2 2.7 2.7-1.2 2.7-2.7 2.7m0-7.8c-2.9 0-5.2 2.3-5.2 5.2s2.3 5.2 5.2 5.2 5.2-2.3 5.2-5.2-2.3-5.2-5.2-5.2" fill="#231f20"/><path d="m730 63.3c-1.5 0-2.7-1.2-2.7-2.7s1.2-2.7 2.7-2.7 2.7 1.2 2.7 2.7-1.2 2.7-2.7 2.7m0-7.8c-2.9 0-5.2 2.3-5.2 5.2s2.3 5.2 5.2 5.2 5.2-2.3 5.2-5.2-2.3-5.2-5.2-5.2" fill="#231f20"/><path d="m748.3 63.5c-.3.1-.8.2-1 .2-.9 0-1.1-.3-1.1-1.2v-4.8h2.1v-2h-2.1v-2.8h-2.4l-.5 2.8h-1.8c-1.4 0-2.4.8-3 2.1l-.8-2.1h-1.7v10h2.9v-4.3c0-2.2 1.3-3.6 2.8-3.6h1.6v4.9c0 2.3 1.2 3.2 3.1 3.2 1 0 1.8-.2 2.2-.4z" fill="#231f20"/><path d="m762.5 58.8v6.9h-2.8v-10h1.7l.6 1.5" fill="#231f20"/><path d="m762 57.2c.9-1 2-1.8 3.4-1.8 2.4 0 3.3 1.9 3.3 3.6v6.5h-2.9v-6.5c0-.9-.7-1.3-1.5-1.3s-1.3.5-1.8 1" fill="#231f20"/><path d="m713.4 52.1h3.3l4.4 8.5v-8.5h2.7v13.6h-2.9l-4.8-9.4v9.4h-2.7z" fill="#231f20"/><path d="m777.4 47v.5h-.7v2.4h-.6v-2.4h-.7v-.5z" fill="#a6a8ab"/><path d="m777.8 49.9v-2.9h.7l.5 1.9.5-1.9h.8v2.9h-.5v-2.3l-.6 2.3h-.4l-.5-2.3h-.1v2.3z" fill="#a6a8ab"/><path d="m712.6 77.7.7-1.1c.5.4 1.4.8 2.4.8s1.6-.4 1.6-1.2c0-.9-.8-1.1-2-1.6-1.1-.4-2.2-1-2.2-2.6 0-1.5 1.2-2.3 2.8-2.3 1.1 0 1.8.2 2.5.6l-.5 1.1c-.5-.3-1.1-.5-1.9-.5-.9 0-1.4.3-1.4 1 0 .8.6 1 1.8 1.4s2.5.9 2.5 2.7c0 1.5-1.1 2.5-3 2.5-1.7.1-2.7-.4-3.3-.8" fill="#a6a8ab"/><path d="m721.2 69.9h5.1v1.2h-3.6v2.4h2.9v1.1h-2.9v2.7h3.9v1.2h-5.4z" fill="#a6a8ab"/><path d="m728.6 74.2c0-2.5 1.2-4.4 3.6-4.4 1.1 0 1.9.3 2.5 1l-.9 1c-.5-.5-1-.8-1.7-.8-1.4 0-2.1 1.2-2.1 3.3 0 2 .7 3 2.1 3 .8 0 1.3-.4 1.8-.9l.9 1c-.6.7-1.4 1.2-2.7 1.2-2.3 0-3.5-1.8-3.5-4.4" fill="#a6a8ab"/><path d="m737.3 75.2v-5.3h1.5v5.6c0 1.2.3 2 1.5 2s1.5-.8 1.5-2v-5.6h1.5v5.3c0 2.1-.8 3.4-3 3.4s-3-1.2-3-3.4" fill="#a6a8ab"/><path d="m749 73.7c1.1 0 1.7-.4 1.7-1.4s-.6-1.3-1.6-1.3h-1.4v2.6h1.3zm3.3 4.8h-1.6l-1.7-3.7h-1.4v3.7h-1.5v-8.6h2.8c1.7 0 3.1.6 3.1 2.5 0 1.3-.8 1.9-1.6 2.2z" fill="#a6a8ab"/><path d="m754.8 69.9h5.2v1.2h-3.7v2.4h2.9v1.1h-2.9v2.7h3.9v1.2h-5.4z" fill="#a6a8ab"/><path d="m764.7 77.3c2 0 2.7-.9 2.7-3.1 0-1.9-.5-3.1-2.5-3.1h-.8v6.2zm-2.1-7.4h2.2c2.8 0 4.2 1.5 4.2 4.3s-1.4 4.3-4.1 4.3h-2.2v-8.6z" fill="#a6a8ab"/><path d="m688.8 52c-3.8 0-7.3 1.5-10 4.2s-4.2 6.2-4.2 10 1.5 7.3 4.2 10 6.2 4.1 10 4.2c3.8 0 7.3-1.5 10-4.2s4.1-6.2 4.2-10c0-3.8-1.5-7.3-4.2-10s-6.3-4.2-10-4.2m0 34.9c-11.4 0-20.7-9.3-20.7-20.7s9.3-20.7 20.7-20.7 20.7 9.3 20.7 20.7-9.3 20.7-20.7 20.7" fill="#ffc10e"/><path d="m711.3 43.9h1.7v-1.6h-1.7z" fill="#ffc10e"/><path d="m711.3 40.7h1.7v-1.6h-1.7z" fill="#ffc10e"/><path d="m706.8 45.5h1.5v-1.6h-1.5z" fill="#ffc10e"/><path d="m703.8 48.5h1.5v-1.5h-1.5z" fill="#231f20"/><path d="m708.3 47h1.7v-1.5h-1.7z" fill="#231f20"/><path d="m702.3 47h1.5v-1.5h-1.5z" fill="#231f20"/><path d="m706.8 48.5h1.5v-1.5h-1.5z" fill="#231f20"/><path d="m709.7 42.3h1.6v-1.6h-1.6z" fill="#231f20"/><path d="m706.8 43.9h2.9v-1.6h-2.9z" fill="#231f20"/><path d="m705.3 47h1.5v-3.1h-1.5z" fill="#231f20"/><path d="m705.3 48.5v1.5h-1.5v-1.5h-2.5v1.1h-1.4v1.4h1.5v1.5h-1.5v-1.5h-1.6v2.4h-1.5v1.5h-1v1.5h-1.1c-1.2 1.9-4.4 7.6-5.3 10-3.4-4.7-6-6.6-8.1-7.3-1.1-.3-2.5.9-.6 2.8 4.3 4.7 5.6 8.6 6.9 11.7.7 1.6 3.8 1.9 4.4.2 1.3-3.5 3.2-7.5 5.5-10.7v-1.7h1.2v-1.5h1.3v-1.8h1.5v-1.7h-1.5v-1.5h1.5v1.5h1.5v-1.5h1.2v-1.9h1.4v-1.3h1.3v-3.2z" fill="#231f20"/><g fill="#fff"><path d="m680 96.5c0-1-.6-1.6-1.4-1.6s-1.4.6-1.4 1.6.7 1.6 1.4 1.6c.8 0 1.4-.6 1.4-1.6zm-3.9-2.4h1.1v.8c.4-.5.9-.9 1.7-.9 1.2 0 2.3.9 2.3 2.6 0 1.6-1.1 2.6-2.3 2.6-.8 0-1.3-.4-1.7-.9v2.3h-1.1z"/><path d="m686.3 96.6c0-.9-.6-1.6-1.5-1.6s-1.5.7-1.5 1.6.6 1.6 1.5 1.6c.9-.1 1.5-.8 1.5-1.6m-4.2 0c0-1.4 1.1-2.6 2.6-2.6s2.6 1.2 2.6 2.6-1.1 2.6-2.7 2.6c-1.4-.1-2.5-1.2-2.5-2.6"/><path d="m687.9 94.1h1.2l1 3.3 1.1-3.4h1l1.1 3.4 1-3.3h1.1l-1.6 4.9h-1l-1.1-3.3-1.1 3.3h-1z"/><path d="m699.7 96.2c-.1-.7-.5-1.3-1.3-1.3-.7 0-1.2.5-1.3 1.3zm-3.7.3c0-1.4 1-2.6 2.4-2.6 1.6 0 2.4 1.2 2.4 2.7v.3h-3.6c.1.8.7 1.3 1.4 1.3.6 0 .9-.2 1.3-.6l.7.6c-.5.6-1.1.9-2 .9-1.5 0-2.6-1-2.6-2.6z"/><path d="m702 94.1h1.1v1.1c.3-.7.9-1.2 1.8-1.2v1.2h-.1c-1 0-1.7.6-1.7 2v1.8h-1.1z"/><path d="m709.2 96.2c-.1-.7-.5-1.3-1.3-1.3-.7 0-1.2.5-1.3 1.3zm-3.7.3c0-1.4 1-2.6 2.4-2.6 1.6 0 2.4 1.2 2.4 2.7v.3h-3.6c.1.8.7 1.3 1.4 1.3.6 0 .9-.2 1.3-.6l.7.6c-.5.6-1.1.9-2 .9-1.5 0-2.6-1-2.6-2.6z"/><path d="m715.3 96.5c0-1-.7-1.6-1.4-1.6-.8 0-1.4.6-1.4 1.6s.7 1.6 1.4 1.6 1.4-.6 1.4-1.6m-4.1 0c0-1.7 1.1-2.6 2.3-2.6.8 0 1.3.4 1.7.9v-2.7h1.1v6.9h-1.1v-.8c-.4.5-.9.9-1.7.9-1.1 0-2.3-.9-2.3-2.6"/><path d="m724.6 96.5c0-1-.6-1.6-1.4-1.6s-1.4.6-1.4 1.6.7 1.6 1.4 1.6 1.4-.6 1.4-1.6m-2.9 1.7v.8h-1.1v-6.8h1.1v2.7c.4-.5.9-.9 1.7-.9 1.2 0 2.3.9 2.3 2.6 0 1.6-1.1 2.6-2.3 2.6-.8-.1-1.3-.5-1.7-1"/><path d="m726.5 100.2.4-.8c.2.1.4.2.7.2s.5-.1.7-.6l-2.1-5h1.2l1.4 3.7 1.3-3.7h1.2l-2 5.1c-.4 1-.8 1.4-1.6 1.4-.5 0-.9-.1-1.2-.3"/><path d="m734.6 92.4h1.3l2 5.1 1.9-5.1h1.3l-2.7 6.7h-1.1z"/><path d="m745 96.2c-.1-.7-.5-1.3-1.3-1.3-.7 0-1.2.5-1.3 1.3zm-3.7.3c0-1.4 1-2.6 2.4-2.6 1.6 0 2.4 1.2 2.4 2.7v.3h-3.6c.1.8.7 1.3 1.4 1.3.6 0 .9-.2 1.3-.6l.7.6c-.5.6-1.1.9-2 .9-1.5 0-2.6-1-2.6-2.6z"/><path d="m747.3 94.1h1.1v1.1c.3-.7.9-1.2 1.8-1.2v1.2h-.1c-1 0-1.7.6-1.7 2v1.8h-1.1z"/><path d="m751.2 99h1.1v-5h-1.1zm-.1-5.7h1.2v-1.1h-1.2z"/><path d="m753.5 98 .7-.8c.6.5 1.3.9 2.1.9.7 0 1.2-.3 1.2-.8s-.3-.7-1.5-1c-1.4-.3-2.2-.8-2.2-2 0-1.1.9-1.9 2.2-1.9 1 0 1.7.3 2.4.8l-.6.9c-.6-.4-1.2-.7-1.8-.7-.7 0-1.1.3-1.1.8s.3.7 1.6 1c1.4.3 2.1.8 2.1 1.9 0 1.2-1 2-2.3 2-1.1 0-2-.3-2.8-1.1"/><path d="m759.9 99h1.1v-5h-1.1zm-.1-5.7h1.2v-1.1h-1.2z"/><path d="m766.2 96.3c0-.8-.7-1.4-1.5-1.4s-1.4.5-1.4 1.4c0 .8.6 1.4 1.4 1.4s1.5-.6 1.5-1.4m-3.8 3.6.4-.9c.5.3 1.1.5 1.8.5 1 0 1.6-.5 1.6-1.5v-.4c-.4.5-.9.9-1.7.9-1.2 0-2.3-.9-2.3-2.3 0-1.5 1.1-2.3 2.3-2.3.8 0 1.4.4 1.7.8v-.7h1.1v4c0 .8-.2 1.5-.6 1.9-.4.5-1.1.7-2 .7-.9-.1-1.6-.3-2.3-.7"/><path d="m768.8 94.1h1.1v.8c.3-.5.8-.9 1.5-.9 1.1 0 1.8.8 1.8 1.9v3.1h-1.1v-2.8c0-.8-.4-1.2-1.1-1.2s-1.1.5-1.1 1.2v2.8h-1.1z"/></g></g></svg>