<?xml version="1.0" standalone="no"?>
<!DOCTYPE svg PUBLIC "-//W3C//DTD SVG 1.1//EN" "http://www.w3.org/Graphics/SVG/1.1/DTD/svg11.dtd">
<svg xmlns="http://www.w3.org/2000/svg">
<metadata>Generated by Fontastic.me</metadata>
<defs>
<font id="higux" horiz-adv-x="512">
<font-face font-family="higux" units-per-em="512" ascent="480" descent="-32"/>
<missing-glyph horiz-adv-x="512" />

<glyph glyph-name="accident-forgiveness-benefit" unicode="&#57344;" d="M29 157c-2-14 8-26 22-29 13-1 26 8 28 22 3 14-7 27-21 29-13 3-27-7-29-22m379 112l9-39 12 3c2 0 5 1 7 1 3 0 6 2 8 2 4 1 7 1 9 2 3 1 4 3 5 4 2 1 2 4 0 5-1 3-2 5-6 9-7 8-16 12-26 13-5 1-11 1-18 0z m2-40l-9 39c-12-4-27-11-37-26-2-3-6-8-7-14-2-8-2-10-1-12 0 0 1-1 4 0 1 0 4 2 6 2 3 0 5 1 6 1 3 0 4 1 7 1z m16-70c-5 19 7 37 25 42 17 4 35-6 41-26 0 0 0-1 0-1 3 1 11 6 11 10 1 13-8 43-14 58-9 22-32 56-91 45-24-5-56-22-73-76 0-1 0-2-1-2 0-2-1-2-3-3-1 0-66-28-51-70 4-12 6-12 9-13 1 0 1 0 3-1 2 0 6 0 9 1 0 1 0 1-2 2-4 18 7 36 26 41 18 4 36-6 41-25 0 0 0-1 0-1z m3-8l-69-17c0-15-11-28-26-32-14-3-29 3-37 16-3-2-9-2-14-2 0 0-1 0-1 0-2 0-2 0-3 2-5 1-9 4-15 18-8 20 0 41 21 59 13 11 29 17 32 20 0 0 0 0 0 1 3 8 8 25 20 41 15 22 34 35 60 40 66 14 92-31 100-50 0 0 16-42 14-61-2-11-16-17-17-17 0 0 0 0-1 0l-1 0c0-15-11-28-26-32-15-6-30 1-37 14z m-333 106c-6 2-13 0-18 0-10-1-19-6-24-14-3-4-4-6-5-9 0-1 0-4 0-5 1-1 2-2 5-4 2 0 5-1 9-1 2 0 5-1 7-1 3 0 6-2 8-2l12-1z m8-1l-7-38 32-6c3 0 4-1 7-1 2 0 5-1 6-1 3 0 4 0 6-1 3 0 4 0 4 0 0 1 2 3-2 10-3 5-7 10-8 13-11 16-27 23-38 24z m-20-115c-6-13-20-22-35-19-16 2-27 14-29 29l-1 0c0 0 0 0-1 0-1 0-17 6-18 15-4 20 9 62 9 62 6 19 28 64 93 56 25-2 45-14 62-34 13-16 19-32 22-39 0 0 0 0 0-1 5-1 19-8 33-17 23-16 31-36 25-56-3-14-7-17-12-18-2 0-2 0-3-1 0 0-1 0-1 0-4 0-10 0-13 0-6-13-20-21-35-18-14 2-25 15-26 29z m3 7l67-10c0 0 0 2 0 2 2 17 19 30 38 28 18-3 31-20 28-39 0-1 0-1 0-2 3 0 7 0 9 0 1 0 1 1 3 1 2 1 5 1 9 13 12 42-55 64-55 64-2 0-2 1-3 2 0 0 0 2-1 3-21 51-53 65-77 68-59 7-79-28-86-51-5-16-11-45-9-58 2-4 9-8 13-10 0 0 0 1 0 1 3 18 21 31 38 28 16-4 29-22 26-40z m74-11c-2-14 8-27 22-29 14-3 27 7 29 21 3 14-7 27-21 30-14 2-27-8-30-22z m-27 68c-2 0-3 1-6 1l-51 8c-3 0-5 1-8 1-2 0-5 1-8 1-3 0-6 2-9 2-5 1-8 3-10 6-2 4-2 8-1 12 1 3 3 7 6 11 8 9 17 15 30 18 7 1 15 1 24 0 19-3 36-12 47-26 0 0 20-24 11-33-3-2-7-4-11-2-1 0-3 0-6 1-2-1-5 0-8 0z m36-68c2 10 10 17 21 15 10-1 16-10 15-20-1-10-10-17-20-16-11 2-17 11-16 21z m8-1c-1-5 2-12 9-12 5-1 10 3 11 9 2 5-2 12-9 12-6 0-11-4-11-9z m-141 21c-1-10 5-19 15-20 11-1 20 5 21 15 1 11-5 20-15 21-11 1-20-7-21-16z m7-1c1 5 6 9 11 9 5 0 9-6 9-11-1-6-6-9-12-9-5 0-8 6-8 11z m408 36c-14-4-23-18-19-32 3-14 18-23 32-19 14 4 23 18 19 31-4 15-18 24-32 20z m-132-32c-14-4-23-18-19-32 4-14 18-23 32-19 14 4 23 18 19 31-5 15-19 24-32 20z m46 50c-2 0-4-1-6-1-5-2-9 0-12 2-9 9 8 35 8 35 10 14 25 24 46 29 9 3 18 3 26 3 11-2 23-7 30-16 4-3 5-7 8-11 1-4 1-8 0-12-1-3-5-6-10-7-3-2-7-2-11-3-2 0-5-1-7-1-3 0-5-1-8-1l-51-13c-3 0-4-2-7-2-1-1-3-1-6-2z m-37-92c-10-3-19 4-22 14-2 9 4 19 13 22 10 2 19-4 22-14 2-11-3-20-13-22z m-6 28c-6-1-9-6-8-13 1-5 6-9 13-8 5 2 9 7 7 13-2 5-7 9-12 8z m139 4c-10-3-19 4-22 14-2 10 4 19 14 22 11 2 20-4 22-14 3-11-4-20-14-22z m-6 28c-5-1-9-6-8-13 1-5 6-9 13-8 5 2 9 7 7 13-1 5-6 9-12 8z m-183 239c19 0 35-15 35-36 0-10-3-20-8-29-6-8-12-15-21-22-14-11-28-19-28-19l-3-1-5 1c0 0-14 8-28 19-9 8-15 14-20 22-7 10-9 19-9 29 0 20 15 36 35 36 7 0 13-1 20-5 2-2 3-4 6-6 3 2 4 4 6 5 6 4 13 6 20 6z m19-61c5 9 9 18 9 25 0 16-13 29-28 29-5 0-11-2-16-4-2-2-4-3-5-4l-5-5-5 5c-1 1-4 2-5 4-5 2-10 4-16 4-15 0-28-13-28-29 0-9 3-16 9-25 5-7 10-14 19-21 13-11 27-18 27-18 0 0 14 7 27 18 7 7 13 13 17 21z m-26-167l-2 3c-5 8-22 9-30 9-6 0-10 4-11 9-2 5 2 11 7 13 0 0 21 5 25 18 4 12-7 30-7 30-2 5-2 11 3 14 4 4 10 4 14 0 5-5 19-14 29-12 11 1 21 16 23 21l3 4 19-11-2-4c-3-5-18-28-39-32-6-1-13 0-20 1 1-8 0-14-2-19-2-6-5-12-10-17 7-2 12-7 16-12l2-3z m-30 20c6 0 21-2 30-9l5 4c-3 3-9 6-15 8l-8 3 7 5c6 5 11 10 13 17 2 6 2 14 0 23l-2 8 8-4c8-4 15-5 22-4 15 2 27 18 30 25l-5 3c-4-6-14-20-27-22-15-2-35 14-35 14-2 2-3 2-4 0-2-1-2-2 0-4 1-2 13-21 7-37-5-16-29-23-29-23-1 0-3-1-3-4 0-1 2-2 4-2 0-1 0-1 2-1z"/>
<glyph glyph-name="add-function" unicode="&#57345;" d="M255 506c136 0 248-111 248-249 0-136-110-248-248-248-137 0-249 110-249 248 0 138 111 249 249 249z m0-476c125 0 228 103 228 228 0 126-103 228-228 228-126 0-228-102-228-228 0-126 102-228 228-228z m138 238c6 0 11-5 11-11 0-6-5-11-11-11l-128 0 0-128c0-6-5-11-11-11-7 0-10 6-10 12l0 128-127 0c-6 0-11 5-11 11 0 7 5 10 11 10l127 0 0 127c0 6 5 11 11 11 6 0 11-5 11-11l0-127z"/>
<glyph glyph-name="alert-content-not-available" unicode="&#57346;" d="M87 240c47 0 86-39 86-86 0-48-39-87-86-87-48 0-87 39-87 87 0 47 39 86 87 86z m0-162c41 0 75 34 75 76 0 30-18 58-46 70-28 12-61 5-83-16-22-21-28-54-17-82 11-28 40-48 71-48z m0 49c-3 0-5 2-5 5l0 75c0 3 2 5 5 5 2 0 4-2 4-5l0-75c0-3-2-5-4-5z m0-9c4 0 9-3 9-10 0-6-3-9-9-9-5 0-10 3-10 9 0 7 5 10 10 10z m356 275c10 0 20-9 20-21l0-243c0-11-10-21-20-21l-258 0c-2 0-5 3-5 5 0 3 3 5 5 5l258 0c6 0 9 5 10 11l0 182-385 0 0-61c0-3-2-5-5-5-2 0-4 2-4 5l0 122c0 11 9 21 20 21z m-375-71l385 0 0 50c0 6-4 10-10 11l-365 0c-6 0-10-5-10-11z m420 123c11 0 20-10 20-21l0-242c0-11-9-21-20-21l-13 0c-2 0-4 2-4 5 0 2 2 5 4 5l13 0c6 0 9 5 11 11l0 242c0 6-5 10-11 11l-365 0c-6 0-10-5-11-11l0-17c0-2-2-5-5-5-2 0-5 3-5 5l0 17c0 11 10 21 21 21z m-387-81c7 0 14-6 14-12 0-5-4-9-8-12-5-2-11-1-14 3-4 3-5 8-3 13 1 5 6 8 11 8z m39-25c-7 0-13 6-13 13 0 8 6 14 13 14 8 0 14-6 14-14 0-7-6-13-14-13z m39 0c-7 0-13 6-13 13 0 8 6 14 13 14 8 0 14-6 14-14 0-7-6-13-14-13z m112-78l-193 0c-3 0-5 2-5 5 0 2 2 5 5 5l193 0c3 0 5-3 5-5 0-3-2-5-5-5z m122-49l-233 0c-2 0-4 3-4 5 0 2 2 5 4 5l233 0c3 0 5-3 5-5 0-2-2-5-5-5z m0-41c3 0 5-3 5-5 0-3-2-5-5-5l-212 0c-2 0-5 2-5 5 0 2 3 5 5 5z"/>
<glyph glyph-name="alert-not-authorized" unicode="&#57347;" d="M89 240c48 0 87-39 87-86 0-48-39-87-87-87-48 0-87 39-87 87 0 47 39 86 87 86z m0-162c41 0 76 34 76 76 0 30-19 58-47 70-28 12-61 5-83-16-22-21-28-54-17-82 11-28 41-48 71-48z m356 315c11 0 21-10 21-21l0-243c0-11-10-21-21-21l-257 0c-3 0-5 3-5 5 0 3 2 5 5 5l258 0c6 0 10 5 11 11l0 182-386 0 0-61c0-3-3-5-5-5-3 0-5 2-5 5l0 122c0 11 10 21 21 21z m-374-71l385 0 0 50c0 6-5 10-11 11l-365 0c-4 0-9-5-9-11z m419 123c11 0 21-10 21-21l0-242c0-11-10-21-21-21l-12 0c-3 0-5 2-5 5 0 2 2 5 5 5l12 0c6 0 10 5 11 11l0 242c0 6-5 10-11 11l-363 0c-6 0-10-5-11-11l0-17c0-2-3-5-5-5-3 0-5 3-5 5l0 17c-1 11 9 21 21 21z m-195-184l-195 0c-2 0-5 2-5 5 0 2 3 5 5 5l194 0c2 0 5-3 5-5 1-3-2-5-4-5z m121-49l-233 0c-3 0-5 3-5 5 0 2 2 5 5 5l233 0c2 0 5-3 5-5 0-2-2-5-5-5z m0-41c2 0 5-3 5-5 0-3-3-5-5-5l-212 0c-3 0-5 2-5 5 0 2 2 5 5 5z m-272 168c-7 0-14 6-14 13 0 8 7 14 14 14 7 0 13-6 13-14 0-7-6-13-13-13z m-39 25c7 0 13-6 13-12 0-5-3-9-7-12-6-2-12-1-16 3-4 3-5 8-2 13 2 5 6 8 12 8z m78-25c-7 0-14 6-14 13 0 8 7 14 14 14 7 0 13-6 13-14 0-7-6-13-13-13z m-68-166c3 0 7-1 9-4 3-2 4-6 4-9l-4-39c0-4-1-6-3-9-3-2-6-4-10-4l-43 0c-3 0-7 2-9 4-3 3-4 6-4 10l-4 38c0 3 1 7 4 9 2 3 6 4 10 4l2 0 0 12c0 12 10 22 22 22 12 0 22-10 22-22l0-12c0 0 4 0 4 0z m-38 12l0-12 25 0 0 12c-1 6-6 11-13 11-7 0-11-3-12-11z m38-63l3 39c0 1-1 4-3 4l-50 0c-3 0-4-2-4-4l4-38c0-1 0-2 1-2 1-2 1-2 2-2l43 0c2-1 4 0 4 3z m-26 29c5 0 9-3 9-8l0-15c0-1-2-2-3-2l-10 0c-1 0-2 1-2 2l-1 13c0 3 1 5 2 7 1 2 4 3 5 3z"/>
<glyph glyph-name="alert-warning" unicode="&#57348;" d="M501 121l-191 335c-11 19-31 32-54 32-23 0-44-13-55-32l-190-335c-11-20-11-43 0-62 11-20 32-32 54-32l380 0c23 0 43 12 54 32 13 19 13 42 2 62z m-19-53c-8-13-21-20-36-20l-380 0c-15 0-28 7-36 20-7 14-7 28 0 42l189 335c8 13 21 21 37 21 15 0 29-8 37-21l190-335c7-12 6-28-1-42z m-226 290c-6 0-11-4-11-11l0-152c0-6 5-11 11-11 6 0 11 5 11 11l0 152c-1 7-5 11-11 11z m0-218c-6 0-11-5-11-11l0-5c0-6 5-11 11-11 6 0 11 5 11 11l0 5c-1 6-5 11-11 11z"/>
<glyph glyph-name="attention" unicode="&#57349;" d="M255 510c-139 0-253-114-253-253 0-139 114-251 252-251 139 0 251 113 251 251 1 139-111 253-250 253z m0-483c-127 0-231 103-231 230 0 127 104 231 231 231 127 0 230-104 230-231 0-127-103-230-230-230z m-20 110l0-9c0-9 10-16 21-16 11 0 21 7 21 16l0 9c0 8-10 15-21 15-11 0-21-6-21-15z m0 263l0-193c0-7 10-13 21-13 11 0 21 6 21 13l0 193c0 7-10 13-21 13-11 0-21-6-21-13z"/>
<glyph glyph-name="atv-vehicle" unicode="&#57350;" d="M386 393c-11-2-19-11-19-22 0-11 8-21 19-22z m-15-55c-3 1-5 2-7 3l0-1-48 15-19 36c-1 3-3 4-6 4l-61 0c-9 0-18 9-18 18 0 10 9 19 18 19l61 0c16 0 31-9 38-22l21-43c0 1 0 1 0 2 0 21 17 38 38 38l14 0 0-75-13 0c-1 0-3 0-4 0l87-27c11-4 19-14 19-26l0-7-52 0c-54 0-98-44-98-98l0-8-159 0 0 8c0 43-27 81-67 93l-91 29 19 29c7 10 18 15 29 15 2 0 5 0 7-1l178-55c8-2 14 0 17 6l44 64z m-43 31l6-2-18 35c-5 9-14 14-23 14l-61 0c-2 0-3-2-3-3 0-1 1-2 3-2l61 0c8 0 15-5 19-12z m-131-187l130 0c3 58 53 106 113 106l33 0c-1 1-2 2-5 2l-144 45-36-53c-8-11-21-16-34-13l-178 55c0 0-2 0-4 0-6 0-12-3-16-8l-7-11 69-23c45-15 76-54 79-100z m226-106c-44 0-80 35-80 80 0 44 35 80 80 80 44 0 80-35 80-80 0-45-35-80-80-80z m0 143c-35 0-65-29-65-64 0-36 30-65 65-65 35 0 65 29 65 65 0 36-28 64-65 64z m0-98c-19 0-35 16-35 35 0 20 16 35 35 35 20 0 35-15 35-35 0-19-15-35-35-35z m0 53c-11 0-19-8-19-19 0-11 8-20 19-20 11 0 20 9 20 20 0 11-9 19-20 19z m-332-98c-47 0-87 39-87 87 0 48 39 88 87 88 48 0 88-39 88-88-1-48-40-87-88-87z m0 158c-39 0-71-32-71-72 0-39 31-72 71-72 39 0 72 32 72 72-1 40-33 72-72 72z m0-108c-20 0-37 17-37 37 0 21 17 38 37 38 21 0 38-17 38-38 0-20-17-37-38-37z m0 59c-12 0-22-9-22-22 0-12 10-22 22-22 13 0 22 10 22 22 0 13-9 22-22 22z"/>
<glyph glyph-name="bank" unicode="&#57351;" d="M224 324l-40 0c-5 0-11-5-11-10l0-252c0-6 6-11 11-11l40 0c6 0 11 5 11 11l0 252c0 5-5 10-11 10z m-10-252l-20 0 0 231 20 0z m-95 252l-42 0c-5 0-10-5-10-10l0-252c0-6 5-11 10-11l41 0c5 0 11 5 11 11l0 252c1 5-4 10-10 10z m-10-252l-21 0 0 231 20 0 0-231z m219 252l-40 0c-6 0-11-5-11-10l0-252c0-6 5-11 11-11l40 0c5 0 11 5 11 11l0 252c0 5-4 10-11 10z m-9-252l-20 0 0 231 20 0z m114 252l-40 0c-6 0-11-5-11-10l0-252c0-6 5-11 11-11l40 0c5 0 11 5 11 11l0 252c0 5-4 10-11 10z m-10-252l-20 0 0 231 20 0z m-167 377c-17 0-32-14-32-32 0-17 15-31 32-31 17 0 32 14 32 31 0 18-15 32-32 32z m0-42c-5 0-11 5-11 10 0 6 6 11 11 11 5 0 11-5 11-11 0-5-6-10-11-10z m230-398l-461 0c-5 0-11 5-11 11 0 5 6 10 11 10l461 0c5 0 10-5 10-10 0-7-4-11-10-11z m1 334l-462 0c-5 0-9 2-11 8-1 3 0 9 4 11l230 146c4 3 8 3 12 0l232-146c4-2 6-8 4-11-1-4-5-8-9-8z m-425 21l388 0-197 123z"/>
<glyph glyph-name="benefit-car-repair" unicode="&#57352;" d="M40 140c0-18 14-32 32-32 18 0 32 14 32 32 0 17-14 32-32 32-18 0-32-15-32-32m260 152c-15-4-30-10-38-16-14-10-28-33-33-43 9-3 24-6 39-14 30-15 44-37 42-64-3-18-7-22-13-24-1 0-1-2-3-2 0 0-1 0-1 0-5-1-13-2-17-2-5-17-20-28-38-28-23 0-41 17-41 41 0 23 18 40 41 40 23 0 41-17 41-40 0-2 0-3 0-3 4 0 8 0 12 1 1 2 2 2 2 2 4 2 7 3 8 17 6 54-80 68-80 68-1 0-2 2-3 3 0 1-2 1-2 2-34 58-76 70-107 68-74-1-92-50-96-78-3-20-5-57 0-73 1-5 13-9 18-9 0 0 0 2 0 2 0 23 18 40 41 40 23 0 41-17 41-40 0-24-18-41-41-41-20 0-35 12-40 30l-3 0c0 0 0 0-1 0-2 0-20 4-24 16-8 23 0 76 0 76 4 26 22 85 104 87 30 2 57-8 81-29 16-13 26-28 31-37 7 11 19 33 35 45 10 7 23 13 42 18z m-198-18c-9 0-15-1-21-4-12-4-21-11-26-22-3-5-4-9-4-11 0-3 0-5 1-7 2-1 4-2 8-2 4 0 8 0 12 0 2 0 6 0 9 0 2 0 6 0 9 0l14 0 0 46z m9 0l0-47 40 0c3 0 5 0 8 0 2 0 5 0 9 0 2 0 5 0 7 0 3 0 5 1 5 1 0 1 0 5-5 13-3 6-9 11-11 14-17 15-37 19-53 19z m49-56c-3 0-5 0-8 0l-62 0c-3 0-7 0-9 0-3 0-7 0-9 0-5 0-9 0-12 0-5 0-11 2-14 6-2 4-4 9-4 14 2 5 3 9 5 15 7 13 18 22 31 27 9 3 19 5 31 5 24 0 46-7 61-21 0 0 27-26 19-40-2-4-6-5-12-6-3 0-5 0-8 0-4 0-6 0-9 0z m46-78c0-18 14-32 32-32 18 0 32 14 32 32 0 17-14 32-32 32-18 0-32-15-32-32z m10 1c0 13 11 22 22 22 13 0 22-11 22-22 0-13-10-22-22-22-13-1-22 9-22 22z m9 0c0-7 5-13 13-13 6 0 13 5 13 13 0 7-5 13-13 13-8-2-13-7-13-13z m-176 0c0-13 10-22 21-22 12 0 23 9 23 22 0 13-10 22-21 22-12 0-23-11-23-22z m10 0c0 6 5 13 13 13 7 0 12-6 12-13 0-8-5-13-12-13-8 0-13 5-13 13z m450 176c3-3 3-9 3-12l-4-26c-1-8-9-14-16-14-2 0-2 0-3 0-1 0-1 0-3 1-5-22-14-38-26-50-20-18-40-19-48-19-1 0-1 0-2 0-4 0-29-1-50 19-13 12-22 28-27 50-1 0-1 0-3-1-1 0-1 0-2 0-9 0-16 6-17 14l-4 26c-1 9 5 18 14 19 2 0 2 0 3 0 1 0 4 0 5-1 0 1 0 2 0 3-3 6-4 12-4 16l0 15c0 33 37 62 81 62l6 0c44 0 81-29 81-62l0-14c0-4-1-10-4-15 0-2 0-3 0-4 1 0 4 1 5 1 1 0 3 0 3 0 5-1 9-4 12-8z m-28 29l0 11c0 26-33 50-69 50l-6 0c-36 0-69-24-69-50l0-11c46 19 97 19 144 0z m-18-26c9 0 14 8 17 15-46 18-96 18-142 0 2-7 6-15 15-15 4 0 8 1 13 4 13 6 27 10 42 10 14 0 30-4 43-10 5-3 9-4 12-4z m37-14c0 1 0 2-1 4-1 1-2 2-4 2 0 0-1 0-1 0-2 0-4-1-5-2 0-12-1-23-3-34 2 0 2-1 3-1 3 0 6 1 6 5z m-172-31c1 0 1 0 2 1-1 11-2 22-2 34-2 1-3 2-5 2 0 0 0 0-2 0-2 0-5-4-5-6l4-26c3-2 5-5 8-5z m123-51c19 18 28 47 28 90-4-3-9-6-16-6-5 0-11 2-18 6-11 5-24 9-37 9-12 0-25-3-37-9-6-3-13-6-18-6-6 0-10 2-15 6 0-41 9-72 28-90 19-18 41-17 41-17 3 0 24-1 44 17z m-25 27c3 1 7 1 8-1 1-3 1-7-1-8-5-4-14-6-23-6-9 0-18 2-23 6-3 1-4 5-2 8 2 2 5 3 8 1 4-3 10-4 17-4 6 0 12 1 16 4z m16 52c5 0 10-3 10-10 0-6-4-10-10-10-6 0-11 4-11 10 0 7 5 10 11 10z m-55-10c0-5-4-10-11-10-5 0-10 4-10 10 0 7 4 10 10 10 5 0 11-5 11-10z m21 106c14 0 25-7 25-16 0-9-11-17-25-17-14 0-24 8-24 17 1 9 12 16 24 16z m0-24c8 0 14 4 14 8 0 4-6 7-14 7-7 0-14-3-14-7 0-4 7-8 14-8z"/>
<glyph glyph-name="boat-insurance" unicode="&#57353;" d="M37 75c-3-4-11-4-15 0-3 4-3 11 0 15 22 21 58 21 79 0 6-6 15-10 23-10l-62 119c-5 8-2 20 7 26l61 45 12 137c0 24 20 44 44 44l46 0 0 50c0 6 5 11 10 11 5 0 12-5 12-11l0-50 21 0 0 24c0 6 5 11 11 11 6 0 11-5 11-11l0-24 25 0c24 0 44-20 44-45l12-136 62-45c8-6 11-18 6-26l-60-118c9 0 16 4 22 10 22 21 58 21 79 0 4-4 4-11 0-15-4-4-11-4-15 0-14 14-35 14-49 0-10-10-25-16-40-16-15 0-28 6-40 16-12 13-36 13-48 0-22-21-58-21-79 0-12 13-36 13-49 0-6-6-12-10-20-12-20-8-42-3-58 12-15 13-38 13-52-1z m172 227l-127-93 63-123c1 1 4 3 5 4 21 21 57 21 79 0 13-14 34-14 48 0 21 21 58 21 79 0 1-1 4-3 5-4l62 123-65 47c0 0-1 0-1 1l-62 46c-24 17-34 23-44 23-7 0-17-8-42-24z m-45 105l-10-120 43 33c27 17 40 26 58 26 17 0 31-9 56-26l44-33-12 119c0 14-10 25-22 25l-135 0c-12 0-22-11-22-24z m132-21c-6 1-10 7-9 12 1 7 6 10 13 9l25-5c6-1 10-7 8-12-1-5-5-9-10-9-1 0-1 0-2 0z m-55 0c-6 0-11 5-11 11 0 6 5 11 11 11l25 0c6 0 11-5 11-11 0-6-5-11-11-11z m-21 12c1-6-3-11-9-12l-25-5c-1 0-1 0-2 0-5 0-9 4-10 9-2 6 2 11 8 12l25 5c7 0 12-4 13-9z m-4-144c-4 0-6 1-9 4-3 5-2 12 3 15l11 8c5 4 11 2 15-3 4-5 3-11-2-15l-12-7c-1-1-3-2-6-2z m59 9c-5 4-7 10-3 15 4 5 10 7 15 3l11-8c5-3 7-10 3-15-3-2-5-4-9-4-2 0-4 0-6 1z m131-223c21 21 57 21 79 0 3-4 3-11 0-15-4-4-12-4-15 0-14 14-35 14-49 0-10-10-25-16-40-16-15 0-29 6-40 16-13 12-36 12-49 0-21-21-57-21-78 0-13 12-37 12-49 0-21-21-58-21-79 0-12 12-36 12-49 0-3-4-11-4-15 0-3 4-3 11 0 15 22 21 58 21 79 0 13-13 36-13 49 0 21 21 57 21 79 0 13-14 34-14 48 0 21 21 58 21 79 0 15-13 37-13 50 0z"/>
<glyph glyph-name="bullet-check-mark" unicode="&#57354;" d="M256 505c-137 0-249-112-249-249 0-138 111-249 249-249 138 0 249 111 249 249 0 137-111 249-249 249z m106-183l-124-156c-4-5-9-8-15-8-6 0-11 3-15 8l-57 72c-6 8-5 20 3 27 8 6 20 4 26-3l43-54 110 138c6 9 18 10 27 3 7-6 8-19 2-27z"/>
<glyph glyph-name="bullet-not-valid" unicode="&#57355;" d="M256 505c-137 0-249-112-249-249 0-138 111-249 249-249 138 0 249 111 249 249 0 137-111 249-249 249z m102-337c4-3 4-11 0-14-2-3-4-4-7-4-2 0-5 1-7 4l-89 89-89-89c-3-3-5-4-8-4-2 0-4 1-7 4-3 3-3 11 0 14l89 89-89 89c-3 4-3 11 0 15 4 3 11 3 15 0l89-89 89 89c3 3 11 3 14 0 4-4 4-11 0-15l-89-89z"/>
<glyph glyph-name="call" unicode="&#57356;" d="M415 269c1 38-13 73-40 100-27 27-63 41-100 39-6 0-11 4-11 11 0 6 4 11 10 11 43 1 84-15 115-46 31-31 47-72 46-115 0-7-5-10-10-10-5-2-10 3-10 10z m28 166c45-45 68-103 66-167 0-7-5-11-10-11-6 0-10 5-10 12 1 57-21 111-60 151-42 41-96 63-153 60-5 0-10 5-11 10 0 7 5 10 10 12 64 2 123-22 168-67z m-178-91c0 7 4 12 10 12 25 1 48-8 64-24 17-17 26-41 25-64 0-6-6-11-11-11 0 0 0 0-1 0-6 0-10 5-10 12 1 18-5 36-18 47-13 13-30 19-48 18-6 0-11 5-11 10z m183-249l-104 103c-7 8-20 8-29 0 0 0-30-28-32-29-17 0-60 36-88 73-17 22-18 33-18 34l32 31c3 4 6 9 6 16 0 5-3 11-6 15l-103 105c-4 4-10 6-15 6-5 0-10-2-15-6-3-4-7-7-11-10-25-25-53-52-55-96-1-54 39-119 124-208 87-88 153-129 206-129 48 0 77 32 103 60l5 7c8 7 8 20 0 28z m-22-21c-24-27-48-52-86-52-47 0-108 39-190 123-81 82-119 144-118 192 1 35 24 59 49 80 3 4 7 7 10 11l102-104-32-31c-7-8-7-19-1-33 17-39 86-112 122-112 3 0 7 2 11 3 1 0 4 3 4 3 3 1 31 29 31 30l103-103z"/>
<glyph glyph-name="camera" unicode="&#57357;" d="M454 375c36 0 55-29 58-58l-1-201c0-40-34-58-55-60l-400 0c-18 0-32 7-43 20-14 15-13 34-13 40l0 196c0 43 29 63 58 64l75 0c7 54 30 85 67 85l74 0c37 0 60-31 66-86z m36-259l2 201c0 3-4 38-36 38l-124 0c-7 0-12 3-12 10-1 28-10 75-46 75l-74 0c-36 0-44-47-46-75 0-5-6-10-11-10l-85 0c-4 0-38-3-38-43l0-194c0-7 0-19 8-28 8-9 17-13 28-13l398 0c11 1 36 11 36 39z m-266 216c64 0 116-53 116-117 0-64-52-116-116-116-64 0-116 52-116 116 0 65 52 117 116 117z m0-212c52 0 96 43 96 96 0 53-42 96-96 96-52 0-96-42-96-96 1-53 44-96 96-96z m170 191c18 0 32-14 32-32 0-18-14-32-32-32-18 0-32 14-32 32 2 18 16 32 32 32z m0-42c5 0 10 5 10 10 0 5-5 10-10 10-5 0-10-5-10-10 0-5 5-10 10-10z m-170 22c6 0 10-6 10-12 0-6-5-10-11-10-14 0-28-5-39-16-10-10-15-24-15-38 0-6-4-10-10-11-5 0-11 5-11 10-1 20 7 39 22 54 14 16 34 23 54 23z"/>
<glyph glyph-name="car-primary-option" unicode="&#57358;" d="M306 180c5 0 11-5 11-11 0-6-5-11-11-11l-106 0c-6 0-11 5-11 11 0 6 5 11 11 11z m-192 40c28 0 52-24 52-51 0-27-24-51-52-51-27 0-51 24-51 51 1 27 24 51 51 51z m0-81c17 0 30 13 30 30 0 17-14 30-30 30-15 0-29-13-29-30 0-17 13-30 29-30z m277 81c27 0 51-24 51-51 0-27-24-51-51-51-28 0-52 24-52 51 0 27 22 51 52 51z m0-81c16 0 29 13 29 30 0 17-13 30-29 30-17 0-30-13-30-30 0-17 13-30 30-30z m-11 147c33-3 120-6 125-115 0-4 0-8-3-8-2 0-5-2-8-2l-19 0c-6 0-11 5-11 10 0 6 5 11 11 11l6 0c-6 79-68 82-101 85l-312 0c-3-3-3-3-5-3-33-10-40-62-43-84l5 0c6 0 11-5 11-11 0-6-5-11-11-11l-14 0c-6 0-11 5-11 11 0 2-2 98 57 114 5 24 19 100 136 106l40 0c106 0 136-78 142-103 0 0 5 0 5 0z m-191 82c-87-8-104-57-108-82l108 0c0 0 0 82 0 82z m40 2l-19 0 0-82 146 0c-8 28-36 82-121 82z"/>
<glyph glyph-name="car-repair-benefit" unicode="&#57359;" d="M46 143c0-18 14-31 31-31 17 0 31 13 31 31 0 17-14 30-31 30-17 0-31-13-31-30m248 146c-15-4-25-8-33-13-14-11-27-33-31-42 8-2 23-6 37-13 30-14 44-36 40-61-2-17-6-21-12-24-1-1-1-1-2-2 0 0-1-1-1-1-5-2-12-2-16-2-5-16-21-27-38-27-22 0-40 18-40 40 0 22 18 40 40 40 22 0 40-18 40-40 0-1 0-1 0-3 4 0 8 1 11 2 1 0 2 0 3 1 3 2 6 4 8 17 6 52-77 66-78 66-2 0-3 1-4 2 0 1 0 1-1 2-34 57-75 68-104 66-71-3-89-49-93-76-2-20-5-55 0-70 2-5 12-8 18-9l0 0c0 0 0 1 0 1 0 22 18 40 41 40 22 0 40-18 40-40 0-23-18-41-40-41-18 0-35 13-39 29l-3 0c0 0-1 0-1 0-2 0-21 5-24 16-8 22 0 74 0 74 3 25 20 81 101 84 29 0 56-9 79-29 15-13 24-28 30-36 6 11 19 32 34 43 10 7 19 11 38 16z m-186-16c-8 0-16-2-22-3-11-5-20-11-25-22-3-4-4-8-5-12 0-2 0-4 2-6 2-1 4-2 7-3 3 0 7 0 11 0 3 0 6 0 8 0 3 0 6 0 9 0l14 0 0 46z m8 0l0-46 38 0c3 0 6 0 8 0 3 0 6 0 9 0 2 0 5 0 6 0 3 0 5 1 6 2 0 1 0 5-5 12-4 6-9 12-12 14-16 14-35 17-50 18z m46-55c-2 0-5 0-8 0l-61 0c-3 0-6 0-9 0-2 0-5 0-8 0-4 0-9 0-12 0-5 0-10 2-14 6-3 3-4 8-3 12 1 5 2 10 5 15 6 12 17 21 31 25 8 4 18 5 30 5 24 0 44-7 59-21 0 0 27-24 18-38-2-4-6-5-12-6-2 0-5 0-7 0-3 2-6 2-9 2z m45-75c0-18 14-31 31-31 17 0 31 13 31 31 0 17-14 30-31 30-17 0-31-13-31-30z m10 0c0 12 9 22 21 22 12 0 21-10 21-22 0-12-9-21-21-21-11 0-21 9-21 21z m9 0c0-6 5-12 12-12 7 0 12 6 12 12 0 7-5 12-12 12-6 0-12-5-12-12z m-171 0c0-12 10-21 22-21 12 0 21 9 21 21 0 12-9 22-21 22-12 0-22-10-22-22z m10 0c0 7 5 12 12 12 7 0 12-5 12-12 0-6-5-12-12-12-7 0-12 6-12 12z m436 172c2-4 3-8 2-12l-4-26c-2-7-8-13-16-13-1 0-2 0-3 0 0 0-1 0-2 1-5-21-14-37-26-49-18-17-39-19-46-19-1 0-2 0-2 0-3 0-27-1-47 19-12 12-22 28-26 49-1 0-2-1-2-1-1 0-2 0-3 0-8 0-15 6-16 13l-5 26c-1 9 5 18 14 19 1 0 2 0 3 0 1 0 3 0 5-1 0 1 0 2 0 3-3 5-4 11-4 15l0 14c0 32 37 60 79 60l7 0c42 0 78-28 78-60l0-13c0-5-1-10-3-15 0-1 0-2 1-3 1 1 3 1 5 1 1 0 2 0 2 0 3-2 6-5 9-8z m-27 28l0 10c0 26-32 49-67 49l-6 0c-35 0-67-23-67-49l0-10c46 18 95 18 140 0z m-17-26c10 0 14 8 16 15-45 18-93 18-138 0 2-7 7-15 16-15 3 0 7 1 13 4 12 6 26 9 40 9 13 0 28-3 40-9 6-3 10-4 13-4z m36-12c0 1 0 2-1 4 0 1-1 2-3 2 0 0-1 0-1 0-2 0-4 0-5-2 0-12-1-22-3-33 1 0 2 0 3 0 3-1 6 1 6 4z m-167-30c1 0 2 1 3 1-2 10-3 20-3 32-1 2-3 3-5 3 0 0-1 0-1 0-3-1-5-4-4-6l4-26c0-3 3-5 6-4z m119-51c18 17 27 47 27 87-4-2-9-4-15-4-5 0-11 2-18 4-11 6-23 9-35 9-12 0-25-3-36-9-6-3-12-4-18-4-6 0-10 2-15 4 0-40 9-70 28-87 18-17 40-16 40-16 0 0 0 0 1 0 0 0 0 0 0 0 0 0 23-1 41 16z m-24 27c2 2 6 1 7-2 2-2 1-6-1-8-6-3-14-5-23-5-9 0-17 2-23 5-3 2-4 6-2 8 2 3 5 4 8 2 3-3 10-4 16-4 7 0 14 1 18 4z m15 50c5 0 9-4 9-9 0-5-4-10-9-10-5 0-9 5-9 10 0 5 4 9 9 9z m-54-9c0-5-4-10-9-10-5 0-9 5-9 10 0 5 4 9 9 9 5 0 9-4 9-9z m22 102c13 0 24-7 24-16 0-9-11-16-24-16-12 0-23 7-23 16 0 9 10 16 23 16z m0-24c8 0 14 4 14 7 0 4-6 7-14 7-7 0-13-3-13-7 0-2 6-7 13-7z"/>
<glyph glyph-name="car-secondary-option" unicode="&#57360;" d="M140 133c-8 7-14 18-17 30-5 30 14 58 42 63 13 2 28 0 39-9 12-9 19-21 22-34 2-14 0-26-7-37 32 3 65 2 94-6 10 10 34 29 64 40-9 8-14 19-16 30-5 29 13 57 41 62 14 2 28 0 39-9 12-8 20-20 22-34 4-17-2-35-13-47 22-9 41-25 57-49 4-5 3-14-4-16-4-4-13-2-15 4-19 27-39 41-64 44-51 4-100-46-100-46-3-3-7-4-12-3-106 32-274-39-292-55-3-2-5-2-8-2-3 0-6 1-8 3-5 5-4 12 1 17 11 10 67 37 135 54z m-13 238l14-78 76 14-15 78z m-23-4l-41-9c-2-1-4-3-3-6l9-53 4-20 45 10z m122 24l14-78 92 19-48 68c-1 1-4 2-5 2z m-148-135l11-55 5-23c0-2 2-4 4-4l13-3c6-2 11-8 10-14-2-6-6-9-13-9-1 0-1 0-2 0l-15 2c-11 2-20 11-22 23l-2 11-28-6c-1 0-1 0-2 0-3 0-5 1-7 2-2 2-4 5-4 8l-19 97c-1 6 3 12 10 14l27 6-9 42c-2 16 8 31 24 35l215 43c11 3 23-2 30-12l53-78 94 4c23 1 43-15 46-38l9-45c2-16-7-30-22-34-6-1-12 2-13 10-2 6 2 12 9 13 3 0 5 4 4 6l-9 45c-2 11-12 19-22 19l-98-4z m-26 7l-3 19-17-4 14-73 17 3-11 55c0-1 0-1 0 0z m124-61c-2 0-4 0-5 0-16-3-26-18-23-35 1-9 6-15 12-19 6-5 13-7 20-5 16 3 26 18 24 35-2 7-7 15-13 19-4 4-11 5-15 5z m234 47c-16-4-26-19-24-36 2-8 7-14 13-19 6-5 13-6 20-5 16 4 26 18 24 35-2 9-7 15-13 20-5 3-9 5-16 5-1 1-3 0-4 0z m-174-64c-1 6 3 12 10 14l95 18c6 1 13-2 14-10 1-6-3-12-10-13l-95-18c-1 0-1 0-3 0-4 0-11 3-11 9z m-181 229c-1 7 2 13 10 14l170 34c6 1 12-2 14-10 1-6-3-12-10-13l-171-34c-1 0-1 0-2 0-5 0-10 5-11 9z"/>
<glyph glyph-name="carousel-left" unicode="&#57361;" d="M252 497c-136 0-246-109-246-245 0-136 110-246 246-246 136 0 247 110 247 246-2 136-111 245-247 245z m0-470c-124 0-225 101-225 225 0 123 101 225 225 225 125 0 226-102 226-226-1-123-103-224-226-224z m110 234l-211 0 79 82c4 3 4 11 0 14-3 4-11 4-14 0l-98-99c-1-1-1-2-2-3 0-3 0-4 0-5 0-1 0-3 1-4 0-1 1-2 2-3l98-99c2-3 5-4 7-4 3 0 5 1 8 4 3 4 3 11 0 14l-80 82 211 0c6 0 10 5 10 11-1 5-6 10-11 10z"/>
<glyph glyph-name="carousel-right" unicode="&#57362;" d="M252 497c-135 0-246-109-246-245 0-135 111-246 246-246 136 0 247 111 247 246-2 136-111 245-247 245z m0-470c-124 0-225 101-225 225 0 125 101 225 225 225 125 0 226-102 226-226-1-123-101-224-226-224z m-109 217l211 0-80-82c-3-4-3-11 0-14 4-4 11-4 15 0l97 98c2 1 2 3 3 4 0 1 1 2 1 4 0 1 0 2-1 3 0 1-1 3-3 4l-97 99c-3 2-5 3-7 3-3 0-5-1-8-3-3-4-3-11 0-15l80-82-211 0c-6 0-10-5-10-11-1-3 4-8 10-8z"/>
<glyph glyph-name="chat" unicode="&#57363;" d="M335 512l-160 0c-94 0-174-88-174-193 0-96 63-171 127-190l0-115c0-4 3-8 6-10 2-1 3-1 6-1 2 0 5 1 6 2l143 122 48 0c92 0 170 88 170 193-1 104-79 192-172 192z m0-364l-51 0c-2 0-5-1-6-2l-130-109 0 100c0 5-3 9-7 10-59 14-119 82-119 172 0 92 71 171 152 171l161 0c81 0 149-78 149-171 0-92-68-171-149-171z m17 236l-196 0c-6 0-10-5-10-10 0-7 5-10 10-10l196 0c6 0 10 5 10 10 0 5-4 10-10 10z m0-65l-196 0c-6 0-10-5-10-11 0-5 5-10 10-10l196 0c6 0 10 5 10 10 0 6-4 11-10 11z m-88-64l-107 0c-6 0-10-5-10-11 0-5 5-10 10-10l107 0c6 0 10 5 10 10 0 6-5 11-10 11z"/>
<glyph glyph-name="chat-question" unicode="&#57364;" d="M339 504c90 0 165-85 165-187 0-101-75-186-165-186l-45 0-139-118c-1-1-4-3-7-3-1 0-2 0-3 2-4 1-7 5-7 8l0 112c-61 19-123 91-123 184 0 101 77 187 169 187l155 0z m0-353c78 0 144 76 144 166 0 91-66 167-144 167l-155 0c-79 0-148-78-148-167 0-87 59-152 115-166 5-1 8-5 8-10l0-97 125 104c1 2 4 3 7 3z m-80 60c0-9-7-15-16-15-9 0-15 6-15 15l0 7c0 9 6 15 15 15 9 0 16-6 16-15z m6 69c0-9-6-15-15-15-9 0-16 6-16 15l0 27c0 12 8 21 18 25 26 8 39 17 39 29 0 15-17 28-40 28-15 0-30-6-36-15-5-7-15-9-22-4-6 5-9 15-4 22 13 18 36 28 62 28 38 0 72-26 72-60 0-28-21-46-57-58l0-22z"/>
<glyph glyph-name="check-mark" unicode="&#57365;" d="M255 506c-138 0-249-111-249-249 0-136 111-248 249-248 136 0 248 110 248 248 0 138-112 249-248 249z m0-476c-126 0-228 103-228 228 0 126 102 228 228 228 125 0 228-102 228-228 0-126-103-228-228-228z m107 327l-141-177-61 77c-4 5-10 5-15 1-5-3-5-9-1-14l69-87c3-2 5-3 9-3 4 0 6 1 8 3l148 187c4 5 2 11-1 14-5 4-11 3-15-1z"/>
<glyph glyph-name="claims-hotline" unicode="&#57366;" d="M296 161c0-7-5-12-13-12l-244 0c-7 0-13 6-13 12l0 12 270 0z m0 35l0-8-270 0 0 141c0 7 6 12 13 12l185 0c1 4 2 10 3 15l-188 0c-15 0-27-12-27-27l0-168c0-16 12-28 27-28l246 0c15 0 27 12 27 28l0 38c-5-1-10-1-16-3z m155 146c-16 2-34 20-44 31-21-19-81-29-108-32 0-3 0-4 0-6 1-12 2-27 0-34-1-2-3-3-4-5-2-1-4-3-4-7 0-3 3-7 7-7 3 0 7-3 8-7 2-36 44-65 68-65 13 0 31 8 45 22-6 0-11 0-17 0-2-5-8-8-14-8l-3 0c-9 0-15 5-17 12-1-3-4-4-7-4l-7 0c-5 0-8 4-8 7 0 5 4 7 8 7l7 0c2 0 6-1 7-3 1 7 8 12 17 12l3 0c6 0 12-4 14-9 12 0 22 2 30 2 5 8 9 18 10 26 0 3 3 7 7 7 3 0 7 4 7 7 0 3-1 6-5 7-2 1-3 3-3 5-3 6-1 18 1 35 1 2 1 4 2 7z m5 15c1 0 1 0 2 0 5 0 8-3 8-7 0-4-2-9-2-17-1-7-2-19-2-25 2-1 5-3 6-6 5-1 9-4 12-9 5-8 5-19 1-30-7-18-21-25-40-28-17-24-46-41-68-41-32 0-77 35-82 74-10 2-16 12-16 21 0 7 4 15 10 19 1 6 0 18-2 25 0 6-1 11-1 15 0 1 0 3 1 4 2 2 4 3 6 4 50 6 106 20 110 33 1 3 3 5 6 5 2 0 6-1 7-3 13-16 33-37 44-34z m-4-105c9 4 14 9 16 16 1 3 2 7 2 11-2-5-7-10-13-11-1-6-2-11-5-16z m-235-140l6-44c0 0 0-1 0-1 0-7-6-13-15-13l-95 0c-7 0-14 6-14 13 0 0 0 1 0 1l8 44c0 3 5 7 8 6 4 0 8-5 6-8l-6-41 92 0-5 41c0 3 3 8 6 8 5 1 9-1 9-6z m234 98c-3 0-7 0-9 0-5 0-7 3-7 8 0 5 4 7 8 7 20-2 33 2 42 13 16 20 14 64-6 126-24 77-80 69-82 69-2 0-3 0-4 0 0 0-50 14-88-11-23-15-37-40-43-74-12-68-12-103 0-116 7-7 19-9 42-6 3 0 8-2 8-7 0-3-2-8-7-8-22-3-42-4-55 10-17 18-18 53-5 129 7 39 24 68 50 85 41 26 90 15 99 13 11 1 72 2 98-79 21-69 22-117 2-140-7-13-22-19-43-19z m-99 88l-10 0c-5 0-7 3-7 7 0 5 3 7 7 7l10 0c5 0 8-4 8-7 0-4-3-7-8-7z m56 0l-10 0c-5 0-7 3-7 7 0 5 3 7 7 7l10 0c5 0 8-4 8-7 1-4-3-7-8-7z"/>
<glyph glyph-name="close" unicode="&#57367;" d="M6 6c4-5 9-6 14-6 6 0 11 1 15 6l221 221 221-221c4-5 9-6 15-6 5 0 10 1 14 6 9 9 9 20 0 29l-221 221 221 221c9 9 9 20 0 29-9 9-20 9-29 0l-221-221-221 221c-9 9-20 9-29 0-9-9-9-20 0-29l221-221-221-221c-7-7-7-20 0-29"/>
<glyph glyph-name="condominium" unicode="&#57368;" d="M499 329c4-2 8-8 6-13-2-4-6-8-10-8-1 0-3 0-4 2l-27 9 0-240c0-6-4-11-11-11l-396 0c-6 0-11 5-11 11l0 162-28-7c-1 0-1 0-2 0-5 0-9 4-10 7-1 6 3 11 7 13l200 52 0 107-28 11c-5 3-8 9-6 14 3 5 9 8 14 6z m-55-1l-209 77 0-317 42 0 0 73c0 6 5 11 11 11l41 0c6 0 11-5 11-11l0-73 105 0 0 240z m-158-113c-6 0-10 4-10 11 0 6 4 10 10 10l22 0c7 0 11-4 11-10 0-7-4-11-11-11z m0 63c-6 0-10 5-10 11 0 6 4 11 10 11l22 0c7 0 11-5 11-11 0-6-4-11-11-11z m85-63c-7 0-11 4-11 11 0 6 4 10 11 10l20 0c6 0 11-4 11-10 0-7-5-11-11-11z m0-63c-7 0-11 5-11 11 0 6 4 11 11 11l20 0c6 0 11-5 11-11 0-6-5-11-11-11z m0 126c-7 0-11 5-11 11 0 6 4 11 11 11l20 0c6 0 11-5 11-11 0-6-5-11-11-11z m-74-189l21 0 0 62-21 0z m-187 0l62 0 0 62-62 0z m-43 158l0-157 21 0 0 73c0 6 5 11 11 11l84 0c6 0 11-5 11-11l0-73 21 0 0 195z m73-53c-2 0-6 1-7 2-3 3-3 5-3 8 0 2 2 6 3 7 4 4 11 4 15 0 2-3 2-5 2-7 0-3-1-5-2-8-2-1-4-2-8-2z"/>
<glyph glyph-name="construction-worker" unicode="&#57369;" d="M275 105l-43 0c-7 0-11-5-11-10 0-7 6-11 11-11l43 0c7 0 10 6 10 11 0 6-5 10-10 10z m-73 82c-2-1-4-4-4-8 0-2 2-5 3-7 3-3 5-3 8-3 2 0 5 1 7 3 3 2 4 5 4 7 0 3-1 5-4 8-4 4-10 4-14 0z m87 0c-2-3-4-5-4-8 0-2 2-5 4-7 3-3 5-3 8-3 3 0 5 1 8 4 2 2 2 5 2 7 0 3-1 6-4 8-2 3-10 3-14-1z m141 63c28 9 42 24 42 44 0 22-15 41-37 45-15 63-60 112-121 129-8 26-31 44-58 44l-5 0c-28 0-51-18-59-44-60-19-106-67-122-129-20-4-37-23-37-45 0-32 31-41 43-44 0 0 1 0 1 0 0-13 2-25 6-39-9-7-15-19-15-31 0-17 13-33 29-38 13-78 101-139 156-139 62 0 144 64 155 139 17 4 30 19 30 38 0 12-5 24-16 31 6 13 7 25 8 39 0-2 0 0 0 0z m-220 201c0 21 18 39 40 39l5 0c21 0 39-18 39-39l0-48c0-22-18-39-39-39l-5 0c-22 0-40 17-40 39z m188-288c-5 0-10-4-10-11-5-70-86-128-135-128-47 0-129 59-134 128 0 5-5 11-11 11-11 0-18 7-18 17 0 7 3 13 10 17 15 7 25-6 25-8 3-2 6-3 9-3 2 0 2 0 3 0 4 1 8 5 8 9l2 35c36-6 69-9 101-9 43 0 78 6 109 11l3-36c0-4 4-8 7-9 2 0 3 0 3 0 4 0 6 1 9 4 1 1 10 14 25 7 7-2 11-9 11-16 1-12-7-19-17-19z m-299 79c10-3 19-5 29-8l-1-18c-7 3-14 5-23 4-3 7-4 14-5 22z m280-8c11 3 20 5 28 8-1-8-3-15-5-23-9 1-17 0-23-4z m-297 36c-23 8-27 15-27 24 0 13 10 25 24 25 5 0 9 4 11 9 11 53 48 98 99 117l0-42c0-34 29-61 62-61l5 0c35 0 61 28 61 61l0 42c52-19 89-62 99-117 1-5 5-9 10-9 13 0 25-11 25-25 0-7-3-18-29-24-1-1-166-61-340 0z"/>
<glyph glyph-name="deductible-waiver" unicode="&#57371;" d="M89 141c52 8 91 8 116-1l102-32c6-2 12-6 16-10l73 35c18 8 34-1 40-14 8-14 5-35-13-43-21-10-38-19-52-26-67-34-69-34-110-34-42 0-82 10-124 30-7 3-21 3-46-3l0-28-91 0 0 147 89 0z m0-14l0-70c18 5 40 8 52 3 42-20 81-30 119-30 37 0 37 0 103 33 15 8 32 16 53 26 11 6 11 17 7 24-2 3-9 14-21 8l-74-37c1-11-3-23-11-30-5-5-11-8-18-8-4 0-6 0-10 2l-106 34 5 13 107-34c5-1 10-1 13 2 5 5 8 13 7 20-2 4-4 10-11 12l-103 32c-23 7-62 7-112 0z m184 203l-7-31c8-5 20-15 18-31-2-13-15-22-29-22l0-2-15 3 0 3c-7 4-13 10-16 17l14 5c1-3 3-5 6-7l6 26c-9 5-21 15-18 31 1 5 3 8 7 12-3 1-4 4-6 6-6 9-7 20-4 28 3 6 9 11 16 14l-61 13c-8-22-30-37-54-37-1 0-3 0-4 0l-15-65c11-4 21-11 27-22 6-10 10-22 8-35l181-39c3 11 12 22 22 29 9 6 22 9 34 8l13 61c-17 7-33 28-39 46-22-5-44-7-72-9-3 0-7-2-12-2z m-15-1c-1 0-1 0 0 0-1 0-2 0-3 0-3 0-5 0-6 1l3-5c-2-2-3-3-5-6 0-2 0-6 8-12z m0-67c7 1 10 5 11 10 2 2 0 6-7 12z m-56 143l33-8c12 11 30 24 47 27 18 4 41 3 48-11 6-9 3-20-8-35l-3-3-67-8c-5 0-8-3-9-6-3-4-2-10 1-14 1-2 5-4 11-4 11 1 19 2 29 2 59 6 90 9 145 40l-24 60c-10 0-32 4-81 15-58 14-101-28-122-55z m-14 3c20 28 70 82 140 66 41-10 62-12 72-13l-6 16 68 29 49-120-71-29-6 16c-9-5-17-10-24-13l14-4-40-187-299 66 41 188z m184-63c5-13 16-29 28-35l7 35-22 5c-3-1-8-4-13-5z m-118 49l34-8 24 3c5 7 7 13 6 16-2 5-16 7-34 5-11-2-22-9-30-16z m126-175c-8 0-16-2-23-6-7-5-12-11-16-19l32-7z m-270 58l-6-31 30-6c0 7-1 16-6 22-5 6-11 12-18 15z m20 95c19-1 35 10 42 25l-34 8z m282 97l38-92 42 18-37 93z m-397-440l59 0 0 120-59 0z"/>
<glyph glyph-name="disappearing-deductible" unicode="&#57372;" d="M184 328c10 0 17 6 17 15 0 3-2 9-19 14-10 3-32 10-32 29 0 9 4 16 10 22 5 4 9 6 14 8l0 5c0 4 4 8 9 8 4 0 8-4 8-8l0-5c9-3 16-6 21-14 3-3 1-8-2-11-4-2-9-1-11 3-4 3-10 7-16 7-5 0-10-1-12-5-3-2-5-6-5-10 0-4 3-9 19-14 8-3 32-9 32-29 0-15-11-27-26-30l0-5c0-4-3-8-8-8-5 0-9 4-9 8l0 5c-8 3-19 6-25 12-4 3-4 9-1 11 2 4 8 4 10 2 9-5 19-10 26-10z m-107 139c0-34-28-62-62-62l0-77c34 0 62-28 62-62l208 0c0 17 8 34 21 46 12 12 29 18 45 18l0 77c-1 0-2-1-4-1 0 0-1 0-1 0-14 0-29 6-39 16-11 11-18 28-17 45z m-16 0l-46 0 0-46c25 0 46 20 46 46z m-55-55l0 55c0 2 1 4 3 6 1 1 3 1 6 1l336 0c3 0 4-1 6-2 3-1 3-4 3-6l0-70 18 17c0 0 1 1 2 0 2 0 2 0 2-1l129-156c1-1 1-2 0-4l-217-179-42-34c0 0-1-1-1-1-1 0-1 0-1 1l-76 91-12-4-52-22c-2 0-2 0-3 0-1 0-1 0-2 0-1 0-3 1-3 2l-58 135-6 14-23 0c-3 0-4 1-6 2-2 1-3 4-3 6z m299 54c0-14 5-25 13-33 7-8 17-12 29-12 2 0 3 0 4-2l0 47z m-4-201l49 0 0 47c-12 0-25-5-34-13-9-9-15-21-15-34z m57 56l0-54c6 13 16 24 28 30l-28 64z m-297-56c0 25-21 46-46 46l0-46z m189-9l-177 0c-5-6-11-11-17-15l33-76c13 4 28 3 41-2 14-5 25-14 31-26l196 85c-3 11-3 24-1 35-1-1-4-2-5-2l-89 0c1-6 1-12-1-17-3-5-6-10-12-14l2-6c1-2 0-6-2-7-2 0-2 0-3 0-2 0-3 1-5 4l-2 6c-4-2-9-2-13-2-7 0-11 2-16 3-3 1-5 4-4 7 1 3 4 5 7 4 9-3 21-3 27 0 5 2 9 6 11 11 1 3 1 8-1 12z m-201 0l2-5c3 1 5 3 8 5z m309 133l0-1 13-28c1 0 3-2 4-2 13-1 25 3 35 11 0 0 0 0 1 0l-31 37z m8-162l42 18-18 43c-10-5-17-14-22-25-5-12-6-24-2-36z m31 70l24-52c1-2 0-6-3-7l-60-26c0-1 0-2 0-4-1-6-3-12-8-15l6-8c1-1 1-2 0-3 0 0-1-2-1-2-1 0-1 0-3 2l-7 7c-7-5-18-9-29-9-1 0-3 2-3 3 0 1 2 2 3 2 9 0 20 4 27 9 4 3 7 10 8 14l-175-76 39-47c11 9 25 13 40 11 14-1 27-7 36-18l169 139c-9 12-14 28-11 44 1 15 8 28 19 38l-56 67c0 0 0 0 0-2-10-8-21-12-33-12-1 0-4 0-5 0-1 0-1 0-2 0z m-247-164c-6 10-15 17-24 21-11 3-22 4-33 1l18-39z m316 89l40 33-33 40c-10-9-16-21-18-34-2-14 2-28 11-39z m-177-146c-9 9-21 15-34 17-14 1-26-3-36-10l32-38z"/>
<glyph glyph-name="edit" unicode="&#57373;" d="M398 250c-6 0-10-5-10-10l0-189c0-21-7-21-13-21l-321 0c-13 0-22 9-22 21l0 319c0 6 0 16 23 16l186 0c6 0 10 5 10 10 0 6-5 10-10 10l-185 0c-40 0-44-25-44-36l0-319c0-24 18-41 42-41l321 0c12 0 35 5 35 41l0 189c0 5-5 10-12 10z m105 181l-68 69c-9 8-25 8-34 0l-255-256c-2-3-4-4-50-118l-2-5c-4-9-2-19 5-26 5-5 11-8 17-8 3 0 6 0 9 2l4 1c6 2 11 5 16 6 99 40 100 41 102 44 4 4 255 255 258 257 5 5 7 10 7 18-1 5-4 11-9 16z m-382-321l-4-1c-1 0-2 0-3 1-2 1-2 2-2 4l3 5 7-8c0 0 0 0-1-1z m24 10l-20 20c17 45 27 67 32 79l67-67c-13-5-35-15-79-32z m345 291c-3-1-207-206-249-247l-16 16 221 221c4 4 4 11 0 15-4 4-11 4-15 0l-221-221-41 41c41 41 247 247 248 249 1 1 1 1 3 1 0 0 1 0 2-1l69-69c1-1 1-1 1-3-2-1-2-1-2-2z"/>
<glyph glyph-name="help" unicode="&#57374;" d="M109 77l76 77c20-15 46-24 72-24 33 0 63 12 85 34l76-77c-41-40-98-66-161-66-56 1-107 23-148 56m-82 177c0 62 25 119 67 161l76-77c-21-22-34-52-34-84 0-33 13-63 34-85l-76-77c-42 42-67 99-67 162m393 164l-77-76c-22 21-52 34-85 34-27 0-52-9-72-24l-77 78c40 33 92 55 149 55 63 0 120-25 162-67m-264-164c0 56 46 102 102 102 57 0 103-46 103-102 0-57-46-103-103-103-56 0-102 46-102 103m279-150l-77 76c15 20 24 46 24 72 0 28-9 53-24 73l77 76c33-40 55-93 55-150 0-55-22-106-55-147m8-22c42 45 68 105 68 172 0 66-26 126-68 171 0 0-1 1-1 1 0 0-1 0-1 1-46 49-111 79-183 79-66 0-126-26-171-68 0 0-1-1-1-1 0 0 0-1-1-1-49-46-79-111-79-182 0-73 30-137 79-183 0 0 0-1 1-1 0 0 1-1 3-1 45-42 105-68 171-68 72 0 136 30 182 79 0 0 1 0 1 1 0 0 0 1 0 1"/>
<glyph glyph-name="house" unicode="&#57375;" d="M507 290c5-4 5-11 1-14-2-3-5-4-8-4-3 0-5 1-8 2l-24 21 0-271c0-6-5-11-11-11l-403 0c-6 0-11 5-11 11l0 271-25-21c-5-3-11-3-14 2-4 4-4 10 1 14l245 207c4 4 10 4 13 0z m-230-255l86 0 0 170-86 0z m170 0l0 278-191 162-191-162 0-278 190 0 0 180c0 6 5 11 11 11l107 0c6 0 11-5 11-11l0-181 63 0z m-243 191c6 0 11-5 11-11l0-65c0-6-5-11-11-11l-65 0c-6 0-11 5-11 11l0 65c0 6 5 11 11 11z m-55-65l44 0 0 44-44 0z"/>
<glyph glyph-name="id-card" unicode="&#57376;" d="M502 401l-192 0 6 53c1 8-1 17-8 23-5 7-12 11-21 11l-55 0c-8 0-17-4-22-11-5-6-8-14-8-23l7-53-199 0c-5 0-10-5-10-12l0-342c0-6 5-10 10-10l490 0c7 0 11 5 11 10l0 342c1 7-4 12-9 12z m-275 61c1 1 3 3 5 3l55 0c2 0 4-2 5-3 2-1 2-4 2-5l-10-92c0-4-4-7-8-7l-33 0c-4 0-7 3-7 7l-11 92c-1 1 0 4 2 5z m263-403l-468 0 0 320 190 0 3-17c1-14 14-25 29-25l34 0c14 0 27 11 28 25l1 17 185 0 0-320z m-226 101c-48 18-59 27-60 28l0 3c5 6 10 15 12 24 4 4 7 9 8 15 1 7 0 12-4 17l0 18c0 29-19 49-51 49-32 0-51-18-51-49l0-18c-3-5-4-10-3-17 1-6 4-11 8-15 2-9 8-18 13-24l0-3c-3-2-16-11-60-29-8-2-12-8-12-16l0-24c0-9 8-17 17-17l176 0c9 0 18 8 18 18l0 25c0 6-5 12-11 15z m-11-37l-169 0 0 18c62 24 70 33 72 41 0 1 0 2 0 2l0 9c0 3-1 5-2 8-6 5-9 13-12 22-1 2-2 4-4 6-1 1-1 3-2 4 0 1 0 3 1 4 1 2 3 4 3 6l0 22c0 18 10 27 29 27 20 0 29-9 29-27l0-22c0-2 2-5 3-6 1-1 1-3 1-4 0-1-1-3-2-4-3-1-4-4-4-6-3-9-7-17-12-22-2-3-2-5-2-8l0-9c0-1 0-2 0-2 2-8 10-18 71-41z m183 64l-128 0c-6 0-10-5-10-10 0-7 5-11 10-11l128 0c7 0 11 6 11 11 0 5-5 10-11 10z m-138 54c0-7 5-11 10-11l128 0c7 0 11 6 11 11 0 6-5 10-11 10l-128 0c-5 0-10-5-10-10z"/>
<glyph glyph-name="in-progress" unicode="&#57377;" d="M129 256c0-32-24-56-56-56-32 0-56 25-56 56 0 31 24 56 56 56 32 0 56-24 56-56z m183 0c0-32-24-56-56-56-32 0-56 24-56 56 0 32 24 56 56 56 32 0 56-24 56-56z m178 0c0-32-24-56-56-56-32 0-56 24-56 56 0 32 24 56 56 56 31 0 56-24 56-56z"/>
<glyph glyph-name="launch-video" unicode="&#57378;" d="M488 505c7 0 11-5 11-10l0-478c0-5-5-10-11-10l-477 0c-6 0-11 5-11 10l0 102c0 0 0 0 0 2 0 1 0 1 0 1l0 268c0 0 0 0 0 1l0 104c0 5 5 10 11 10z m-467-477l457 0 0 82-457 0z m0 374l457 0 0 82-457 0z m0-271l457 0 0 250-457 0z m295 143c6-4 10-11 10-18 0-7-4-14-10-18l-90-71c-4-4-9-6-15-6-13 0-23 11-23 24l0 142c0 13 10 24 23 24 6 0 11-2 15-6z m-13-21c2 2 2 2 2 3 0 1 0 1-2 3l-90 71-2 0c-1 0-2-2-2-3l0-141c0-4 2-4 5-2z m-229-164c5 0 10-5 10-10l0-20c0-5-5-10-10-10-6 0-11 4-11 10l0 21c0 5 4 9 11 9z m61 0c5 0 11-5 11-10l0-20c0-5-6-10-11-10-5 0-10 4-10 10l0 21c0 5 5 9 10 9z m63 0c5 0 11-5 11-10l0-20c0-5-6-10-11-10-5 0-10 5-10 10l0 21c0 5 4 9 10 9z m62 0c5 0 10-5 10-10l0-20c0-5-5-10-10-10-5 0-11 5-11 10l0 21c0 5 6 9 11 9z m63 0c5 0 10-5 10-10l0-20c0-5-5-10-10-10-5 0-11 5-11 10l0 21c0 5 4 9 11 9z m62 0c5 0 10-5 10-10l0-20c0-5-5-10-10-10-6 0-11 5-11 10l0 21c0 5 5 9 11 9z m63 0c5 0 10-5 10-10l0-20c0-5-5-10-10-10-6 0-11 5-11 10l0 21c0 5 4 9 11 9z m-395 334c-7 0-11 4-11 10l0 20c0 5 5 10 11 10 5 0 10-4 10-10l0-21c0-5-5-9-10-9z m61 0c-5 0-10 4-10 10l0 20c0 5 5 10 10 10 5 0 11-5 11-10l0-21c0-5-4-9-11-9z m63 0c-5 0-10 5-10 10l0 20c0 5 5 10 10 10 5 0 11-5 11-10l0-21c0-5-6-9-11-9z m62 0c-5 0-11 5-11 10l0 20c0 5 6 10 11 10 5 0 10-4 10-10l0-21c0-5-4-9-10-9z m63 0c-5 0-11 5-11 10l0 20c0 5 6 10 11 10 5 0 10-5 10-10l0-21c0-5-5-9-10-9z m62 0c-6 0-11 5-11 10l0 20c0 5 5 10 11 10 5 0 10-5 10-10l0-21c0-5-4-9-10-9z m63 0c-6 0-11 5-11 10l0 20c0 5 5 10 11 10 5 0 10-5 10-10l0-21c0-5-5-9-10-9z"/>
<glyph glyph-name="lifetime-renewability" unicode="&#57379;" d="M437 75c5 0 9-4 9-9l0-21c0-11-9-20-20-20l-207 0c-12 0-20 9-20 20l0 184 17 0 0-185c0-2 1-3 3-3l207 0c1 0 2 1 2 3l0 21c0 6 4 10 9 10z m3 233c2-2 6-6 6-12l0-34c0-5-4-8-9-8-5 0-9 3-9 8l0 25-46 0c-5 0-9 4-9 9l0 46-63 0 0 18 72 0c6 0 10-4 13-7z m-53 29l0-37 38 0z m50-193c-17 0-30 15-34 31-2 1-5 5-6 7-1 4 0 8 3 10 0 3-2 5-2 9 0 23 18 40 38 40 20 0 37-17 37-40 0-2 0-5-1-9 3-2 3-6 3-10-2-3-3-6-7-8-1-14-13-30-31-30z m-24 42c3-1 4-4 4-6 1-11 9-23 20-23 10 0 19 13 20 23 0 2 1 5 4 6-1 1-1 4-1 6 1 3 1 5 1 9 0 14-10 25-24 25-12 0-24-11-24-25 0-2 0-5 2-9 1-1 0-3-2-6z m89-94l-130 0c-5 0-10 5-10 10l0 10c0 3 1 5 3 8 12 12 48 26 53 26 2 0 3 0 4-1 8-4 23-4 30 0 1 0 3 1 4 1 4 0 40-14 54-27 2-3 2-5 2-8l0-10c0-5-5-9-10-9z m-126 18l0-4 121 0 0 4c-10 9-34 17-41 21-11-5-28-5-39 0-7-2-31-12-41-21z m-30 30l-76 0c-5 0-9 4-9 9 0 5 4 8 9 8l76 0c5 0 9-3 9-8 0-5-4-9-9-9z m0 35l-76 0c-5 0-9 4-9 9 0 5 4 8 9 8l76 0c5 0 9-3 9-8 0-5-4-9-9-9z m-35 270c17-28 25-60 9-73 0 0-2 0-2-1l-28-13c0 0-2 0-2 0 0-6-1-12-3-18-3-5-7-9-12-12 0-1-1-1-1-1 0-5-1-11-4-16-3-8-11-13-19-15 0-4-2-8-4-11-4-7-10-12-18-14 0-4-1-9-3-13-4-7-10-12-19-14-3-2-5-2-8-2-5 0-11 2-16 4l-2 1 7 11 1-1c4-2 9-2 13-1 5 1 7 4 10 9 1 2 2 5 2 7l-15 8c2 5 2 10 0 15l25-13c4 1 8 4 10 8 2 2 3 5 3 6l-64 32c-4 2-5 7-2 10 1 4 6 5 8 3l67-34c5 1 8 4 11 9 2 4 2 7 1 11l-67 35c-4 1-5 6-3 10 1 4 6 5 10 3l70-35c2 1 5 3 6 6 4 7 4 16-4 21l-31 19c-5 2-38 20-38 20-10 5-20 11-35 10-9 0-18-3-28-6-1-2-4-2-5-3-6-2-12-5-19-5-6 0-12 3-17 6-5 5-8 12-8 18 0 7 3 14 9 20 3 2 6 5 9 7l-20 12c-3 0-4 1-6 1-14-1-32-18-44-41-14-25-19-57-5-64l10-5-8-11-8 5c-24 12-18 51-2 81 15 29 37 47 55 49 5 0 9-2 13-3l29-15c2 1 5 3 6 3 2 1 5 2 7 3l5 2c12 5 25 11 38 10 15-2 24-5 35-9 4-1 6-3 11-5 1 0 1 0 3-1 6 3 18 12 27 18 3 2 6 3 9 3 15 1 36-16 51-41z m1-60c6 5 4 27-12 52-15 23-32 35-40 35-2 0-2 0-3 0-32-21-32-21-33-21-2 0-3 0-3 0-1 0-4 1-5 1-5 1-9 4-11 5-10 5-16 8-30 8-10 0-21-5-31-9l-4-1c-13-5-25-12-33-20-5-2-6-5-6-8 0-2 1-5 4-7 2-3 5-4 7-4 4 0 9 2 13 4 2 1 4 1 6 2 11 4 21 6 31 6 19 2 33-6 43-12 0 0 61-31 82-44z m-130-92c2-6 0-12-3-17l-17-25c-3-6-11-10-18-11-5 0-10 1-14 4-4 2-8 6-9 11-2-1-6-3-10-3-5 0-10 2-14 4-3 2-7 6-8 10-4-1-7-3-10-3-5 0-10 2-14 4-9 6-13 16-10 25-4 0-6 1-9 3-5 2-7 7-9 12-1 6 0 13 4 19l14 21c5 8 11 11 20 11 4 0 7-1 11-2 3-1 4-4 5-5 4 5 11 9 18 9 5 0 10-2 13-4 8-5 12-13 12-21 5 0 8-2 13-4 5-4 9-9 10-15 0-1 0-4 0-5 0 0 0 0 2 0 5 0 10-1 13-4 5-2 9-7 10-14z m-15-10c2 3 3 5 2 8 0 2-3 5-4 6-1 1-4 1-6 1-4 0-7-1-8-5l-16-25c-1-2-3-5-1-7 0-3 2-5 3-6 5-3 12-1 14 2z m-48-12l23 36c2 3 3 5 2 8 0 2-3 5-4 6-1 1-4 1-6 1-4 0-7-1-8-5l-24-36c-1-1-2-4-1-6 0-3 3-5 4-7 5-3 11-1 14 3z m-33 11l33 50c2 5 1 11-3 14-1 1-4 1-6 1-4 0-6-1-8-5l-32-50c-3-5-1-11 2-14 4-2 12 0 14 4z m-30 25c3 0 6 3 9 5l14 21c1 3 2 5 1 8 0 1-1 2-3 4-1 1-2 1-3 1-3 0-7-3-9-5l-14-21c0-3-1-5 0-8 0-1 1-2 3-4 0-1 1-1 2-1z m290-97l-76 0c-5 0-9 4-9 9 0 5 4 8 9 8l76 0c5 0 9-3 9-8 0-5-4-9-9-9z"/>
<glyph glyph-name="lightbulb" unicode="&#57380;" d="M243 289c-4-4-16-4-29 11-10 11-13 25-9 30 1 2 4 3 6 3 5 0 14-3 23-12 5-6 9-13 10-19 2-4 2-9-1-13z m35 31c6 8 15 12 23 12 2 0 5-2 6-3 3-3 3-9 3-12-2-6-5-14-10-19-13-13-25-14-30-10-6 6-4 20 8 32z m23-170l-35 0 0 118c3-2 5-2 9-2 13 0 27 7 39 19 9 9 14 20 16 31 3 12-1 23-7 31-15 14-41 9-59-10-3-3-4-5-7-8-1 3-4 5-6 8-19 18-46 21-60 9-14-14-11-41 7-61 12-11 26-19 39-19 2 0 6 2 9 2l0-118-35 0c-5 37-36 80-42 89 0 2-1 2-1 2-28 33-45 78-45 116 0 74 60 133 133 133 73 0 133-60 133-133 0-40-17-83-45-116-2-3-37-50-43-91z m7-108l-15 0c-2 0-5-1-8-2l-17-18-24 0-17 18c-3 2-6 2-8 2l-15 0 0 86 104 0z m102 315c0 86-70 155-154 155-84 0-154-69-154-155 0-45 18-92 49-129 0 0 0 0 0-1 10-13 33-49 38-79-5-1-7-5-7-10l0-107c0-7 5-11 10-11l22 0 18-17c2-3 5-3 7-3l32 0c3 0 5 1 8 3l18 17 22 0c6 0 10 6 10 11l0 107c0 5-4 9-8 10 7 35 39 79 39 79 30 37 50 85 50 130z"/>
<glyph glyph-name="menu" unicode="&#57381;" d="M18 407c-6 0-12 5-12 12 0 6 6 11 12 11l476 0c6 0 12-5 12-11 0-7-6-12-12-12z m476-137c6 0 12-5 12-11 0-7-6-12-12-12l-476 0c-6 0-12 5-12 12 0 6 6 11 12 11z m0-159c6 0 12-5 12-11 0-7-6-12-12-12l-476 0c-6 0-12 5-12 12 0 6 6 11 12 11z"/>
<glyph glyph-name="minus" unicode="&#57382;" d="M39 232l424 0c10 0 16 10 16 19 0 10-8 21-16 21l-424 0c-10 0-15-9-15-19 0-9 5-21 15-21z"/>
<glyph glyph-name="money" unicode="&#57383;" d="M243 123c-26 2-56 17-77 35-6 5-7 13-2 19 6 5 14 6 19 1 16-14 39-26 58-28l0 95c-27 10-71 27-71 72 0 37 31 68 71 72l0 15c0 8 6 14 14 14 8 0 13-6 13-14l0-15c23-4 45-16 57-35 4-6 2-14-4-19-7-4-15-2-19 5-7 10-19 18-33 22l0-97c31-10 68-29 68-70 0-36-30-66-68-72l0-29c0-8-5-13-13-13-8 0-13 5-13 13z m26 27c23 5 41 24 41 45 0 18-12 31-41 42z m-26 212c-26-4-45-22-45-45 0-18 12-31 45-43z m13-362c-141 0-256 115-256 256 0 141 115 256 256 256 141 0 256-115 256-256 0-141-115-256-256-256z m0 485c-127 0-229-102-229-229 0-127 102-229 229-229 127 0 229 102 229 229 0 127-102 229-229 229z"/>
<glyph glyph-name="more-information" unicode="&#57384;" d="M230 102l64 0 0 180-64 0z m77 276c0 24-20 44-45 44-24 0-44-20-44-44 0-25 20-45 44-45 25 0 45 20 45 45z m205-122c0-142-114-256-256-256-142 0-256 114-256 256 0 142 114 256 256 256 142 0 256-114 256-256z"/>
<glyph glyph-name="my-account" unicode="&#57385;" d="M255 0c-140 0-255 114-255 255 0 141 115 253 255 253 139 0 254-114 254-255 0-140-113-253-254-253z m0 489c-130 0-236-105-236-234 0-130 105-236 236-236 129 0 235 105 235 236 0 130-106 234-235 234z m135-417c-32 12-83 33-92 57 0 2-1 3-1 4l0 22c0 2 1 5 3 6 14 14 24 32 29 54 0 3 1 4 4 5 5 4 9 10 10 18 1 6-1 13-5 18-1 1-3 4-3 6l0 50c0 49-28 75-82 75-51 0-79-27-79-75l0-47c0-3-1-4-1-5-5-7-7-13-5-21 1-6 5-12 10-16 1-2 2-3 4-5 6-22 16-40 29-54 1-1 3-4 3-7l0-21c0-2 0-2 0-3-5-17-14-25-94-61-5-3-10 0-12 5-3 5 0 10 5 13 62 28 78 39 83 48l0 16c-14 15-24 34-31 56-8 6-13 17-15 27-2 11 1 22 7 32l0 45c0 58 38 93 99 93 64 0 101-35 101-93l0-46c7-9 9-20 8-31-1-12-7-22-16-28-6-23-16-41-30-57l0-15c6-10 21-22 82-46 5-3 7-8 5-13-2-4-5-6-9-6-4 0-5 0-7 0z"/>
<glyph glyph-name="not-valid" unicode="&#57386;" d="M255 506c136 0 248-111 248-249 0-136-110-248-248-248-137 0-249 110-249 248 0 138 111 249 249 249z m0-476c125 0 228 103 228 228 0 126-103 228-228 228-126 0-228-102-228-228 0-126 102-228 228-228z m103 331c4-4 4-11 0-15l-89-89 89-89c4-3 4-11 0-14-2-3-4-4-7-4-2 0-5 1-7 4l-89 89-89-89c-3-3-5-4-8-4-2 0-4 1-7 4-3 3-3 11 0 14l89 89-89 89c-3 4-3 11 0 15 4 3 11 3 15 0l89-89 89 89c3 5 11 5 14 0z"/>
<glyph glyph-name="notifications" unicode="&#57387;" d="M484 156c0 2 0 2 0 3 0 0 0 1-2 1 0 0 0 2-1 2-23 25-77 94-73 202 3 74-39 110-75 129-49 26-108 24-156 0-36-17-79-55-76-129 4-108-48-177-71-201 0 0 0-1-2-1 0 0-1-2-1-2 0-1 0-1 0-2 0-2 0-2 0-2 0-1 0-1 0-1 0-1 0-1 0-3 0 0 1-1 1-1 0 0 0-1 2-1 60-50 142-75 223-75 82 0 163 25 224 75 0 0 1 1 1 1 0 0 2 1 2 1 0 0 0 2 0 3 0 0 0 1 0 1 4-1 4 0 4 0z m-430 2c27 32 74 102 70 207-3 50 19 86 63 109 43 22 95 22 138 0 44-23 66-59 63-109-4-105 42-175 70-207-113-85-292-85-404 0z m251-97c-6 0-11-6-11-11 0-15-18-28-38-28-20 0-38 12-38 28 0 5-5 11-11 11-5 0-10-6-10-11 0-27 27-50 59-50 32 0 59 22 59 50 0 5-5 11-10 11z"/>
<glyph glyph-name="one-deductible" unicode="&#57388;" d="M493 171c1 2 0 3-1 4l-88 57c-4 3-7 3-11 0l-89-57c-2-1-2-2-2-4 0 0 2-1 2-1 0 0 1 0 2 0l6 4c0 0 0 0 1 0l84 53 83-53c0 0 0 0 1 0l6-4c1 0 1 0 2 0 4 0 4 1 4 1z m-52-122l35 0 0 119-78 50-79-50 0-119 76 0 0 38c0 5 4 8 9 8l29 0c5 0 9-3 9-8l0-38z m-36 0l25 0 0 37-25 0z m30 186l0-10 13-8 0 18z m-425 91l0 30c1 12 3 29 4 38-4 1-12 4-12 12l0 7c0 6 5 12 12 12l21 0 8 31c2 12 12 24 27 24l87 0c16 0 25-12 28-25l8-31 19 0c6 0 12-5 12-12l0-7c0-8-6-11-11-12 1-10 4-25 5-38l0-49c0-8-7-17-17-17l-14 0c-8 0-17 7-17 17l0 13-113 0 0-13c0-8-7-17-17-17l-14 0c-8 0-16 7-16 17z m13 6l182 0 0 24c-1 17-5 38-6 42-1 2-1 3 0 6 1 2 2 3 5 3l3 0c1 0 4 0 5 1l0 4-18 0c-3-12-17-19-28-19l-102 0c-12 0-25 7-28 19l-19 0 0-5c1 0 3 0 4-1l4 0c2 0 4-1 5-4 1-2 1-3 0-5-1-4-4-24-6-42z m0-13l0-13c0-1 1-2 3-2l14 0c3 0 4 1 4 3l0 13-21 0z m160 0l0-13c0-2 2-4 4-4l15 0c2 0 4 2 4 4l0 13z m315-136c6-3 7-10 3-16-1-3-4-5-7-6-1 0-2 0-2 0-1 0-4 0-5 1l0-112 8 0c3 0 5-2 5-5 0-2-2-5-5-5l-194 0c-2 0-5 3-5 5 0 3 3 5 5 5l9 0 0 112c-2-1-4-1-5-1-1 0-3 0-3 0-3 1-6 2-7 6-3 6-2 13 4 16l89 58c6 4 16 4 22 0l15-11 0 5c0 4 4 9 10 9l14 0c5 0 9-3 9-9l0-25z m-115-28l-41 0c-4 0-7-4-7-7l0-23c0-4 3-7 7-7l41 0c4 0 8 3 8 7l0 23c0 3-4 7-8 7z m-16-29l0 20 15 0 0-20z m-23 0l0 20 16 0 0-20z m16 157l-100 100 98 99 3-52c126-17 121-126 121-128l-1-15-11 11c-54 58-100 47-112 43l0-58z m-83 100l69-69 0 35 4 2c2 1 55 29 119-31-3 29-24 88-115 99l-6 0-2 33z m-122-331l-3 53c-127 16-122 126-122 127l1 16 11-11c53-58 100-46 112-43l0 57 100-100z m-111 164c4-29 24-89 116-99l6 0 1-34 69 69-69 67 0-34-4-3c-2 0-55-26-119 34z m2 202c2-6 10-12 18-12l100 0c9 0 17 6 18 12l-9 34c-2 8-6 15-15 15l-88 0c-8 0-13-7-14-15z m91-62l-47 0c-3 0-5 2-5 6 0 4 2 6 5 6l47 0c4 0 6-2 6-6 0-2-2-6-6-6z m0-14l-47 0c-3 0-5 2-5 6 0 3 2 6 5 6l47 0c4 0 6-3 6-6 0-4-2-6-6-6z m-79-5c-12 0-20 9-20 20 0 12 10 20 20 20 11 0 21-9 21-20 1-11-9-20-21-20z m0 29c-4 0-8-4-8-9 0-5 4-8 8-8 5 0 9 3 9 8 0 5-4 9-9 9z m111-29c-12 0-20 9-20 20 0 12 9 20 20 20 11 0 22-8 22-19 0-12-10-21-22-21z m0 29c-5 0-8-4-8-9 0-5 3-8 8-8 5 0 8 3 8 8 0 5-3 9-8 9z m-43 79l-24 0c-3 0-7 4-7 7 0 4 4 6 7 6l24 0c4 0 6-2 6-6 0-3-2-7-6-7z"/>
<glyph glyph-name="plus" unicode="&#57389;" d="M273 273l0 214c0 10-7 18-17 18-10 1-19-8-19-18l0-215-213 0c-10 0-18-7-18-17 0-10 8-18 18-18l213 0 0-215c0-10 8-17 18-17 10 0 17 7 17 17l0 215 215 0c10 0 18 8 18 18 0 10-8 17-18 17l-214 0z"/>
<glyph glyph-name="policy" unicode="&#57390;" d="M387 512c34 0 61-27 61-61l0-390c0-34-27-61-61-61l-262 0c-34 0-61 27-61 61l0 390c0 34 27 61 61 61z m40-451l0 390c0 21-19 40-40 40l-262 0c-21 0-40-19-40-40l0-390c0-21 19-40 40-40l262 0c21 0 40 19 40 40z m-266 323c-6 0-10 4-10 11 0 7 4 12 11 12l191 0c5 0 11-5 11-12 0-7-7-11-13-11z m0-64c-6 0-12 4-12 11 0 6 5 12 12 12l190 0c6 0 12-5 12-12 0-5-5-11-12-11z m0-64c-6 0-12 4-12 11 0 6 5 12 12 12l190 0c6 0 12-5 12-12 0-5-5-11-12-11z m158-53c0-5-5-11-12-11l-146 0c-6 0-12 4-12 11 0 6 5 12 12 12l148 0c5-2 10-6 10-12z m22-59c20 0 37-17 37-37 0-20-17-37-37-37-20 0-37 17-37 37 0 20 17 37 37 37z m0-53c9 0 16 7 16 16 0 8-7 15-16 15-8 0-15-7-15-15 0-9 7-16 15-16z"/>
<glyph glyph-name="present-benefits" unicode="&#57391;" d="M303 229l0-13 162 0c8 0 13-6 13-14l0-189c0-8-5-13-13-13l-418 0c-8 0-13 5-13 13l0 189c0 8 5 14 13 14l162 0 0 13-162 0c-8 0-13 4-13 8l0 115c0 4 5 8 13 8l148 0c-39 20-89 52-94 87-1 14 1 33 24 52 22 17 41 14 53 10 32-12 55-59 69-98 10 32 28 73 56 85 11 4 27 7 47-7 19-12 22-27 21-38-3-37-65-74-99-90l193 0c8 0 13-4 13-8l0-115c0-4-5-8-13-8l-162 0z m-94-40l-148 0 0-162 148 0z m94 0l0-162 148 0 0 162z m-94 148l-148 0 0-84 148 0z m94 0l0-84 148 0 0 84z m-141 148c-4 0-11-1-19-8-16-12-15-22-15-26 4-27 58-59 102-79-12 46-35 102-60 112-3 1-6 1-8 1z m157-13c-2 0-5 0-6-2-19-8-35-47-45-82 35 19 73 46 76 65 0 1 0 6-9 13-6 4-12 6-16 6z m-83-445l40 0 0 310-40 0z"/>
<glyph glyph-name="print" unicode="&#57392;" d="M182 64c-7 0-10 5-10 10 0 5 5 10 10 10l147 0c6 0 10-5 10-10 0-5-4-10-10-10z m0 44c-7 0-10 5-10 10 0 6 5 10 10 10l147 0c6 0 10-5 10-10 0-7-5-10-10-10z m276 341c30 0 54-24 54-53l0-148c0-29-24-53-54-53l-404 0c-30-2-54 23-54 52l0 147c0 30 24 54 54 54l74 0 0 42c0 12 10 22 22 22l167 0c6 0 12-3 16-6l46-58 79 0z m32-202l0 147c0 18-14 32-32 32l-74 0 0-75c0-7-5-11-10-11l-234 0c-7 0-11 6-11 11l0 77-75 0c-18 0-32-15-32-32l0-148c0-18 14-32 32-32l406 0c16-1 30 13 30 31z m-174 245l-166-2 0-128 214 0 0 72z m58-323c6 0 10-5 10-10l0-137c0-12-9-22-20-22l-214 0c-12 0-21 10-21 22l0 137c0 6 5 10 11 10 6 0 10-5 10-10l0-137 214 0 0 137c0 6 3 10 10 10z m56 106c4 4 12 4 15 0 2-2 3-5 3-7 0-3-1-6-3-8-2-3-5-4-7-4-3 0-5 1-8 4-2 1-2 5-2 8-2 2 0 5 2 7z"/>
<glyph glyph-name="questions" unicode="&#57393;" d="M247 408c-35 0-69-18-87-43-3-4-3-10 4-16 4-2 10-2 15 3 13 22 40 35 68 35 44 0 78-31 78-68 0-28-24-50-72-68-10-4-19-15-19-26l0-47c0-6 4-10 10-10 7 0 11 4 11 10l0 47c0 3 2 4 4 7 58 19 87 50 87 88 1 49-44 88-99 88z m-1-276c-7 0-10-4-10-10l0-9c0-7 3-11 10-11 6 0 10 4 10 11l0 9c0 6-4 10-10 10z m10 380c-141 0-256-115-256-256 0-141 115-256 256-256 141 0 256 115 256 256 0 141-115 256-256 256z m0-490c-131 0-234 106-234 234 0 128 103 234 234 234 131 0 234-103 234-234 0-128-103-234-234-234z"/>
<glyph glyph-name="rate-protection" unicode="&#57394;" d="M335 176l0 16c0 18 15 33 33 33 19 0 34-15 34-33l0-16 3 0c11 0 21-10 21-21l-5-58c0-11-10-20-21-20l-63 0c-11 0-21 10-21 22l-5 55c0 12 10 22 21 22z m17 0l31 0 0 16c0 8-7 14-15 14-8 0-15-6-15-14l0-16z m19 110l0 61-342 0 0-192 197 0c0 11 3 21 5 31l-12 0c-5 0-9 4-9 9 0 5 4 9 9 9l12 0c3 0 4 0 5-2 10 24 26 44 47 59-1 0-1 0-2 0l-13 0c-5 0-8 4-8 9 0 5 3 8 8 8l13 0c5 0 9-3 9-8 0-3-2-4-3-7 8 5 15 9 24 13 1 1 4 2 6 2l1 0c14 5 29 8 45 8 3 1 5 1 8 0z m-145-149l-207 0c-5 0-9 4-9 9l0 261c0 5 4 9 9 9l100 0 55 54c-3 3-4 8-4 12 0 16 12 29 29 29 16 0 28-13 28-29 0-4-1-7-2-11l53-56 100 0c5 0 9-4 9-9l0-123c65-12 114-68 114-136 0-76-63-138-139-138-71 1-131 57-136 128z m145 229l0 31-93 0c-1 0-1 0-2 0-1 0-1 0-3 0l-149 0c-2 0-2 0-3 0-1 0-1 0-2 0l-90 0 0-31z m-184 91l-41-41 109 0-40 42c-4-2-9-3-15-3-5 0-9 0-13 2z m13 36c-6 0-10-5-10-10 0-6 5-10 10-10 6 0 10 5 10 10 0 5-4 10-10 10z m-118-195l-12 0c-5 0-9 4-9 9 0 5 4 9 9 9l12 0c5 0 9-4 9-9 0-5-4-9-9-9z m0-37l-12 0c-5 0-9 4-9 9 0 5 4 8 9 8l12 0c5 0 9-3 9-8 0-5-4-9-9-9z m0-37l-12 0c-5 0-9 3-9 8 0 5 4 9 9 9l12 0c5 0 9-4 9-9 0-5-4-8-9-8z m0-38l-12 0c-5 0-9 4-9 9 0 5 4 9 9 9l12 0c5 0 9-4 9-9 0-5-4-9-9-9z m50 112l-12 0c-5 0-9 4-9 9 0 5 4 9 9 9l12 0c5 0 9-4 9-9 0-5-4-9-9-9z m0-37l-12 0c-5 0-9 4-9 9 0 5 4 8 9 8l12 0c5 0 9-3 9-8 0-5-4-9-9-9z m0-37l-12 0c-5 0-9 3-9 8 0 5 4 9 9 9l12 0c5 0 9-4 9-9 0-5-4-8-9-8z m0-38l-12 0c-5 0-9 4-9 9 0 5 4 9 9 9l12 0c5 0 9-4 9-9 0-5-4-9-9-9z m50 112l-12 0c-5 0-9 4-9 9 0 5 4 9 9 9l12 0c5 0 9-4 9-9 0-5-4-9-9-9z m0-37l-12 0c-5 0-9 4-9 9 0 5 4 8 9 8l12 0c5 0 9-3 9-8 0-5-4-9-9-9z m0-37l-12 0c-5 0-9 3-9 8 0 5 4 9 9 9l12 0c5 0 9-4 9-9 0-5-4-8-9-8z m0-38l-12 0c-5 0-9 4-9 9 0 5 4 9 9 9l12 0c5 0 9-4 9-9 0-5-4-9-9-9z m49 112l-12 0c-5 0-9 4-9 9 0 5 4 9 9 9l12 0c5 0 9-4 9-9 1-5-4-9-9-9z m0-37l-12 0c-5 0-9 4-9 9 0 5 4 8 9 8l12 0c5 0 9-3 9-8 1-5-4-9-9-9z m0-37l-12 0c-5 0-9 3-9 8 0 5 4 9 9 9l12 0c5 0 9-4 9-9 1-5-4-8-9-8z m50 74l-13 0c-5 0-8 4-8 9 0 5 3 9 8 9l13 0c5 0 9-4 9-9 1-5-4-9-9-9z m50 0l-13 0c-5 0-8 4-8 9 0 5 3 9 8 9l13 0c5 0 9-4 9-9 0-5-4-9-9-9z m155-149c0 67-55 121-121 121-68 0-121-55-121-121 0-67 54-122 121-122 66-1 121 54 121 122z m-155 10c-1 0-3-2-3-3l5-55c0-2 2-4 3-4l62 0c2 0 3 2 3 3l5 57c0 2-1 3-3 3l-72 0z m44-59l-13 0c-5 0-9 4-9 7l-2 19c0 0 0 1 0 1 0 10 7 18 17 18 10 0 18-8 18-18 0 0 0-1 0-1l-3-19c-1-3-5-7-8-7z"/>
<glyph glyph-name="recovery-care" unicode="&#57395;" d="M180 279l-6 20-22-9-7-21z m4-16l-46-13-6-16 59 0z m10 3l8-27 26-1-1-4 7 0c2-1 2-2 2-4l-1-3c0-3-1-4-3-4-3 0-4-4-4-5l-13-47c-2-5-7-6-11-8l-80 0c-5 0-9 3-12 8l-13 47c0 1-1 5-4 5-2 0-4 1-4 4l0 6c0 2 2 2 4 2l28 0 5 15-1 0c-3 0-5 1-8 2l2-8-17 0-5 55 23-28c1-3 4-4 6-5l6 1 6 18-41 61c-3 6-6 10-12 12-7 3-13 3-18 0-8-3-14-12-14-22l0-90c0-13 0-22 0-24l0-1c0-2 0-3 1-4 1-2 1-4 3-5l47-75 18-59c3-7 11-12 19-10 3 1 6 4 8 8 1 3 3 7 1 11l-17 59 17 0 17-55c3-7 2-15-2-23-4-7-10-12-18-14-4-2-6-2-10-2-12 0-24 9-29 21l-19 57-45 72c-1 3-3 5-5 9-1 2-2 5-2 7 0 1-1 6-1 28l0 90c0 16 10 32 25 37 11 5 22 5 32 0 10-4 16-12 21-21l33-47 47 18 3 0c6-1 12-5 17-8l180-66 20 37 3 19c3 14 13 17 19 17l6 0 2-6c3 1 4 1 6 1l6 0 9-27 33-12 5-2c6-4 8-11 6-18l-3-6c-6-16-12-24-28-24l-18 0-5-23-11-48 40-101-11-1c-2 0-4 0-6 0-25 0-33 14-37 33l-4 5 0-38-15 0c-8 0-14 2-19 7-9 9-10 22-10 36l0 32-55 20c-1-4-4-6-5-10l23-85-9-1c-26-3-36 8-42 23l0-23-16 1c-20 0-30 11-30 38l0 33 6 1c2 0 5 2 6 8l0 61c-10 4-23 11-23 30 0 20 16 34 38 34l19 3-75 27c0-1 0-2-2-4-2-9-12-15-25-20z m-5 16c12 4 15 7 16 11 1 2 1 6-1 7-2 2-4 4-7 5l-14-5z m221-43l33-12 3 17 33 0c5 0 7 0 12 14l1 4-41 14-4 9-3-18-11 28-4-17z m-110 24l0-8c0-11-3-20-6-25l92 0 0 2z m-33-150l0-22c0-18 4-20 11-20l0 25c0 9 4 17 8 23l10 13 10-38c4-15 7-21 17-22l-19 72 2 4c4 4 6 9 9 15l1 3 3 6 80-28 0-45c0-9 0-20 5-23 0 0 2-3 6-3l0 73 35-50 0-1c4-15 6-21 15-22l-33 82 12 52-38 14-4-8-118 0c-1 0-2 0-2 0-4 0-9 0-14 4-1 1-3 5-3 9 0 3 1 7 3 9 4 4 9 4 14 4l1 0c1 0 4 0 5 5l-5 0c-7 0-22-1-22-18 0-8 2-11 17-16l6-2 0-75c-2-11-7-17-12-20z m-168 264c-22 0-40 18-40 40 0 22 18 40 40 40 22 0 40-18 40-40 0-22-18-40-40-40z m0 63c-14 0-25-11-25-24 0-14 11-25 25-25 13 0 24 11 24 25 0 13-11 24-24 24z m-69-380c-3 0-6 0-9 1-16 5-26 22-21 39l33 106 10-16c9-17 20-33 31-47l3-4-16-57c-5-14-17-22-31-22z m-13 35c-2-7 3-16 10-18 7-3 16 1 18 10l16 48c-7 10-13 20-21 31z m118 77c3 0 4 2 3 4l-8 43c0 2-2 4-3 4l-14 0c0 0 0 0-1 0-1 0-2-1-1-4l11-43c0-2 2-4 4-4z m20 0c2 0 3 1 3 4l0 43c0 2-1 4-3 4l-7 0c-2 0-3-1-3-4l3-43c0-2 1-4 3-4z m24 2l4 45c0 2-1 3-3 3l-7 0c-1 0-4-1-4-4l-1-36c0 0 0-8 0-8 0-1 1-3 4-3l4 0c2 1 3 2 3 3z m38 45c0-1 1 0 0 0 0 3-1 4-2 4l-15 0c-1 0-4-1-4-4l-7-45c0-1 1-2 2-2l4 0c2 0 9 0 9 1z"/>
<glyph glyph-name="renters" unicode="&#57396;" d="M496 377c6 0 10-5 10-10l0-346c0-6-5-10-10-10l-470 0c-6 0-10 5-10 10l0 387c0 7 5 10 10 10l133 0 0 72c0 6 5 10 10 10l183 0c6 0 10-5 10-10l0-113z m-133-346l123 0 0 326-123 0z m-183 377l0-377 41 0 0 51c0 7 5 10 10 10l61 0c6 0 10-5 10-10l0-51 41 0 0 449-163 0z m-143-377l123 0 0 367-123 0z m187 119c3 4 10 4 13 0 3-3 3-5 3-8 0-2-1-5-3-7-2-3-5-3-7-3-3 0-5 2-8 3-2 2-2 5-2 7 1 4 1 7 4 8z m7 24c-2 0-5 1-7 2-3 3-3 5-3 8 0 2 1 5 3 7 3 4 11 4 15 0 2-2 2-5 2-7 0-3-1-5-2-8-3-1-5-2-8-2z m0 41c-2 0-5 1-7 2-2 2-3 5-3 8 0 2 1 5 3 7 3 4 10 4 13 0 3-2 3-5 3-7 0-3-1-5-3-8-1-1-3-2-6-2z m0 40c-2 0-5 1-7 2-2 1-3 5-3 8 0 2 1 5 3 7 3 4 10 4 13 0 3-2 3-5 3-7 0-3-1-5-3-8-1-1-3-2-6-2z m0 41c-2 0-5 1-7 2-2 2-3 5-3 8 0 2 1 5 3 7 3 4 10 4 15 0 2-2 2-5 2-7 0-3-1-5-2-8-3-1-5-2-8-2z m0 41c-2 0-5 1-7 3-2 1-3 5-3 7 0 3 1 5 3 8 3 3 11 3 15 0 1-2 2-5 2-8 0-2-1-5-2-7-3-2-5-3-8-3z m0 40c-2 0-5 1-7 3-2 2-3 5-3 7 0 3 1 5 3 8 3 3 10 3 13 0 3-2 4-5 4-8 0-2-1-5-2-7-3-2-5-3-8-3z m0 41c-2 0-5 2-7 3-2 2-3 5-3 7 0 3 1 5 3 8 3 4 10 4 13 0 3-3 4-5 4-8 0-2-1-5-2-7-3-1-5-3-8-3z m61-286c-2 0-5 2-7 3-2 2-3 5-3 7 0 3 1 5 3 8 3 4 11 4 15 0 1-3 2-5 2-8 0-2-1-5-2-7-3-1-5-3-8-3z m0 42c-2 0-5 1-7 2-3 3-3 5-3 8 0 2 1 5 3 7 3 4 11 4 15 0 1-2 2-5 2-7 0-3-1-5-2-8-3-1-5-2-8-2z m0 41c-2 0-5 1-7 2-3 3-4 5-4 8 0 2 1 5 2 7 4 4 10 4 15 0 2-2 3-5 3-7 0-3-1-5-3-8-1-1-3-2-6-2z m-7 57c3 4 10 4 13 0 3-2 3-5 3-7 0-3-1-5-3-8-2-2-5-3-7-3-3 0-5 1-8 2-1 1-2 5-2 7 1 5 1 8 4 9z m7 24c-2 0-5 1-7 2-2 3-3 5-3 8 0 2 1 5 3 7 5 4 11 4 15 0 1-2 2-5 2-7 0-3-1-5-2-8-3-1-5-2-8-2z m0 41c-2 0-5 1-7 3-2 1-3 5-3 7 0 3 1 5 3 8 3 3 10 3 15 0 1-3 2-5 2-8 0-2-1-5-2-7-3-2-5-3-8-3z m0 40c-2 0-5 1-7 3-2 2-3 5-3 7 0 3 1 5 3 8 3 3 10 3 15 0 1-2 2-5 2-8 0-2-1-5-2-7-3-2-5-3-8-3z m0 41c-2 0-5 2-7 3-2 2-3 5-3 7 0 3 1 5 3 8 3 4 10 4 15 0 1-1 2-5 2-8 0-2-1-5-2-7-3-1-5-3-8-3z m-51-387l40 0 0 41-41 0 0-41z m-120 326c6 0 10-5 10-10 0-5-5-10-10-10l-44 0c-6 0-10 5-10 10 0 5 5 10 10 10z m0-41c6 0 10-5 10-10 0-6-5-10-10-10l-44 0c-6 0-10 5-10 10 0 6 5 10 10 10z m0-40c6 0 10-5 10-10 0-6-5-10-10-10l-44 0c-6 0-10 5-10 10 0 6 5 10 10 10z m0-41c6 0 10-5 10-10 0-6-5-10-10-10l-44 0c-6 0-10 5-10 10 0 6 5 10 10 10z m0-41c6 0 10-5 10-10 0-7-5-10-10-10l-44 0c-6 0-10 5-10 10 0 6 5 10 10 10z m0-40c6 0 10-5 10-10 0-7-5-10-10-10l-44 0c-6 0-10 5-10 10 0 6 5 10 10 10z m0-42c6 0 10-5 10-10 0-6-5-10-10-10l-44 0c-6 0-10 5-10 10 0 7 5 10 10 10z m282 184c-6 0-10 5-10 10 0 6 5 10 10 10l44 0c6 0 10-5 10-10 0-6-5-10-10-10z m0-41c-6 0-10 5-10 10 0 6 5 10 10 10l44 0c6 0 10-5 10-10 0-7-5-10-10-10z m0-40c-6 0-10 5-10 10 0 6 5 10 10 10l44 0c6 0 10-5 10-10 0-6-5-10-10-10z m0-41c-6 0-10 5-10 10 0 6 5 10 10 10l44 0c6 0 10-5 10-10 0-7-5-10-10-10z m0-42c-6 0-10 5-10 10 0 7 5 10 10 10l44 0c6 0 10-5 10-10 0-6-5-10-10-10z m0-40c-6 0-10 5-10 10 0 7 5 10 10 10l44 0c6 0 10-5 10-10 0-6-5-10-10-10z"/>
<glyph glyph-name="replacement-keys" unicode="&#57397;" d="M61 335l80 0 0 177-80 0z m318-75l0-30c31-3 54-29 54-61 0-23-12-43-33-53l0-89-26-27-33 0 0 116c-19 11-33 32-33 53 0 32 24 58 54 61l0 20c-4-1-8-3-15-3-24 0-41 14-57 27-4 3-7 6-11 9-5 3-16 7-27 10-14 3-30 8-41 18-1 1-4 2-6 5-11 8-31 20-39 36-5 2-8 8-20 8l-7 0 0 141 91 0c27 0 83-17 130-32 3-1 7-2 8-2 18-6 75-73 78-81 5-7 3-26-10-76-1-4-1-8-2-10-1-4-1-9-2-14-3-17-7-39-30-39-6 0-12 3-17 9-1 1-3 4-5 6 0 0-1-1-1-2z m-16-44c-22-4-39-23-39-45 0-19 11-36 28-43l5-2 0-110 11 0 17 17 0 93 5 2c17 7 28 24 28 43 0 23-17 41-39 45l0-36-16 0z m-286 134l0 146 50 0 0-146z m146-317l-34 0-23 23 81 82c-6 22-1 45 16 61 13 12 27 18 44 18l0-16c-12 0-24-5-33-13-13-14-17-33-9-50l2-5-78-78 7-7 22 0 66 65 5-2c12-5 26-5 38 0l6-15c-14-6-29-6-44-2z m101 356c-5 0-12-1-13-10-1-7 2-17 6-24 6-12 18-19 30-25 3-1 5-2 7-3 6-3 9-6 13-9 1 11 5 21 7 29 0 2 0 2 1 3-1 1-1 1-2 2-24 23-39 36-45 37-1 0-3 0-4 0z m61-100c3-11 8-18 12-22 3-2 5-4 7-4 8 0 10 6 14 27 1 5 1 10 3 15 0 2 1 6 2 10 4 14 15 57 11 65-6 10-59 70-70 73-2 0-4 2-8 3-27 7-98 30-126 30l-89 0 0-114c16-1 32-4 33-4l5 0 1-4c7-13 26-26 36-34 3-2 6-3 7-5 9-7 23-10 37-14 12-4 24-7 31-12 4-3 8-6 11-9 16-12 28-23 47-23 7 0 15 1 20 7 4 4 4 10 3 14 0 1 0 1 0 2-3 10-6 18-25 27-2 1-3 2-6 4-13 6-29 14-37 31-5 10-9 22-8 33 4 17 20 23 34 22 11-1 28-17 54-40 2-3 5-5 6-6l4-4-4-7c0-3-1-5-2-7-3-8-6-19-6-27 0-10 1-19 2-26 1 0 1 0 1-1z"/>
<glyph glyph-name="save" unicode="&#57398;" d="M166 215l180 0c6 0 11 5 11 11 0 6-5 10-11 10l-180 0c-6 0-11-4-11-10 0-6 5-11 11-11z m0-61l180 0c6 0 11 4 11 10 0 6-5 11-11 11l-180 0c-6 0-11-5-11-11 0-6 5-10 11-10z m0-62l180 0c6 0 11 4 11 10 0 6-5 11-11 11l-180 0c-6 0-11-5-11-11 0-6 5-10 11-10z m334 318l-90 90c-2 1-5 3-8 3l-382 0c-6 0-11-5-11-11l0-474c0-6 5-10 11-10l472 0c6 0 11 4 11 10l0 384c0 3-2 6-3 8z m-327 72l166 0 0-122-166 0z m228-452l-290 0 0 247 290 0z m81 0l-60 0 0 258c0 6-5 10-11 10l-310 0c-6 0-11-4-11-10l0-258-60 0 0 452 124 0 0-133c0-6 4-10 10-10l187 0c6 0 10 4 10 10l0 133 40 0 81-83z"/>
<glyph glyph-name="save-or-view-pdf" unicode="&#57399;" d="M373 61c-5 0-10-5-10-11l0-23c0-4-2-6-6-6l-308 0c-4 0-6 2-6 6l0 448c0 4 2 7 6 7l236 0 0-74c0-6 4-11 10-11l68 0 0-72c0-6 4-10 10-10 5 0 10 4 10 10l0 85c0 8-4 13-8 17l-63 69c-5 5-11 7-17 7l-246 0c-14 0-25-12-25-26l0-449c0-16 11-28 25-28l308 0c14 0 25 12 25 27l0 23c1 6-4 11-9 11z m-19 358l-50 0 0 55z m93-125l-243 0c-16 0-30-15-30-33l0-146c0-19 14-33 30-33l243 0c16 0 30 14 30 33l0 146c0 18-14 33-30 33z m11-179c0-7-5-11-11-11l-243 0c-7 0-11 4-11 11l0 146c0 6 4 11 11 11l243 0c6 0 11-5 11-11z m-45 114l-35 0c-5 0-10-5-10-11l0-60c0-6 4-10 10-10 6 0 10 4 10 10l0 20 20 0c5 0 10 5 10 11 0 6-4 11-10 11l-20 0 0 8 25 0c5 0 10 5 10 11 0 7-5 10-10 10z m-90 0l-18 0c-5 0-10-5-10-11l0-60c0-6 4-10 10-10l18 0c0 0 1 0 1 0 19 1 33 18 33 40 0 23-14 41-34 41z m0-60c0 0-1 0-1 0l-7 0 0 39 8 0c9 0 16-8 16-19 0-11-7-20-16-20z m-62 60l-21 0c-5 0-10-5-10-11l0-60c0-6 4-10 10-10 5 0 10 4 10 10l0 18 11 0c11 0 27 7 27 28 0 7-3 13-6 18-8 7-20 7-21 7z m0-33l-11 0 0 11 11 0c1 0 5 0 7-2 0 0 1-1 1-3 0-5-4-6-8-6z"/>
<glyph glyph-name="search" unicode="&#57400;" d="M486 26c-6-5-16-5-21 0l-130 130c8 7 14 13 21 21l130-130c2-2 4-6 4-10 0-4-2-8-4-11m-458 281c0 97 80 177 177 177 97 0 177-80 177-177 0-97-80-177-177-177-97 0-177 79-177 177m472-244l-131 131c22 32 35 71 35 112 0 109-89 198-198 198-110 1-199-88-199-197 0-109 89-198 198-198 42 0 80 13 111 35l132-131c6-6 17-10 26-10 9 0 18 4 26 10 7 7 11 16 11 26 0 8-3 17-11 24"/>
<glyph glyph-name="secure" unicode="&#57401;" d="M394 326l-30 0 0 85c0 55-49 101-108 101-59 0-106-46-106-101l0-85-31 0c-31 0-56-25-56-56l20-210c0-31 26-56 57-56l234 0c30 0 56 25 56 55l21 211c0 32-25 56-57 56z m-224 85c0 43 40 79 86 79 46 0 86-36 86-79l0-85-172 0z m238-351c0-19-15-34-34-34l-234 0c-20 0-35 15-35 35l-21 209c0 19 16 35 35 35l275 0c19 0 35-16 35-34z m-152 158c-24 0-44-20-44-44l9-74c2-5 6-9 11-9l47 0c5 0 10 4 10 9l9 75c3 23-18 43-42 43z m15-107l-29 0-8 64c0 12 10 22 22 22 13 0 22-9 22-19z"/>
<glyph glyph-name="settings" unicode="&#57402;" d="M510 291c3-24 3-45 0-69-2-5-5-8-9-8l-59-8c-4-14-10-27-17-40l36-46c2-4 2-9 0-13-14-18-31-35-50-48-4-3-9-3-13 0l-46 35c-12-8-26-13-41-17l-8-57c-1-5-5-9-8-9-13-1-24-2-35-2-11 0-23 1-35 2-5 1-9 5-9 9l-7 57c-14 4-28 10-42 17l-46-35c-4-3-9-3-12 0-19 13-35 30-50 48-3 4-3 9 0 13l36 46c-8 13-13 26-18 40l-58 8c-5 0-9 3-9 8-4 23-4 46 0 69 1 5 5 9 9 9l58 7c4 14 10 28 18 40l-38 46c-2 4-2 9 0 13 14 19 32 35 50 49 4 2 9 2 13 0l46-35c13 7 26 12 41 16l8 57c1 5 5 9 9 9 23 4 46 4 69 0 5-1 9-5 9-9l8-57c13-4 27-10 41-16l47 36c4 2 9 2 13 0 19-14 35-30 50-49 2-4 2-9 0-12l-36-48c7-12 12-26 17-40l59-7c4-2 7-5 9-9z m-20-59c1 17 1 31 0 48l-58 7c-5 0-7 4-9 8-3 16-11 32-20 47-2 4-2 9 2 13l35 45c-10 12-22 23-34 33l-46-35c-4-2-9-2-13-1-15 9-31 16-49 20-3 1-7 5-8 9l-8 56c-16 1-31 1-47 0l-8-56c0-5-3-8-8-9-18-4-34-11-49-20-4-2-9-2-13 0l-43 36c-13-10-24-21-34-33l35-45c2-4 2-9 1-13-9-15-16-31-20-47-1-4-5-8-9-8l-57-7c-1-17-1-31 0-48l57-7c5 0 8-4 9-8 4-17 11-32 20-47 3-4 3-9-1-13l-35-45c10-12 21-23 34-33l46 35c4 2 9 2 12 1 15-9 32-16 49-20 4-1 8-5 9-9l7-56c17-1 31-1 48 0l7 56c0 5 4 8 9 9 17 4 34 11 49 20 3 2 8 2 12 0l46-35c13 10 24 21 34 34l-35 45c-2 3-2 8-1 12 9 15 16 31 20 48 1 3 5 7 9 7z m-230 123c55 0 100-45 100-99 0-55-45-99-100-99-55 0-100 45-100 99-1 55 44 99 100 99z m0-176c43 0 78 35 78 77 0 42-35 77-78 77-44 0-79-35-79-77-1-42 35-77 79-77z"/>
<glyph glyph-name="shopping-kart" unicode="&#57404;" d="M140 197c-2-5-6-14-8-24l303 0c8 0 14-7 14-14 0-8-6-14-14-14l-303 0c-9 0-17 3-23 10-7 6-8 15-7 24l0 1 11 31-39 176 0 1c0 0 0 0-1 1-3 3-4 8-3 12l9 48c0 0-1 0-2 0l-63 0c-8 0-14 7-14 16 0 7 6 14 14 14l63 0c15 0 28-11 32-26 0-1 0-4 0-6l-7-35 375 0 6 23c2 8 10 13 17 10 8-2 13-10 11-17l-43-159c-5-19-21-33-40-36z m0 30l284 35c7 2 14 7 16 14l30 107-365 0z m8-196c-25 0-46 20-46 46 0 25 21 46 48 46 25 0 47-21 47-46-1-26-22-46-49-46z m0 64c-10 0-17-8-17-18 0-10 7-18 17-18 11 0 18 8 18 18 0 10-7 18-18 18z m254-64c-26 0-47 20-47 46 0 25 20 46 47 46 27 0 47-21 47-46 0-26-20-46-47-46z m0 64c-10 0-18-8-18-18 0-10 8-18 18-18 10 0 18 8 18 18 0 10-8 18-18 18z"/>
<glyph glyph-name="star" unicode="&#57405;" d="M232 492c4 11 13 18 24 18 11 0 20-8 24-18l50-150 151-4c11 0 20-7 24-18 3-12 0-23-9-29l-121-96 43-151c3-8 2-17-3-24-5-6-13-11-20-11-5 0-10 1-14 5l-125 91-125-91c-4-3-9-5-14-5-7 0-15 3-20 11-5 6-6 15-3 24l43 151-121 96c-9 6-12 19-9 29 4 11 13 17 24 18l153 4z m-118-458c1-2 2-2 3-2 2 0 2 0 3 2l131 95c4 2 9 2 12 0l130-95c2 0 2-2 3-2 1 0 2 2 4 2 1 1 1 2 0 3l-47 159c-1 5 0 9 4 13l128 99c1 2 1 4 1 5 0 2-1 3-4 3l-160 4c-5 0-9 2-10 7l-52 158c-2 2-3 2-4 2-1 0-2 0-4-2l-52-158c-1-4-5-7-10-7l-159-4c-2 0-4-1-4-3 0-1 0-2 2-5l127-99c4-3 5-8 4-13l-46-159c0-1 0-2 0-3z"/>
<glyph glyph-name="update" unicode="&#57406;" d="M206 18c0-6 4-12 10-14 3-1 4-1 7-1 4 0 7 1 11 5l90 89 119 0c6 0 13 4 14 11 3 6 1 12-4 16l-220 220c-5 4-12 7-17 4-6-2-10-8-10-14z m32 276l166-166-88 0c-4 0-8-1-11-5l-68-68 0 239z m63 39c0 9 6 15 15 15l63 0c9 0 15-6 15-15 0-9-6-16-15-16l-63 0c-9 0-15 7-15 16z m-252 0c0 9 6 15 15 15l63 0c9 0 15-6 15-15 0-9-6-16-15-16l-62 0c-9 0-16 7-16 16z m174 78c-9 0-16 6-16 15l0 64c0 9 7 16 16 16 9 0 15-7 15-16l0-62c0-9-8-17-15-17z m98 43c7 7 17 7 22 0 5-6 6-16 0-21l-47-49c-3-3-8-5-12-5-4 0-8 1-11 5-7 6-7 17 0 22z m-173-174c7 7 17 7 22 0 7-6 7-16 0-21l-47-48c-3-2-8-5-12-5-3 0-7 1-11 5-7 7-7 17 0 22z m22 127c7-6 7-17 0-22-2-2-7-5-11-5-4 0-8 1-12 5l-46 46c-6 7-6 17 0 23 7 7 17 7 22 0z"/>
<glyph glyph-name="view" unicode="&#57407;" d="M511 262c1-2 1-6 0-10-53-106-150-171-255-171-105 0-202 65-255 172-1 3-1 7 0 9 53 107 150 173 255 173 105 0 202-66 255-173z m-255-160c95 0 183 59 233 155-50 96-138 156-233 156-95 0-183-60-233-156 50-94 138-155 233-155z m0 268c60 0 109-50 109-111 0-62-49-112-109-112-60 0-109 50-109 112 0 61 49 111 109 111z m0-201c47 0 87 40 87 90 0 49-38 89-87 89-49 0-87-40-87-89 0-50 40-90 87-90z m0 141c28 0 51-23 51-53 0-29-23-52-51-52-28 0-51 23-51 52 0 30 23 53 51 53z m0-82c17 0 29 14 29 31 0 16-12 30-29 30-17 0-29-14-29-30 0-18 12-31 29-31z"/>
<glyph glyph-name="view-hidden" unicode="&#57408;" d="M497 497c3-4 3-11 0-16l-470-469c-3-3-5-3-8-3-2 0-5 1-7 3-4 3-4 10 0 15l469 470c4 3 12 3 16 0z m-199-164c-2-5-9-8-14-5-31 12-63 5-87-18-23-23-29-57-18-87 3-5 0-12-6-14-1 0-3-2-4-2-4 0-8 3-10 7-16 38-7 80 21 109 30 29 71 37 109 21 8 0 11-5 9-11z m-203-191c-36 28-67 64-89 108-1 2-1 6 0 9 70 134 213 195 342 144 5-2 8-7 7-14-3-5-8-8-15-6-117 47-248-8-313-130 20-37 47-70 79-94 5-4 5-11 3-16-3-2-5-3-9-3-1 0-4 1-5 2z m407 117c1-3 1-7 0-9-53-103-149-163-249-163-30 0-62 6-93 18-5 3-8 8-6 14 2 5 7 8 14 6 117-46 248 8 312 130-20 37-47 70-79 94-5 4-5 11-3 16 3 5 10 5 15 2 36-29 67-66 89-108z m-292-85c2 5 9 8 14 5 23-9 47-7 68 4 6 4 13 9 19 14 18 18 27 44 23 68-1 6-2 13-5 18-3 5 0 11 6 14 5 3 12 0 14-6 16-39 7-81-21-109-20-19-45-30-71-30-13 0-25 3-38 8-9 3-12 9-9 14z m32 129c5 2 11-2 13-7 1-5-3-12-8-13-11-3-19-12-22-22-1-5-5-8-10-8-1 0-1 0-3 0-5 2-8 8-7 13 4 18 18 34 37 37z m22-99c-5 0-9 2-11 7-1 5 3 12 8 13 12 3 19 12 22 22 1 5 8 9 13 7 5-1 9-7 7-12-5-18-19-34-37-37-1 0-1 0-2 0z"/>
<glyph glyph-name="waiver-deductible" unicode="&#57409;" d="M171 321l120-126 125 134-68 0-3 3c0 5-2 10-3 14-1 3-1 5-3 8l-8 27c-1 4-4 7-5 10l-10 19c-6 10-15 20-22 29l-12 13c-3 4-7 6-11 10l-3 2c-11 9-22 16-31 22-5 2-10 5-14 7l-3 1c-6 4-12 5-18 7l-8 3c-2 0-3 1-6 1l-7 1c-4 1-8 2-13 2l-5 2c-3 0-7 1-12 1l-16 1c-4 0-8 0-10 0-5 0-10 0-13-1-1 0-2 0-5-1l-3 0c-15-4-29-9-40-16-25-17-34-33-39-55l17-4c-12-16-18-34-18-54 0-48 38-86 86-86 23 0 46 11 61 26z m-45 173c3 0 5 0 7 0l16 0c3 0 7-1 11-1l6-1c3 0 7-1 10-3l7-1c2 0 4-1 5-1l8-2c5-2 11-4 16-6l4-3c4-2 8-3 11-6 10-4 19-12 29-19l4-3c3-3 6-6 9-9l12-13c8-9 14-18 20-27l10-18c1-4 3-6 3-8l4-9 6-16c1-3 1-5 2-7 1-5 3-9 3-12l3-19 42 0-83-90-84 90 50 0 1 11c2 4 2 6 2 10 0 1 0 4 0 6l0 5-2 14c0 2-1 5-1 6l-3 15c-3 9-5 16-10 25l-6 12c-1 3-2 5-5 8l-3 4c-7 10-13 17-19 22-3 2-6 4-9 7l-2 2c-4 4-8 6-12 10l-6 5c-1 1-2 1-5 2l-8 5c-2 1-5 2-7 3l-5 3c-2 1-6 2-9 3l-12 4c-6 1-12 2-18 3 2-2 6-1 8-1z m-16-19c7 0 14-1 21-3l11-4c2-1 4-2 7-4l6 0c1-1 3-1 5-2l2-1c1-1 2-1 4-3l2-1c1-1 2-1 3-1l6-4c4-2 8-4 11-8l3-3c2-3 4-4 7-8 6-4 10-11 16-19l4-4c1-3 2-5 3-6l6-11c4-7 6-14 9-22l2-9c0-1 0-2 1-5 0-1 2-3 2-5l1-13 0-3c0-3 0-5 0-6 0-1 0-3 0-4l-63 0c12 15 19 34 19 54 0 47-38 86-86 86-27 0-51-14-67-33 10 29 32 42 65 42z m-68-94c0 38 31 68 68 68 38 0 67-31 67-68 0-38-31-68-67-68-37 0-68 31-68 68z m433-246l-28 0 0 32-18 0 0-32-29 0c-25 0-46-18-46-40 0-21 20-39 46-39l29 0 0-32-290 0c-8 0-15 5-15 11l0 136-18 31c0 0 0-1 0-1l0-166c0-16 15-29 33-29l299 0c5 0 10 4 10 9l0 42 28 0c5 0 10 4 10 10l0 60c-3 3-6 8-11 8z m-69-46c-1-1-1-1-2-2-2 0-3-1-4-1-1 0-2 0-3 1-2 0-3 1-3 2-1 1-1 3-2 3 0 1-1 2-1 3 0 1 0 3 1 4 0 1 1 2 2 2 1 1 1 1 3 3 2 1 4 1 7 0 1 0 2-2 2-3 1-1 1-2 2-2 0-1 2-3 2-4 0-2-2-5-4-6z m-288 243l0 3c13 3 21 14 21 27 0 15-13 23-21 26l0 20c1-1 2-2 2-3 3-4 9-5 12-3 4 3 5 9 3 12-3 8-10 12-17 13l0 4c0 5-4 10-10 10-6 0-8-5-8-10l0-2c-12-5-21-16-21-28 0-15 13-21 21-25l0-21c-4 1-7 3-10 6-3 3-9 2-13-1-3-4-2-10 2-14 6-4 14-9 21-11l0-3c0-5 4-9 10-9 5 0 8 4 8 9z m0 36c3-2 3-5 3-6 0-2-1-6-3-7z m-18 27c-4 3-4 4-4 6 0 3 2 6 4 7z"/>
<glyph glyph-name="wallet" unicode="&#57410;" d="M500 225l-32 0 0 77c0 6-5 10-10 10l-10 0-19 62 29 0c7 0 10 5 10 10 0 6-5 10-10 10l-36 0-29 96c-1 5-8 9-13 7l-338-101c-23-2-41-25-41-53l0-285c0-25 19-44 44-44l412 0c6 0 10 5 10 10l0 75 32 0c7 0 10 5 10 10l0 105c2 6-2 11-9 11z m-125 250l50-163-342 0-24 66z m-337-103l22-60-14 0c-13 0-23 14-23 31 0 14 6 26 15 29z m409-336l-401 0c-13 0-23 10-23 23l0 241c6-6 14-8 23-8l402 0 0-67-41 0c-35 0-63-28-63-62 0-35 28-63 63-63l41 0 0-64z m43 84l-83 0c-23 0-42 20-42 43 0 23 19 42 42 42l83 0z m-66 43c0-3-2-6-3-8-1-3-5-3-8-3-2 0-5 2-7 3-3 1-3 5-3 8 0 2 1 5 3 7 4 4 11 4 15 0 1-2 3-5 3-7z"/>
<glyph glyph-name="check" unicode="&#57416;" d="M472 470l-302-378-130 164c-8 9-22 12-32 4-9-8-12-22-4-32l148-186c5-6 11-7 18-7 7 0 13 3 18 7l319 400c8 9 6 23-4 32-9 6-24 5-31-4"/>
<glyph glyph-name="email" unicode="&#57417;" d="M439 395l-170-152c-8-8-22-8-31 0l-169 152c-5 4-11 3-15-1-4-4-4-11 0-15l170-152c8-8 19-11 30-11 10 0 21 3 30 11l169 152c4 4 5 11 1 15-4 5-11 5-15 1z m-100-168c-4 4-11 4-15-1-4-5-3-11 2-15l113-94c2-2 4-3 7-3 3 0 6 2 8 4 4 5 3 11-1 15z m-171 0l-113-94c-5-4-5-10-2-15 3-2 6-4 9-4 2 0 4 1 6 3l114 94c4 4 5 10 1 15-4 5-10 5-15 1z m283 221l-390 0c-34 0-61-26-61-60l0-265c0-33 27-59 61-59l390 0c34 0 61 27 61 59l0 265c0 33-27 60-61 60z m40-325c0-21-18-38-40-38l-390 0c-22 0-40 17-40 38l0 265c0 22 18 39 40 39l390 0c22 0 40-17 40-39z"/>
<glyph glyph-name="exclamation" unicode="&#57418;" d="M235 137l0-9c0-9 10-16 21-16 11 0 21 7 21 16l0 9c0 8-10 15-21 15-11 0-21-6-21-15z m0 263l0-193c0-7 10-13 21-13 11 0 21 6 21 13l0 193c0 7-10 13-21 13-11 0-21-6-21-13z"/>
<glyph glyph-name="benefits" unicode="&#57419;" d="M363 92c-52 0-98 30-113 77-9 23-7 49 6 72 15 26 43 45 73 53 64 15 128-19 145-72 8-26 4-51-9-75-15-25-43-45-72-53-11-2-22-2-30-2z m-5 183c-8 0-17 0-23-2-26-6-47-21-60-43-10-17-13-38-6-57 15-45 66-71 119-60 26 6 47 21 60 43 11 17 13 38 6 57-10 39-51 62-96 62z m39-264l-354 0c-7 0-11 4-11 10l0 367c0 7 4 11 11 11l354 0c6 0 10-4 10-11l0-77c0-6-4-10-10-10-7 0-11 4-11 10l0 67-333 0 0-346 333 0 0 23c0 7 4 11 11 11 6 0 10-4 10-11l0-34c0-6-4-10-10-10z m-94 326c-6 0-11 4-11 11l0 68c0 36-30 64-70 64l-2 0c-39 0-73-30-73-64l0-68c0-7-4-11-10-11-7 0-11 4-11 11l0 68c0 45 45 85 94 85l2 0c51 0 92-38 92-85l0-68c0-7-5-11-11-11z m66-194c-11 0-23 4-34 13-4 4-6 10-2 15 4 4 10 6 15 2 6-4 15-9 21-9 9 0 13 5 13 7 0 2-7 6-17 8-15 4-34 11-34 30 0 9 4 15 10 21 7 7 17 9 26 7 11 0 21-7 28-15 4-4 2-11-2-15-5-4-11-2-15 2-3 4-9 6-13 6-4 0-9 0-11-2 0 0-2-2-2-4 0-2 13-6 19-8 19-3 32-15 32-30 0-15-15-28-34-28z m-6 83c-7 0-11 4-11 11l0 10c0 7 4 11 11 11 6 0 10-4 10-11l0-10c0-7-4-11-10-11z m10-100c-6 0-10 4-10 11l0 10c0 7 4 11 10 11 7 0 11-4 11-11l0-10c0-7-4-11-11-11z"/>
<glyph glyph-name="billing" unicode="&#57420;" d="M256 12c-135 0-244 109-244 244 0 135 109 244 244 244 135 0 244-109 244-244 0-135-109-244-244-244z m0 465c-121 0-221-100-221-221 0-121 100-221 221-221 121 0 221 100 221 221 0 121-100 221-221 221z m6-347c-25 0-60 14-84 32-4 5-4 12-2 17 5 4 12 7 19 2 18-16 49-28 67-28 30 0 56 19 56 44 0 19-19 33-58 44-26 7-77 24-77 68 0 37 35 67 79 67 28 0 54-11 68-32 4-5 2-12-3-16-7-5-14-3-18 2-10 14-28 23-49 23-28 0-54-21-54-44 0-19 17-33 58-44 33-10 75-26 75-68 0-37-35-67-77-67z m5-40c-7 0-12 5-12 12l0 281c0 7 5 12 12 12 7 0 11-5 11-12l0-284c0-4-4-9-11-9z"/>
<glyph glyph-name="document" unicode="&#57421;" d="M427 395l-81 0c-7 0-12 5-12 12l0 81c0 7 5 12 12 12 8 0 12-5 12-12l0-69 69 0c7 0 12-5 12-12 0-7-5-12-12-12z m-15-383l-312 0c-15 0-27 12-27 29l0 430c0 17 12 29 27 29l246 0c10 0 15-5 17-8l66-65c5-5 7-10 7-20l0-366c3-17-9-29-24-29z m-66 463l-244 0c-2 0-2-2-2-4l0-432c0-2 2-5 2-5l310 0c2 0 5 3 5 5l0 366z m3-341l-203 0c-7 0-12 5-12 12 0 8 5 12 12 12l203 0c7 0 12-4 12-12 0-7-7-12-12-12z m0 59l-203 0c-7 0-12 4-12 12 0 7 5 12 12 12l203 0c7 0 12-5 12-12 0-8-7-12-12-12z m0 61l-203 0c-7 0-12 4-12 12 0 7 5 12 12 12l203 0c7 0 12-5 12-12 0-8-7-12-12-12z m-91 61l-112 0c-7 0-12 4-12 12 0 7 5 12 12 12l112 0c8 0 13-5 13-12 0-8-5-12-13-12z"/>
<glyph glyph-name="dashboard" unicode="&#57422;" d="M403 53l-298 0c-24 0-45 13-56 30-23 39-36 83-36 130 0 69 28 133 77 180 49 46 113 70 181 66 117-9 215-105 224-224 4-54-9-107-36-152-11-19-32-30-56-30z m-149 384c-56 0-109-21-152-59-44-43-70-103-70-165 0-42 11-83 34-117 9-13 24-21 39-21l300 0c15 0 30 8 39 21 25 41 36 90 32 139-9 108-98 196-207 202-7 0-11 0-15 0z m168-222l-17 0c-6 0-10 5-10 11 0 7 4 11 10 11l17 0c7 0 11-4 11-11 0-6-4-11-11-11z m-57 107c-2 0-7 0-7 2-4 5-4 11 0 15l13 13c4 4 11 4 15 0 4-4 4-11 0-15l-13-13c-2 0-6-2-8-2z m-122 58c-6 0-10 4-10 10l0 17c0 7 4 11 10 11 7 0 11-4 11-11l0-17c0-6-4-10-11-10z m-128-58c-2 0-6 2-8 4l-13 13c-4 4-4 11 0 15 4 4 11 4 15 0l15-13c4-4 4-10 0-15-2-2-7-4-9-4z m-34-107l-19 0c-7 0-11 5-11 11 0 7 4 11 11 11l19 0c6 0 11-4 11-11 0-6-7-11-11-11z m152-81c-11 0-22 5-30 13-15 15-15 43 0 58 15 15 42 17 57 0 9-9 13-17 13-30 0-13-4-21-13-30-6-6-17-11-27-11z m23 20z m-23 40c-5 0-11-2-15-6-9-9-9-19 0-28 8-9 19-9 27 0 5 4 7 9 7 15 0 6-2 11-7 15-2 2-6 4-12 4z m32-19c-3 0-7 0-9 2-4 4-4 11 0 15l100 100c5 5 11 5 15 0 4-4 4-10 0-15l-100-100c-2-2-4-2-6-2z"/>
<glyph glyph-name="folder" unicode="&#57423;" d="M470 45l-428 0c-18 0-31 13-31 28l0 366c0 15 13 28 31 28l74 0c4 0 15 0 35-37l321 0c18 0 31-14 31-29l0-325c-2-18-15-31-33-31z m-428 400c-4 0-9-2-9-6l0-363c0-5 5-7 9-7l430 0c4 0 9 2 9 7l0 322c0 5-5 7-9 7l-330 0c-4 2-6 5-8 7-7 15-18 29-23 33z m448-113l-468 0c-6 0-11 4-11 11 0 6 5 11 11 11l468 0c6 0 11-5 11-11 0-7-5-11-11-11z"/>
<glyph glyph-name="users" unicode="&#57424;" d="M373 143c-23 8-47 18-67 29-36 17-64 38-67 48l0 13c13 12 23 31 28 51 8 5 13 16 13 25 0 8-3 13-8 18l0 41c0 43-25 72-82 72-54 0-80-29-80-72l0-41c-5-5-7-13-7-20 0-11 5-21 12-26 5-20 16-38 28-51l0-11c-4-17-74-53-135-76-5-3-8-5-8-13l0-45c0-8 5-13 13-13l353 0c7 0 12 5 12 13l0 47c5 7 0 9-5 11m133-14c-48 18-102 46-107 62l0 7c10 11 17 24 23 41 5 5 11 11 11 21 0 4-3 10-5 15l0 33c0 20-11 41-29 51-7 5-17 5-25 8-13 3-25 3-39-3-11-4-21-12-26-22-3-5-5-11-8-16-3-5-3-12-3-17l0-34c-3-5-5-11-5-15 0-8 5-16 11-21 5-15 12-31 23-41 16-10 33-20 56-28 16-5 26-20 26-38l0-47c0-5 0-10-3-13l95 0c5 0 10 5 10 11l0 36c3 5 0 8-5 10"/>
<glyph glyph-name="double-caret" unicode="&#57425;" d="M256 73l119 129-238 0z m0 366l-119-129 238 0z"/>
<glyph glyph-name="primative-dot" unicode="&#57411;" d="M358 256c0-57-45-102-102-102-57 0-102 45-102 102 0 57 45 102 102 102 57 0 102-45 102-102z"/>
<glyph glyph-name="caret-down" unicode="&#57412;" d="M99 344c-8 6-15 5-22-3-7-8-7-15 0-22l179-176 179 176c7 9 7 17 0 25-7 7-14 7-23 0l-156-157z"/>
<glyph glyph-name="caret-left" unicode="&#57413;" d="M358 99c6-8 5-15-3-22-8-7-15-7-22 0l-176 179 176 179c9 7 17 7 25 0 7-7 7-14 0-23l-157-156z"/>
<glyph glyph-name="caret-right" unicode="&#57414;" d="M156 99c-7-8-6-15 2-22 8-7 15-7 22 0l177 179-177 179c-9 7-17 7-24 0-8-7-8-14 0-23l156-156z"/>
<glyph glyph-name="caret-up" unicode="&#57415;" d="M414 141c8-6 15-5 22 3 8 8 8 15 0 22l-179 177-179-177c-7-9-7-17 0-25 7-7 15-7 23 0l156 157z"/>
<glyph glyph-name="trash" unicode="&#57427;" d="M471 425l-143 0-18 53c-1 4-5 7-9 7l-89 0c-4 0-8-3-9-7l-18-53-143 0c-6 0-10-5-10-10 0-6 4-10 10-10l31 0 27-369c0-5 5-9 10-9l293 0c6 0 10 4 10 9l27 369 31 0c6 0 10 4 10 10 0 5-4 10-10 10z m-252 40l75 0 13-40-101 0z m175-418l-275 0-26 358 327 0z m-137 318c-6 0-10-5-10-10l0-255c0-6 4-10 10-10 5 0 9 4 9 10l0 255c0 5-4 10-9 10z m72-275c1 0 1 0 1 0 5 0 10 4 10 9l17 255c0 6-4 10-9 11-6 0-11-4-11-9l-17-256c0-5 4-10 9-10z m-162 275c-6-1-10-5-10-11l18-255c0-5 4-9 10-9 0 0 0 0 0 0 6 0 10 5 10 10l-18 256c0 5-5 9-10 9z"/>
<glyph glyph-name="dollar" unicode="&#57426;" d="M273 266l0 138c21-4 40-16 53-33 5-7 15-8 21-3 7 5 8 14 3 20-19 25-46 41-77 46l0 31c0 8-6 15-15 15-8 0-14-7-14-15l0-30c-55-6-98-47-98-97 0-60 67-85 98-94l0-138c-28 4-62 19-85 39-6 6-15 5-21-1-5-6-5-15 1-21 29-25 70-43 105-47l0-33c0-8 6-15 14-15 9 0 15 7 15 15l0 34c52 8 92 48 92 96 0 57-59 82-92 93z m-98 71c0 34 30 63 69 67l0-130c-46 16-69 37-69 63z m99-231l0 128c42-16 63-36 63-61 0-33-27-60-63-67z"/>
<glyph glyph-name="audit" unicode="&#57428;" d="M375 260l-135 0c-4 0-7 3-7 7 0 4 3 6 7 6l135 0c4 0 6-2 6-6 0-4-2-7-6-7z m-220 144c-4 0-6 3-6 7l0 88c0 4 2 6 6 6 4 0 6-2 6-6l0-88c0-4-4-7-6-7z m100 0c-4 0-7 3-7 7l0 88c0 4 3 6 7 6 4 0 6-2 6-6l0-88c0-4-2-7-6-7z m-100-40c-16 0-30 14-30 30 0 17 14 31 30 31 16 0 30-14 30-31 0-16-14-30-30-30z m0 49c-10 0-19-9-19-19 0-10 8-17 18-17 10 0 17 7 17 17 0 10-6 19-16 19z m203-9c-3 0-6 3-6 7l0 88c0 4 3 6 6 6 4 0 7-2 7-6l0-88c0-4-4-7-7-7z m0-40c-16 0-30 14-30 30 0 17 14 31 30 31 17 0 31-14 31-31 0-16-14-30-31-30z m0 49c-10 0-17-7-17-17 0-11 7-18 17-18 10 0 18 7 18 18 0 10-8 17-18 17z m-103-49c-17 0-31 14-31 30 0 17 14 31 31 31 16 0 30-14 30-31 0-16-13-30-30-30z m0 49c-10 0-18-7-18-17 0-11 8-18 18-18 10 0 17 7 17 18 0 10-7 17-17 17z m187-406l-372 0c-3 0-6 3-6 6l0 456c0 4 3 6 6 6l372 0c3 0 6-2 6-6l0-456c0-3-3-6-6-6z m-365 12l358 0 0 444-358 0z m97 224l-35 0c-4 0-7 2-7 6l0 35c0 4 3 7 7 7l35 0c4 0 6-3 6-7l0-35c0-4-2-6-6-6z m-29 12l23 0 0 23-23 0z m230-79l-135 0c-4 0-7 2-7 6 0 4 3 6 7 6l135 0c4 0 6-2 6-6 0-4-2-6-6-6z m-201-18l-35 0c-4 0-7 3-7 6l0 36c0 4 3 6 7 6l35 0c4 0 6-2 6-6l0-36c0-3-2-6-6-6z m-29 13l23 0 0 22-23 0z m230-80l-135 0c-4 0-7 3-7 6 0 4 3 7 7 7l135 0c4 0 6-3 6-7 0-3-2-6-6-6z m-201-18l-35 0c-4 0-7 3-7 7l0 35c0 4 3 6 7 6l35 0c4 0 6-2 6-6l0-35c0-3-2-7-6-7z m-29 13l23 0 0 23-23 0z"/>
<glyph glyph-name="claims" unicode="&#57429;" d="M273 397l-127 0c-20 0-36 16-36 36 0 21 16 37 36 37l21 0 0 7c0 20 17 35 36 35l16 0c19 0 35-15 36-35l0-8 19 0c21 0 37-17 37-37-2-19-18-35-38-35z m-127 59c-12 0-24-10-24-24 0-13 10-24 24-24l127 0c13 0 24 10 24 24 0 13-10 24-24 24l-25 0c-4 0-7 3-7 7l0 14c0 12-10 22-22 22l-16 0c-12 0-24-10-24-22l0-14c0-4-2-7-6-7z m206-24l33 0 0-105c3-1 9-4 12-6l0 117c0 4-2 7-6 7l-39 0c-4 0-7-3-7-7 0-3 3-6 7-6z m33-338l0-80-350 0 0 418 34 0c4 0 6 3 6 6 0 4-2 7-6 7l-40 0c-4 0-7-3-7-7l0-432c0-3 3-6 7-6l362 0c4 0 6 3 6 6l0 94c-3-2-9-5-12-6z m-175 371c-2 0-2 0-3 0-1 0-1 1-2 1-2 2-3 3-3 5 0 2 0 2 0 3 0 1 1 1 1 3 0 0 2 1 3 1 1 0 4 0 5 0 1 0 1-1 3-1 1 0 1-2 1-3 0-1 0-1 0-3 0-1 0-1 0-2 0-1-1-1-1-3 0-1-2-1-4-1z m4-206l-132 0c-4 0-7 2-7 6 0 4 3 6 7 6l132 0c3 0 6-2 6-6 0-4-3-6-6-6z m0-54l-132 0c-4 0-7 3-7 7 0 3 3 6 7 6l132 0c3 0 6-3 6-6 0-4-3-7-6-7z m0-52l-132 0c-4 0-7 3-7 7 0 3 3 6 7 6l132 0c3 0 6-3 6-6 0-4-3-7-6-7z m-51 159l-83 0c-3 0-6 2-6 6 0 4 3 6 6 6l83 0c4 0 6-2 6-6 0-4-2-6-6-6z m308-254c-5 0-10 2-13 5l-68 69c-3 2-3 6 0 9 2 2 6 2 9 0l67-67c2-3 6-3 9 0 2 2 2 6 0 8l-68 68c-2 2-2 6 0 8 3 3 7 3 9 0l67-67c8-7 8-19 0-26-2-4-7-7-12-7z m-132 54c-54 0-98 44-98 97 0 53 45 98 98 98 53 0 98-45 98-98 0-53-43-97-98-97z m0 182c-47 0-85-38-85-85 0-47 38-85 85-85 47 0 85 38 85 85 0 47-38 85-85 85z"/>
<glyph glyph-name="documents" unicode="&#57430;" d="M451 411l-84 0c-4 0-6 2-6 6l0 83c0 4 2 7 6 7 4 0 7-3 7-7l0-76 77 0c4 0 7-3 7-7 0-4-4-6-7-6z m-308-339c-12 0-21 11-21 23l0 390c0 12 9 22 21 22l234 0c5 0 10-3 13-7l61-60c4-4 7-9 7-15l0-330c0-12-9-22-20-22z m232 421l-232 0c-4 0-8-4-8-8l0-390c0-4 4-8 8-8l294 0c4 0 8 4 8 8l0 330c0 3-2 4-3 6l-61 60c-3 1-4 2-6 2z m3-201l-169 0c-4 0-7 3-7 7 0 4 3 6 7 6l169 0c4 0 7-2 7-6 0-4-3-7-7-7z m0-68l-169 0c-4 0-7 3-7 7 0 4 3 6 7 6l169 0c4 0 7-2 7-6 0-4-3-7-7-7z m0-68l-169 0c-4 0-7 3-7 7 0 4 3 6 7 6l169 0c4 0 7-2 7-6 0-4-3-7-7-7z m-65 204l-106 0c-4 0-6 3-6 7 0 4 2 6 6 6l106 0c4 0 6-2 6-6 0-4-4-7-6-7z m-236-355c-7 0-12 3-16 7-4 4-7 9-7 16l0 393c0 14 11 23 23 22 4 1 6-3 6-7 0-4-2-7-6-5-6 0-10-4-10-10l0-394c0-3 2-4 3-6 1-1 4-2 7-2l318 0c4 0 8 4 8 8 0 4 3 6 7 6 4 0 7-2 7-6 0-12-10-22-22-22z"/>
<glyph glyph-name="general-liability" unicode="&#57431;" d="M502 110l-43 0c-3 0-6 2-6 6 0 4 3 6 6 6l37 0 0 81c0 5-3 10-7 13l-38 26c-1 0-1 1-1 2l-35 57-63 0c-3 0-6 3-6 7 0 3 3 6 6 6l66 0c3 0 4-1 5-3l36-61 38-24c7-5 12-14 12-23l0-87c-1-4-3-6-7-6z m-126 0l-111 0c-3 0-6 2-6 6 0 4 3 6 6 6l111 0c4 0 6-2 6-6 0-4-2-6-6-6z m41-41c-26 0-48 21-48 47 0 26 21 47 48 47 28 0 47-21 47-47 0-26-19-47-47-47z m0 83c-20 0-36-16-36-35 0-18 16-35 36-35 20 0 35 17 35 35 0 19-15 35-35 35z m-321-83c-26 0-48 21-48 47 0 26 21 47 48 47 27 0 49-21 49-47 0-26-23-47-49-47z m0 83c-20 0-36-16-36-35 0-18 16-35 36-35 20 0 36 17 36 35 0 19-16 35-36 35z m128-83c-26 0-48 21-48 47 0 26 21 47 48 47 28 0 49-21 49-47 0-26-23-47-49-47z m0 83c-20 0-36-16-36-35 0-18 16-35 36-35 20 0 36 17 36 35 0 19-16 35-36 35z m278 0l-479 0c-4 0-7 3-7 6 0 4 3 7 7 7l479 0c4 0 6-3 6-7 0-3-2-6-6-6z m-448-41l-23 0c-3 0-6 2-6 6l0 35-15 0c-1 0-4 1-5 1-1 0-1 4-1 5l0 279c0 4 4 6 6 6l342 0c4 0 7-2 7-6l0-275c0-4-3-6-7-6-3 0-6 2-6 6l0 269-330 0 0-266 15 0c4 0 7-3 7-7l0-35 16 0c3 0 6-2 6-6 0-4-3-6-6-6z m128-1l-45 0c-4 0-6 2-6 6 0 4 2 6 6 6l45 0c4 0 6-2 6-6 0-4-2-6-6-6z"/>
<glyph glyph-name="policies" unicode="&#57432;" d="M308 54l-251 0c-3 0-6 3-6 7l0 445c0 3 3 6 6 6l351 0c4 0 6-3 6-6l0-273c0-3-2-6-6-6-4 0-6 3-6 6l0 266-338 0 0-432 244 0c4 0 7-3 7-6 0-4-3-7-7-7z m-7 380l-135 0c-3 0-6 2-6 6 0 4 2 6 6 6l135 0c4 0 6-2 6-6 0-4-2-6-6-6z m137-434c-1 0-2 0-2 1l-47 27-47-27c-2-1-3-1-6 0-2 2-2 4-2 5l0 85 12 0 0-73 41 22c2 2 3 2 6 0l40-22 0 73 13 0 0-85c0-2-1-3-3-5-2-1-4-1-5-1z m-49 62c-40 0-72 33-72 72 0 39 33 72 72 72 39 0 72-33 72-72 0-39-32-72-72-72z m0 132c-33 0-59-26-59-59 0-33 26-59 59-59 33 0 59 26 59 59 0 31-26 59-59 59z m0-99c-21 0-39 17-39 39 0 21 18 39 39 39 21 0 39-18 39-39 0-22-18-39-39-39z m0 65c-15 0-26-11-26-26 0-15 11-27 26-27 15 0 27 12 27 27 0 15-12 26-27 26z m-25 213l-265 0c-4 0-6 3-6 7 0 3 2 6 6 6l265 0c4 0 6-3 6-6 0-4-2-7-6-7z m2-46l-266 0c-4 0-6 2-6 6 0 4 2 6 6 6l266 0c4 0 7-2 7-6 0-4-3-6-7-6z m0-51l-266 0c-4 0-6 3-6 6 0 4 2 7 6 7l266 0c4 0 7-3 7-7 0-3-4-6-7-6z m-60-52l-206 0c-4 0-6 3-6 7 0 4 2 6 6 6l206 0c4 0 6-2 6-6 0-4-2-7-6-7z m-13-50l-191 0c-4 0-7 3-7 6 0 4 3 7 7 7l192 0c4 0 7-3 7-7 0-3-4-6-8-6z m-65-53l-126 0c-4 0-7 3-7 6 0 4 3 7 7 7l126 0c3 0 6-3 6-7 0-3-3-6-6-6z"/>
<glyph glyph-name="secure-1" unicode="&#57433;" d="M257 5c-2 0-4 0-6 1-9 3-203 60-203 256l0 139c0 1 0 4 2 5 1 6 5 10 11 12 4 4 9 4 15 3 29-9 107-4 163 77 1 1 3 3 4 4 10 7 23 5 30-4 45-66 99-80 136-80 9 0 19 2 27 4 3 2 6 2 7 2 5 0 11-3 15-7 4-4 7-10 6-15l0-138c0-200-202-257-203-258-2-1-3-1-4-1z m-187 404c-1 0-2 0-4-2-1-1-2-2-4-4 0 0 0-1 0-1l0-138c0-187 184-242 192-244 1 0 3 0 4 0 3 0 193 54 193 244l0 138c0 3-1 4-3 5-1 2-2 3-5 3-1 0-1 0-3 0-11-3-20-4-31-4-40 0-99 15-147 85-3 3-7 3-11 0 0 0-1-1-1-1-58-84-140-95-178-81 0 0-2 0-2 0z m369 7z"/>
<glyph glyph-name="video" unicode="&#57434;" d="M224 176c-8 0-14 3-18 9-3 3-3 7-3 12l0 117c0 6 3 12 6 15 4 4 9 6 15 6 4 0 9-2 12-3l79-59c11-7 11-21 3-31-1-2-1-3-3-3l-79-59c-3-4-8-4-12-4z m3 21z m0 111l0-107 72 54z m82-60z m-87 63z m35-243c-168 0-194 15-203 21-49 30-51 142-51 165 0 13 2 139 51 169 8 6 32 21 203 21 156 0 195-13 210-24 40-30 45-126 45-166 0-48-6-134-45-162-17-11-54-24-210-24z m0 352c-108 0-174-6-191-18-30-18-40-102-40-150 0-42 9-124 40-144 24-15 117-18 191-18 112 0 178 6 196 20 26 18 35 85 35 142 0 56-9 128-35 147-19 15-85 21-196 21z"/>
<glyph glyph-name="workers-comp" unicode="&#57435;" d="M370 55l-6 0c-49 8-98 21-145 39-41 17-81 39-117 67 0 0-1 1-1 1-6 5-6 14 0 21l10 10c5 6 14 6 20 0 35-31 73-57 116-78 80-34 121-38 123-39l7-2z m-251 129l-11-10c0 0 0-2 0-3 37-26 75-47 115-65 21-8 42-16 64-22-14 5-30 10-47 18-43 21-83 48-119 81-1 1-1 1-2 1z m42-99l-6-9c-2-4 0-9 4-11 0 0 2 0 2 0 51-18 102-34 154-47 45-9 91-14 137-15l0 9c-56 4-112 15-166 32-39 12-78 28-115 47-4-1-9-2-10-6m6 355c-1 4-2 7-4 11 0 2 0 4 0 6 0 3-1 5-1 8 0 1-1 3-1 4 0 0-2 1-2 1 0 0-1 2-1 2-1 2-1 3-3 3 0 2-1 2-1 3-8 9-18 14-31 14-16 0-29-5-38-14-7-8-11-20-9-31 1-11 5-21 12-30 1-2 1-2 2-3 8-9 20-16 33-17 2 0 4 0 6 0 13 0 26 8 32 21 0 3 0 5 1 8 0 0 0 1 0 1 3 1 4 3 5 5 1 3 1 6 0 8z m-74 7c0-2-2-3-2-4 0 0 0 1 0 1 0 17 13 31 30 33l2 0c1 0 1 0 2 0 6 0 10-2 13-4 4-3 7-5 10-9-2 0-4 0-6-2-6 2-14 0-19-5-9-9-11-9-15-8-1 0-4 2-6 2-4-2-7-3-9-4z m56-19c0-1 0-2-1-4-4-9-13-14-24-13-9 0-17 4-22 11 0 1 0 2 0 5 0 3 0 9 0 11 1 0 2 0 4-2 9-2 14-1 26 12 3 3 8 3 13 4 3 0 4 0 7 1 0 0 0 0 0-1l7 0-9-3c2-4 3-8 4-10-4-3-5-7-5-11z m321-19c-9 2-19 0-26-8l-3-4c-1-5-3-10-5-16l0-1-116-17c-27-4-64-26-80-35l-2-1-2 0-26 56c0 0 0 1 0 1 13 12 26 24 39 38 12 19 24 39 34 60 3 5 3 13-2 18l-8 7c-1 1-3 2-4 4-4 1-8 1-12 1-4-1-6-4-9-7-5-7-25-36-36-50-16-15-33-28-51-40-6-5-7-10-9-15-2-2-2-4-3-6-1 0-5 0-8 0-5 2-10 2-14 0-30-10-56-31-75-56-23-32-17-98-17-98 2-8 8-13 15-13l7-1c8 0 15 6 15 14 0 17 2 36 8 51 8 15 19 26 34 34 0 0 1 0 1 0 0 0 1 0 1-1 8-17 17-33 26-48l3-4c10-16 18-28 27-37 11-12 25-19 42-23 16-4 30-4 46-3 17 0 33 0 47-5 12-5 33-38 47-60 6-9 12-19 16-24 0 0 0 0 1-1l0-4c0-5 4-9 9-9l61 4c3 0 4 1 7 2 1 2 3 4 3 7 0 10-8 19-17 23l-6 2c-7 2-14 2-20 2-4 7-8 16-14 25-20 41-36 71-44 78l-1 2c-20 12-41 19-62 26 0 1 2 1 3 3 17 14 35 26 55 33 14 4 44 11 68 16 14 3 27 7 34 8 1 0 1 1 2 1l4-1c2 0 2 0 3 0 4 0 6 3 8 7l13 54c0 6-3 10-7 11z m-270-178c-8 4-13 8-20 15-1 1-4 3-5 5-7 8-13 17-21 29l-2 3c-10 15-19 30-27 47-1 4-4 7-7 8-2 2-4 2-6 2-2 0-4 0-6-2-17-8-32-22-41-40-6-18-9-37-8-56 0-2 0-2-1-2l-6 2c-2 0-2 0-2 1-1 16-2 65 15 89 17 23 40 42 68 52 1 0 5 0 7 0 6 0 12-1 16 1 5 0 8 6 9 9 2 4 3 8 5 10 20 11 37 24 54 41 13 16 30 42 38 54 0 1 1 1 3 0l9-8c0 0 0-1 0-3-11-19-21-39-33-57-12-13-23-25-38-35-5-4-6-12-4-17l26-56c2-3 4-6 7-7-7-14-14-38-21-56-3-12-7-24-9-29z m223-99l4-1c4-2 7-4 8-8l-51-3 21 13c6 0 13 0 18-1z m-13 210c-23-5-53-12-69-17-21-9-42-21-59-36-6-6-8-12-6-19 1-4 4-6 7-6 21-5 42-15 61-25 6-8 27-47 40-74 4-10 8-16 12-24l-17-12c-4 6-8 12-13 20-21 31-39 59-54 65-16 7-34 7-52 7-14 0-29 0-43 2-1 0-3 2-4 2 3 5 5 14 10 28 8 23 17 50 24 62 12 8 49 30 74 34l115 17 3-19c-7 0-17-2-29-5z m42 12l-4 26c1 4 3 7 4 11l1 2c2 3 4 4 8 4z"/>
<glyph glyph-name="property" unicode="&#57436;" d="M186 144l-46 0c-4 0-6 3-6 6l0 43c0 4 2 6 6 6l46 0c4 0 7-2 7-6l0-43c0-3-4-6-7-6z m-40 13l34 0 0 30-34 0z m40 59l-46 0c-4 0-6 2-6 6l0 43c0 4 2 6 6 6l46 0c4 0 7-2 7-6l0-43c0-2-3-6-7-6z m-40 12l34 0 0 31-34 0z m40 61l-46 0c-4 0-6 2-6 6l0 41c0 4 2 7 6 7l46 0c4 0 7-3 7-7l0-42c0-3-3-5-7-5z m-40 12l34 0 0 30-34 0z m40 59l-46 0c-4 0-6 3-6 7l0 42c0 4 2 7 6 7l46 0c4 0 7-3 7-7l0-42c0-3-3-7-7-7z m-40 13l34 0 0 30-34 0z m111-13l-47 0c-4 0-6 3-6 7l0 42c0 4 2 7 6 7l47 0c3 0 6-3 6-7l0-42c0-3-3-7-6-7z m-41 13l34 0 0 30-34 0z m21-229l-27 0c-4 0-6 3-6 6l0 43c0 4 2 6 6 6l27 0c3 0 6-2 6-6l0-43c0-3-4-6-6-6z m-21 13l14 0 0 30-14 0z m21 60l-27 0c-4 0-6 3-6 6l0 43c0 4 2 6 6 6l27 0c3 0 6-2 6-6l0-43c0-3-3-7-6-6 0-1 0-1 0 0z m-21 13l14 0 0 29-14 0z m21 59l-27 0c-4 0-6 2-6 6l0 41c0 4 2 7 6 7l27 0c3 0 6-3 6-7l0-42c0-3-3-5-6-5z m-21 12l14 0 0 30-14 0z m193-5l-139 0c-3 0-6 3-6 6l0 28c0 4 3 6 6 6l137 0c4 0 7-2 7-6l0-28c1-3-3-6-5-6z m-132 13l124 0 0 15-124 0z m132-67l-139 0c-3 0-6 3-6 6l0 28c0 4 3 6 6 6l137 0c4 0 7-2 7-6l0-28c0-3-3-6-5-6z m-131 13l124 0 0 16-125 0z m131-67l-139 0c-3 0-6 3-6 6l0 28c0 4 3 6 6 6l137 0c4 0 7-2 7-6l0-28c0-3-3-6-5-6z m-131 13l124 0 0 15-125 0z m131-67l-139 0c-3 0-6 3-6 6l0 28c0 4 3 6 6 6l137 0c4 0 7-2 7-6l0-28c0-3-3-6-5-6z m-131 13l124 0 0 15-125 0z m103-110l-83 0c-4 0-6 3-6 7l0 63c0 3 2 6 6 6l83 0c4 0 6-3 6-6l0-63c0-4-4-7-6-7z m-78 13l70 0 0 50-70 0z m-66-13l-65 0c-3 0-6 3-6 7l0 63c0 3 3 6 6 6l65 0c3 0 6-3 6-6l0-63c-1-4-4-7-6-7z m-59 13l52 0 0 50-52 0z m116 381l-192 0c-4 0-6 3-6 6l0 31c0 4 2 7 6 7l192 0c4 0 7-3 7-7l0-31c0-3-3-6-7-6z m-186 12l180 0 0 19-180 0z m174-330l114 0 0-13-114 0z m-236 60l12 0 0-85-12 0z m6-41c-28 0-50 27-50 62 0 34 22 63 50 63 28 0 50-27 50-63 0-35-22-62-50-62z m0 111c-21 0-39-22-39-50 0-27 18-50 39-50 21 0 39 23 39 50 0 29-18 50-39 50z m451-206l-99 0c-3 0-4 2-5 3-9 14-5 31 8 40 5 3 10 5 17 5 11 18 35 24 52 13 9-5 15-14 18-24 13-4 20-18 16-30 0-2 0-2-1-3-1-2-4-4-6-4z m-96 13l91 0c0 6-4 11-10 13-3 0-5 2-5 5-2 15-14 25-29 23-10-1-18-6-22-16-1-1-3-2-6-2l-2 0c-10 0-17-9-17-18 0-1 0-4 0-5z m-3-13l-167 0c-4 0-7 3-7 7l0 323c0 3 3 6 7 6l206 0c3 0 6-3 6-6l0-273c0-3-1-5-4-5-5-3-10-8-13-13-1-2-3-3-6-3l-2 0c-10 0-18-8-18-18 0-2 1-6 3-9 1-2 1-6-3-9 0 0-1 0-2 0z m-161 13l153 0c0 3 0 4 0 6 0 17 13 29 29 29 4 5 7 9 12 13l0 263-194 0z m-101-13l-118 0c-2 0-3 2-5 3-10 15-5 36 10 46 5 4 12 5 19 5 13 22 40 28 62 16 10-7 17-17 20-29 15-4 22-20 19-34 0-2-2-3-2-4-1-1-3-3-5-3z m-113 13l110 0c1 9-4 16-13 18-3 0-5 2-5 5-3 17-18 30-35 29-11-2-22-9-27-19-1-3-3-4-6-4l-5 0c-11 0-21-10-21-21 0-3 0-7 2-8z m208-13l-95 0c-3 0-6 3-6 7 0 1 0 1 0 2 1 2 1 4 1 7 0 7-6 13-14 15-2 0-5 2-5 5-1 7-3 13-8 18-2 2-2 3-2 4l0 342c0 4 3 6 7 6l168 0c4 0 6-2 6-6l0-70c0-4-2-7-6-7l-40 0 0-316c0-4-4-7-6-7z m-87 13l80 0 0 317c0 3 3 6 7 6l40 0 0 58-157 0 0-333c5-7 9-13 10-20 11-4 20-14 20-27 0 0 0-1 0-1z"/>
<glyph glyph-name="umbrella" unicode="&#57437;" d="M60 15c-1 1-3 2-3 3-12 17-9 45 12 65l139 139 9-9-139-140c-16-15-19-35-10-47 3-5 11-9 17-9 12 0 23 4 32 13l15 15 9-9-15-15c-11-11-25-18-42-17-9 0-18 3-24 11z m253 89c-4 4-5 7-4 13 3 24-7 47-25 63-14 14-32 23-51 26l1 12c23-2 44-14 59-29 20-19 32-46 29-74 0-2 0-2 3-2 28 2 56-8 74-30 16-15 26-36 29-58 0-1 0-1 1-3 1 0 1 0 3 2 86 112 80 270-14 374l-4 4 10 11c4 4 4 10 0 14-4 4-10 4-14 0l-10-11-4 4c-106 95-264 102-376 15-1 0-1-1-1-1 0-2 1-3 3-3 23-2 43-14 58-29 21-19 32-46 30-75 0 0 0-2 0-2 0 0 1 0 1 0 28 3 56-7 74-29 16-15 28-37 30-60l-12-1c-3 19-12 37-26 51-17 18-39 28-64 25-5-1-9 2-12 4-4 4-5 8-4 13 2 24-8 47-26 64-12 15-30 24-49 26-7 2-12 5-13 12-1 5 0 11 5 15 115 88 275 83 385-10l2 1c10 8 24 7 32-2 8-9 6-21 0-30l-3-2c96-110 100-271 11-387-4-5-11-7-16-5-6 1-10 6-10 12-2 19-11 37-27 51-16 18-39 28-63 26-4 0-9 1-12 5z m-203 212l-9 9c173 172 296 109 301 106l-6-11c-1 1-121 62-286-104z m212-212l-9 9c87 86 111 160 115 206 4 27 0 55-12 80l12 7c4-7 67-130-106-302z m-114 107c-2 1-2 2-2 4l-2 20c0 4 2 6 5 8 4 0 6-3 8-5l2-16 15-2c4 0 7-4 5-8 0-4-3-6-7-5l-21 3c-1 0-2 0-3 1z"/>
<glyph glyph-name="user" unicode="&#57438;" d="M256 0c-141 0-256 114-256 256 0 142 115 256 256 256 141 0 256-115 256-256 0-142-114-256-256-256z m0 498c-134 0-242-108-242-242 0-134 108-242 242-242 134 0 242 108 242 242 0 134-108 242-242 242z m166-435c-1 0-1 0-3 0-108 45-114 62-115 69 0 0 0 2 0 2l0 21c0 1 0 3 1 4 16 15 26 35 31 56 0 2 2 3 3 4 6 5 10 12 11 19 2 7 0 15-4 21 0 0-1 1-1 1-2 2-2 3-2 4l0 50c0 50-29 77-86 77-56 0-85-27-85-77l0-50c0-1 0-2-2-4-4-5-7-12-5-21 1-7 4-14 9-20l2-1c1-1 3-3 3-4 5-21 15-41 31-56 1 2 1 1 1-2l0-21c0 0 0-1 0-1-3-12-20-30-113-68-4-1-7 0-9 4-2 5 0 7 4 10 86 35 101 52 104 58l0 18c-16 17-25 37-32 58-9 7-14 17-16 28-1 10 2 21 9 29l0 47c0 58 36 91 99 91 65 0 100-32 100-91l0-47c7-9 9-21 7-30-1-10-7-20-15-26-6-21-17-41-33-57l0-19c3-5 19-22 107-59 5-1 6-5 5-10 0-5-3-7-6-7z"/>
<glyph glyph-name="pdf" unicode="&#57439;" d="M94 77c-7 0-15 0-19 8-2 9-2 17 0 24 2 10 8 19 17 28 15 12 32 23 49 32 10 4 21 10 34 14 21 32 38 69 53 105 2 4 5 11 7 15-5 11-9 19-11 30-4 13-6 25-9 38-2 11-2 22 0 32 0 9 3 15 7 24 4 6 8 10 15 12 2 0 4 3 8 3 5 0 7 0 11 0 0 0 2 0 2 0 4-3 7-5 11-7 10-8 8-19 8-34l0-8c-6-30-12-60-21-90 0-2 2-4 2-6 11-20 21-37 36-54 9-10 15-19 24-28 13 0 25 0 38 0 13 0 26-2 37-6 10-2 21-6 29-13 9-6 17-13 22-23 4-11 4-22 0-30-5-9-13-15-22-17-8-2-19-2-27 0-13 4-24 11-32 17-13 8-26 21-39 32-6 6-10 11-17 17-8 0-19 0-30-2-19-4-38-9-55-13-11-2-21-6-32-11 0-2-2-2-2-4-15-23-34-47-54-66-8-9-21-15-34-19-4 0-6 0-6 0z m57 74c0-2-2-2-2-2-17-8-32-17-44-30-7-4-9-10-11-17 0-2 0-2 0-4 8 2 17 7 23 13 13 13 24 26 34 40z m186 45c2-2 2-2 4-4 11-11 24-21 34-30 9-6 18-11 28-15 4-2 11-2 15 0 4 0 7 4 9 7 2 4 2 8 0 12-2 7-9 11-13 15-9 5-15 9-24 9-10 2-23 4-34 6-6 0-13 0-19 0z m-90 81c-10-27-25-55-40-83 2 0 6 2 8 2 20 7 39 11 58 13 6 2 13 2 19 4-4 7-10 13-15 20-10 12-21 27-30 44z m3 143c0 0-3 0 0 0-3 0-5 0-5 0-2 0-4-2-4-4-2-4-4-9-4-13-2-10-2-19 0-30 2-12 4-23 6-36 0 0 0 0 0-2 4 19 9 38 11 58l0 8c2 6 2 11 2 15 0 0-2 0-2 2 0 0-2 0-4 2z m189-420l-366 0c-41 0-73 32-73 73l0 366c0 41 32 73 73 73l366 0c41 0 73-32 73-73l0-366c0-41-32-73-73-73z m-366 491c-28 0-52-24-52-52l0-366c0-30 24-52 52-52l366 0c30 0 52 22 52 52l0 366c0 28-22 52-52 52z"/>
<glyph glyph-name="date-picker" unicode="&#57370;" d="M446 425l-48 0 0 73-48 0 0-73-189 0 0 73-48 0 0-73-47 0c-17 0-31-14-31-32l0-346c0-18 14-32 31-32l381 0c17 0 31 14 31 32l0 346c0 18-15 32-32 32z m0-381l-380 0 0 285 381 0 0-285z"/>
<glyph glyph-name="shield" unicode="&#57403;" d="M438 260c0-179-178-231-187-234l-2 0c-7 3-187 55-187 234l0 135c0 3 2 4 5 4 9-4 20-5 32-5 20 0 93 6 147 86 2 1 5 1 6 0 49-70 108-85 148-85 20 0 33 4 33 4 3 0 4-1 4-4z m-11 159c0 0-10-2-26-2-35 0-87 13-130 76-9 13-32 13-40 0-49-71-112-76-131-76-12 0-20 2-26 3-16 3-32-9-32-25l0-134c0-194 194-251 202-254 2 0 5-1 6-1 2 0 5 0 7 1 9 3 203 60 203 254l0 134c0 16-17 28-33 24z"/>
<glyph glyph-name="refresh" unicode="&#57447;" d="M468 317c-5 0-10 2-12 9-25 88-107 149-200 149-93 0-175-61-200-149-2-7-9-12-14-9-7 2-12 9-9 13 28 101 118 168 223 168 105 0 195-67 223-168 3-7-2-11-7-13-2 0-4 0-4 0z m0 0c-3 0-3 0-5 0l-77 30c-7 2-9 9-7 14 3 7 10 9 14 7l65-26 26 68c2 7 9 9 14 7 7-3 9-10 7-14l-30-80c0-2-3-4-7-6 2 0 2 0 0 0z m-212-282c-102 0-193 67-223 167-3 7 2 12 7 14 7 3 11-2 14-7 30-90 109-151 202-151 93 0 175 61 200 149 2 7 7 9 14 7 7-2 9-9 7-14-26-98-116-165-221-165z m-242 79c-2 0-2 0-5 0-7 2-9 9-7 14l31 79c0 2 2 5 7 7 2 2 7 2 9 0l74-30c7-2 10-9 7-16-2-7-9-10-16-7l-63 25-25-67c-3-3-7-5-12-5z"/>
<glyph glyph-name="twitter" unicode="&#57440;" d="M481 395c-13-18-28-34-46-47 0-3 0-7 0-12 0-25-3-50-11-74-7-25-18-49-33-71-14-23-32-43-52-61-21-17-45-31-74-41-29-11-60-16-92-16-52 0-99 14-142 42 7-1 14-2 22-2 43 0 81 14 115 40-20 0-38 6-54 18-16 12-27 27-33 46 7-1 13-2 18-2 8 0 16 1 24 4-21 4-39 15-53 31-14 17-21 37-21 59l0 1c13-7 27-11 42-11-13 8-23 19-30 32-8 14-11 29-11 44 0 17 4 33 12 47 23-28 51-51 84-68 33-17 69-27 107-29-2 8-3 15-3 22 0 25 9 47 27 65 18 18 40 27 66 27 26 0 49-10 67-29 21 4 40 11 59 22-7-22-21-39-41-51 18 2 35 7 53 14z"/>
<glyph glyph-name="youtube" unicode="&#57441;" d="M314 157l0-61c0-12-4-19-11-19-5 0-9 2-13 6l0 86c4 5 8 7 13 7 7 0 11-7 11-19z m97-1l0-13-26 0 0 13c0 13 4 20 13 20 8 0 13-7 13-20z m-276 63l30 0 0 26-89 0 0-26 30 0 0-163 29 0z m82-163l25 0 0 141-25 0 0-108c-6-8-11-12-16-12-4 0-6 2-6 6-1 1-1 4-1 10l0 104-25 0 0-112c0-9 1-16 2-20 2-7 8-11 17-11 9 0 19 6 29 17z m122 42l0 57c0 13 0 23-2 28-3 11-10 16-20 16-10 0-19-5-27-16l0 62-25 0 0-189 25 0 0 14c9-11 17-16 27-16 10 0 17 5 20 16 2 5 2 14 2 28z m97 3l0 4-26 0c0-10 0-16-1-18-1-6-5-10-11-10-9 0-13 7-13 20l0 25 51 0 0 29c0 15-3 26-8 33-7 10-17 15-30 15-13 0-23-5-31-15-5-7-8-18-8-33l0-49c0-15 3-26 9-33 7-10 17-15 31-15 13 0 24 5 30 15 4 5 6 10 6 16 1 1 1 7 1 16z m-174 261l0 60c0 13-4 20-12 20-8 0-12-7-12-20l0-60c0-13 4-20 12-20 8 0 12 7 12 20z m206-215c0-44-3-77-8-100-2-11-8-20-16-28-9-7-18-12-29-13-35-4-88-6-159-6-71 0-124 2-159 6-11 1-20 6-29 13-8 8-14 17-16 28-5 22-8 55-8 100 0 45 3 78 8 100 2 12 8 21 16 29 9 7 18 12 30 13 35 4 87 6 158 6 71 0 124-2 159-6 11-1 20-6 29-13 8-8 14-17 16-29 5-21 8-54 8-100z m-285 365l29 0-35-114 0-77-28 0 0 77c-3 14-9 34-18 61-7 19-13 37-18 53l30 0 20-75z m105-95l0-50c0-16-2-27-8-34-7-10-17-14-30-14-13 0-23 4-30 14-5 7-8 19-8 34l0 50c0 15 3 26 8 33 7 10 17 15 30 15 13 0 23-5 30-15 6-7 8-18 8-33z m96 46l0-142-26 0 0 15c-10-12-20-17-29-17-9 0-15 3-17 10-2 5-3 12-3 22l0 112 26 0 0-105c0-6 1-9 1-10 0-4 2-6 6-6 5 0 10 4 16 12l0 109z"/>
<glyph glyph-name="spinner" unicode="&#57442;" d="M150 114c0-10-3-19-10-26-8-7-16-11-26-11-10 0-19 4-26 11-7 7-11 16-11 26 0 10 4 18 11 26 7 7 16 10 26 10 10 0 18-3 26-10 7-8 10-16 10-26z m143-59c0-10-4-19-11-26-7-7-16-11-26-11-10 0-19 4-26 11-7 7-11 16-11 26 0 10 4 19 11 26 7 7 16 10 26 10 10 0 19-3 26-10 7-7 11-16 11-26z m-202 201c0-10-3-19-10-26-7-7-16-11-26-11-10 0-19 4-26 11-7 7-11 16-11 26 0 10 4 19 11 26 7 7 16 11 26 11 10 0 19-4 26-11 7-7 10-16 10-26z m344-142c0-10-4-19-11-26-7-7-16-11-26-11-10 0-18 4-26 11-7 7-10 16-10 26 0 10 3 18 10 26 8 7 16 10 26 10 10 0 19-3 26-10 7-8 11-16 11-26z m-276 284c0-12-4-23-13-32-9-9-20-13-32-13-13 0-24 4-33 13-9 9-13 20-13 32 0 13 4 24 13 33 9 9 20 13 33 13 12 0 23-4 32-13 9-9 13-20 13-33z m335-142c0-10-4-19-11-26-7-7-16-11-26-11-10 0-19 4-26 11-7 7-10 16-10 26 0 10 3 19 10 26 7 7 16 11 26 11 10 0 19-4 26-11 7-7 11-16 11-26z m-183 201c0-15-5-28-16-39-11-10-24-16-39-16-15 0-28 6-39 16-11 11-16 24-16 39 0 15 5 28 16 39 11 11 24 16 39 16 15 0 28-5 39-16 11-11 16-24 16-39z m151-59c0-17-6-33-19-45-12-12-27-19-45-19-17 0-33 7-45 19-12 12-19 28-19 45 0 18 7 33 19 45 12 13 28 19 45 19 18 0 33-6 45-19 13-12 19-27 19-45z"/>
<glyph glyph-name="google-plus" unicode="&#57443;" d="M319 252c0-31-6-58-19-82-13-24-31-43-55-57-24-13-51-20-82-20-22 0-43 4-63 13-21 9-38 20-52 35-15 14-27 32-35 52-9 20-13 41-13 63 0 22 4 43 13 63 8 20 20 38 35 52 14 15 31 26 52 35 20 9 41 13 63 13 42 0 79-14 109-43l-44-42c-18 17-39 25-65 25-18 0-35-5-51-14-15-9-27-22-36-37-9-16-14-33-14-52 0-19 5-36 14-52 9-15 21-28 36-37 16-9 33-14 51-14 12 0 23 2 34 5 10 4 19 8 25 13 7 5 13 11 18 17 5 7 8 13 11 19 2 6 3 11 4 16l-92 0 0 56 154 0c1-9 2-18 2-27z m193 27l0-46-46 0 0-47-47 0 0 47-47 0 0 46 47 0 0 47 47 0 0-47z"/>
<glyph glyph-name="caret-down-alt" unicode="&#57444;" d="M402 311c0-5-2-9-5-13l-128-128c-4-4-8-5-13-5-5 0-9 1-13 5l-128 128c-3 4-5 8-5 13 0 5 2 9 5 13 4 3 8 5 13 5l256 0c5 0 9-2 13-5 3-4 5-8 5-13z"/>
<glyph glyph-name="caret-left-alt" unicode="&#57445;" d="M347 384l0-256c0-5-1-9-5-13-4-3-8-5-13-5-5 0-9 2-13 5l-128 128c-3 4-5 8-5 13 0 5 2 9 5 13l128 128c4 3 8 5 13 5 5 0 9-2 13-5 4-4 5-8 5-13z"/>
<glyph glyph-name="caret-right-alt" unicode="&#57446;" d="M329 256c0-5-2-9-5-13l-128-128c-4-3-8-5-13-5-5 0-9 2-13 5-4 4-5 8-5 13l0 256c0 5 1 9 5 13 4 3 8 5 13 5 5 0 9-2 13-5l128-128c3-4 5-8 5-13z"/>
<glyph glyph-name="caret-up-alt" unicode="&#57448;" d="M402 165c0-5-2-10-5-13-4-4-8-6-13-6l-256 0c-5 0-9 2-13 6-3 3-5 8-5 13 0 5 2 9 5 12l128 128c4 4 8 6 13 6 5 0 9-2 13-6l128-128c3-3 5-7 5-12z"/>
<glyph glyph-name="linkedin" unicode="&#57449;" d="M136 333l0-283-94 0 0 283z m6 88c0-14-4-26-14-35-10-9-23-14-39-14l0 0c-16 0-29 5-38 14-10 9-14 21-14 35 0 14 4 26 14 35 10 9 23 14 39 14 16 0 28-5 38-14 9-9 14-21 14-35z m333-208l0-163-94 0 0 152c0 20-3 35-11 47-8 11-20 17-36 17-12 0-22-4-30-10-9-7-15-15-19-25-2-5-3-13-3-23l0-158-94 0c1 76 1 138 1 185 0 47 0 76 0 85l-1 13 94 0 0-41 0 0c4 6 7 12 11 16 4 5 10 10 17 15 6 5 15 10 24 13 10 3 21 4 33 4 33 0 59-11 79-32 20-22 29-54 29-95z"/>
<glyph glyph-name="facebook" unicode="&#57450;" d="M384 509l0-76-45 0c-17 0-28-3-33-10-6-7-9-17-9-31l0-54 84 0-11-85-73 0 0-216-87 0 0 216-73 0 0 85 73 0 0 62c0 36 10 63 29 83 20 19 47 29 80 29 28 0 49-1 65-3z"/>
<glyph glyph-name="play" unicode="&#57451;" d="M450 247l-379-211c-5-2-8-2-11-1-4 2-5 6-5 11l0 420c0 5 1 9 5 11 3 1 6 1 11-1l379-211c5-3 7-6 7-9 0-3-2-6-7-9z"/>
<glyph glyph-name="sort-down" unicode="&#57452;" d="M402 201c0-5-2-9-5-13l-128-128c-4-3-8-5-13-5-5 0-9 2-13 5l-128 128c-3 4-5 8-5 13 0 5 2 9 5 13 4 4 8 5 13 5l256 0c5 0 9-1 13-5 3-4 5-8 5-13z"/>
<glyph glyph-name="sort-up" unicode="&#57453;" d="M402 311c0-5-2-9-5-13-4-4-8-5-13-5l-256 0c-5 0-9 1-13 5-3 4-5 8-5 13 0 5 2 9 5 13l128 128c4 3 8 5 13 5 5 0 9-2 13-5l128-128c3-4 5-8 5-13z"/>
<glyph glyph-name="fax" unicode="&#57454;" d="M215 494l0-103-20 0c-17 0-30-13-30-30l0-226c0-17 13-30 30-30l21 0c-3-34-32-61-66-61-34 0-63 28-66 61l31 0c17 0 30 13 30 30l0 287c0 17-13 30-30 30l-85 0c-17 0-30-13-30-30l0-287c0-17 13-30 30-30l31 0c2-45 40-82 87-82 46 0 84 37 86 82l246 0c17 0 31 13 31 30l0 226c0 17-14 30-31 30l-20 0 0 103z m20-21l205 0 0-123-205 0z m-205-40l82 0c6 0 10-5 10-10l0-286c0-7-5-10-10-10l-82 0c-6 0-9 5-9 10l0 285c0 6 5 11 9 11z m165-62l21 0 0-42 246 0 0 42 21 0c6 0 9-5 9-10l0-226c0-6-4-9-9-9l-288 0c-6 0-10 4-10 9l0 226c-1 5 4 10 10 10z m82-61c-11 0-21-10-21-21 0-11 10-21 21-21 11 0 20 10 20 21 0 11-9 21-20 21z m61 0c-11 0-21-10-21-21 0-11 10-21 21-21 11 0 20 10 20 21 0 11-9 21-20 21z m62 0c-11 0-21-10-21-21 0-11 10-21 21-21 11 0 21 10 21 21-2 11-10 21-21 21z m-123-63c-11 0-21-9-21-20 0-11 10-21 21-21 11 0 20 10 20 21 0 11-9 20-20 20z m61 0c-11 0-21-9-21-20 0-11 10-21 21-21 11 0 20 10 20 21 0 11-9 20-20 20z m62 0c-11 0-21-9-21-20 0-11 10-21 21-21 11 0 21 10 21 21 0 11-10 20-21 20z m-123-60c-11 0-21-10-21-21 0-11 10-21 21-21 11 0 20 10 20 21 0 11-9 21-20 21z m61 0c-11 0-21-10-21-21 0-11 10-21 21-21 11 0 20 10 20 21 0 11-9 21-20 21z m62 0c-11 0-21-10-21-21 0-11 10-21 21-21 11 0 21 10 21 21-2 11-10 21-21 21z"/>
</font>
</defs>
</svg>
