<svg data-name="AMEX grey" xmlns="http://www.w3.org/2000/svg" viewBox="0 0 513.04 318.58">
  <title>
    american-express-card-grey
  </title>
  <path d="M474.68 0H28.67C15.92 0 3.18 12.74 3.18 25.48v254.87q0 38.23 38.23 38.23h433.27q38.23 0 38.23-38.23V38.22Q512.87 0 474.68 0z" fill="#666"/>
  <path d="M46.25 116.68l-9.87-24.06-9.82 24.06zm217.48-9.58c-2 1.2-4.33 1.24-7.13 1.24h-17.52v-13.4h17.79c2.51 0 5.14.11 6.84 1.09a5.52 5.52 0 0 1 3 5.33c0 2.64-1.1 4.76-3 5.74zm125 9.58l-10-24.06-9.86 24.06zm-233 26h-14.79l-.07-47.23-20.9 47.26h-12.66l-21-47.3v47.3H57l-5.54-13.46h-30l-5.59 13.46H.16l25.83-60.34h21.43l24.53 57.13V82.37h23.54l18.88 40.94 17.34-40.94h24v60.34zm58.93 0h-48.18V82.37h48.18v12.57h-33.79v10.88h33v12.37h-33v12.05h33.76v12.48zm67.94-44.09a17 17 0 0 1-10.16 16.08 16.72 16.72 0 0 1 7.13 5.08c2 3 2.39 5.68 2.39 11.07v11.85h-14.55l-.05-7.61c0-3.63.35-8.85-2.28-11.76-2.11-2.12-5.32-2.58-10.51-2.58h-15.49v21.95h-14.42v-60.3h33.21c7.37 0 12.8.19 17.47 2.89s7.3 6.63 7.3 13.36zm23.08 44.09h-14.72V82.37h14.72v60.34zm170.74 0h-20.44l-27.34-45.26v45.29h-29.38l-5.61-13.46h-30l-5.45 13.46h-16.84c-7 0-15.89-1.55-20.91-6.67s-7.71-12.06-7.71-23c0-8.95 1.58-17.13 7.78-23.6 4.66-4.82 12-7 21.9-7h14V95.3h-13.7c-5.26 0-8.24.78-11.1 3.57-2.46 2.54-4.15 7.34-4.15 13.67s1.28 11.13 4 14.17c2.22 2.39 6.26 3.11 10.05 3.11H348l20.3-47.45h21.57l24.42 57.08V82.37h22l25.35 42v-42h14.77v60.34zM0 154.57h24.64l5.56-13.4h12.44l5.54 13.4h48.49v-10.25l4.33 10.29h25.17l4.33-10.44v10.4H251l-.06-22h2.33c1.63.06 2.11.21 2.11 2.9v19.1h62.33v-5.12c5 2.69 12.85 5.12 23.14 5.12h26.22l5.61-13.4h12.44l5.49 13.4h50.53v-12.7l7.65 12.73h40.48V70.41H449.2v9.94l-5.61-9.94h-41.12v9.94l-5.15-9.94h-55.54c-9.3 0-17.47 1.3-24.07 4.91v-4.91h-38.33v4.91c-4.2-3.73-9.92-4.91-16.29-4.91h-140l-9.4 21.74-9.65-21.74H59.92v9.94l-4.85-9.94H17.46l-17.47 40v44.16zm513 44.44h-26.25c-2.62 0-4.37.1-5.84 1.09a4.7 4.7 0 0 0-2.11 4.34 4.55 4.55 0 0 0 3.15 4.5 16.44 16.44 0 0 0 5.56.68l7.82.21c7.89.19 13.15 1.55 16.36 4.86a7.77 7.77 0 0 1 1.34 1.49zm0 39.79c-3.5 5.12-10.33 7.72-19.57 7.72h-27.82v-12.95h27.74c2.75 0 4.68-.36 5.84-1.49a5.31 5.31 0 0 0 1.71-3.94 5 5 0 0 0-1.76-4c-1-.92-2.57-1.34-5.08-1.34-13.54-.46-30.44.42-30.44-18.68 0-8.75 5.56-18 20.69-18h28.73v-12h-26.7c-8.06 0-13.91 1.93-18.05 4.93v-4.93h-39.48c-6.31 0-13.73 1.57-17.23 4.93v-4.93h-70.51v4.93c-5.61-4-15.08-4.93-19.45-4.93h-46.51v4.93c-4.44-4.3-14.31-4.93-20.33-4.93h-52l-11.91 12.92-11.2-12.89h-77.8v84.22h76.29l12.27-13.09 11.56 13.09h47V238.6h4.62c6.24.1 13.6-.15 20.09-3v22.77h38.79v-22h1.87c2.39 0 2.62.1 2.62 2.48v19.52h117.89c7.48 0 15.3-1.91 19.63-5.39v5.39h37.37c7.78 0 15.37-1.09 21.15-3.88v-15.7zm-57.53-24.11c2.81 2.91 4.31 6.58 4.31 12.79 0 13-8.11 19-22.66 19h-28.06v-12.91h28c2.74 0 4.68-.36 5.89-1.49a5.35 5.35 0 0 0 1.7-3.94 5.18 5.18 0 0 0-1.76-4c-1.1-.92-2.62-1.34-5.14-1.34-13.49-.46-30.38.42-30.38-18.68 0-8.75 5.5-18 20.62-18h28.88v12.85h-26.43c-2.62 0-4.33.1-5.78 1.09a5.06 5.06 0 0 0 1 8.84 16.58 16.58 0 0 0 5.61.68l7.76.21c7.83.19 13.2 1.55 16.47 4.85zm-130.15-3.73c-1.93 1.14-4.32 1.24-7.12 1.24h-17.49v-13.56h17.76c2.57 0 5.14.05 6.88 1.09a5.74 5.74 0 0 1 3 5.43 6.51 6.51 0 0 1-3 5.79zm8.71 7.51a15.68 15.68 0 0 1 7.07 5.07c2 2.95 2.33 5.7 2.39 11v12h-14.45v-7.55c0-3.63.35-9-2.33-11.81-2.11-2.16-5.32-2.68-10.58-2.68h-15.42v22h-14.49v-60.34h33.3c7.3 0 12.62.32 17.35 2.85 4.55 2.75 7.42 6.52 7.42 13.4a16.9 16.9 0 0 1-10.22 16.06zm18.22-32.31h48.14v12.48h-33.74v11h33v12.31h-33v12l33.78.05v12.52h-48.15v-60.36zm-97.28 27.85h-18.64v-15.37h18.81c5.21 0 8.82 2.12 8.82 7.4s-3.45 8-9 8zm-33 27l-22.14-24.59 22.14-23.8v48.39zm-57.19-7.09h-35.47v-12h31.67v-12.31h-31.67v-11h36.16l15.78 17.59-16.48 17.74zm114.67-27.89c0 16.77-12.51 20.23-25.12 20.23h-18v20.24h-28l-17.76-20-18.46 20h-57.17v-60.34h58l17.75 19.78 18.35-19.78h46.09c11.45 0 24.31 3.17 24.31 19.88z" fill="#fff"/>
</svg>
