<svg id="AMEX" xmlns="http://www.w3.org/2000/svg" viewBox="0 0 513 318.6">
  <style>
    .amex-color-fill{fill:#fff}
  </style>
  <path id="Rectangle-1" d="M474.7 0h-446C15.9 0 3.2 12.7 3.2 25.5v254.9c0 25.5 12.7 38.2 38.2 38.2h433.3c25.5 0 38.2-12.7 38.2-38.2V38.2c0-25.5-12.8-38.2-38.2-38.2z" fill="#306fc5"/>
  <path class="amex-color-fill" d="M26.5 116.7h19.7l-9.9-24.1zm237.2-9.6c1.9-1 3-3.1 3-5.8.2-2.2-1-4.3-3-5.3-1.7-1-4.3-1.1-6.8-1.1h-17.8v13.4h17.5c2.8 0 5.1 0 7.1-1.2zm115-14.5l-9.9 24.1h19.9zM513 238.8c-3.5 5.1-10.3 7.7-19.6 7.7h-27.8v-12.9h27.7c2.8 0 4.7-.4 5.8-1.5 1.1-1 1.7-2.4 1.7-3.9.1-1.5-.6-3-1.8-4-1-.9-2.6-1.3-5.1-1.3-13.5-.5-30.4.4-30.4-18.7 0-8.8 5.6-18 20.7-18H513v-12h-26.7c-8.1 0-13.9 1.9-18 4.9v-4.9h-39.5c-6.3 0-13.7 1.6-17.2 4.9v-4.9h-70.5v4.9c-5.6-4-15.1-4.9-19.5-4.9h-46.5v4.9c-4.4-4.3-14.3-4.9-20.3-4.9h-52L190.9 187l-11.2-12.9h-77.8v84.2h76.3l12.3-13.1 11.6 13.1h47v-19.8h4.6c6.2.1 13.6-.1 20.1-3v22.8h38.8v-22h1.9c2.4 0 2.6.1 2.6 2.5v19.5H435c7.5 0 15.3-1.9 19.6-5.4v5.4H492c7.8 0 15.4-1.1 21.2-3.9l-.2-15.6zm-258.6-12.6h-18v20.2h-28l-17.8-20-18.5 20h-57.2v-60.3h58l17.8 19.8 18.4-19.8h46.1c11.4.1 24.2 3.2 24.3 19.9 0 16.8-12.5 20.2-25.1 20.2zm86.7-2.6c2 2.9 2.3 5.7 2.4 11v12H329V239c0-3.6.4-9-2.3-11.8-2.1-2.2-5.3-2.7-10.6-2.7h-15.4v22h-14.5v-60.3h33.3c7.3 0 12.6.3 17.4 2.9 4.5 2.8 7.4 6.5 7.4 13.4.2 6.9-3.8 13.2-10.3 16 2.8 1 5.2 2.7 7.1 5.1zm59.3 23h-48.1l-.1-60.4h48.1v12.5h-33.7v11h33V222h-33v12l33.8.1v12.5zm36.7-.1H409v-12.9h28c2.7 0 4.7-.4 5.9-1.5 1.1-1 1.7-2.4 1.7-3.9s-.6-3-1.8-4c-1.1-.9-2.6-1.3-5.1-1.3-13.5-.5-30.4.4-30.4-18.7 0-8.8 5.5-18 20.6-18h28.9V199h-26.4c-2.6 0-4.3.1-5.8 1.1-2.3 1.6-2.9 4.8-1.3 7 .6.8 1.3 1.4 2.3 1.8 1.8.5 3.7.8 5.6.7l7.8.2c7.9.2 13.2 1.5 16.5 4.9 2.8 2.9 4.3 6.6 4.3 12.8 0 13-8.1 19-22.7 19z"/>
  <path class="amex-color-fill" d="M486.8 199c-2.6 0-4.4.1-5.8 1.1-1.4.9-2.3 2.6-2.1 4.3-.1 2 1.2 3.9 3.1 4.5 1.8.5 3.7.8 5.6.7l7.8.2c7.9.2 13.1 1.6 16.4 4.9.5.4 1 .9 1.3 1.5L513 199h-26.2zm-161.4.7c-1.8-1-4.3-1.1-6.9-1.1h-17.8v13.6h17.5c2.8 0 5.2-.1 7.1-1.2 2-1.3 3.2-3.5 3.1-5.9.1-2.2-1-4.3-3-5.4zM222 241v-48.4l-22.1 23.8zm-92.7-42.4v11H161v12.3h-31.7v12h35.5l16.5-17.7-15.8-17.6zm1.1-54.3v10.4H251l-.1-22h2.3c1.6.1 2.1.2 2.1 2.9v19.1h62.3v-5.1c5 2.7 12.9 5.1 23.1 5.1h26.2l5.6-13.4h12.4l5.5 13.4h50.5V142l7.6 12.7H489V70.4h-40.1v9.9l-5.6-9.9h-41.1v9.9l-5.1-9.9h-55.5c-9.3 0-17.5 1.3-24.1 4.9v-4.9h-38.3v4.9c-4.2-3.7-9.9-4.9-16.3-4.9h-140l-9.4 21.7-9.5-21.7H59.9v9.9l-4.8-9.9H17.5L0 110.4v44.2h24.6l5.6-13.4h12.4l5.5 13.4h48.5v-10.2l4.3 10.3h25.2l4.3-10.4zm190.2-54.9c4.7-4.8 12-7 21.9-7h14v12.9h-13.7c-5.3 0-8.2.8-11.1 3.6-2.5 2.5-4.1 7.3-4.1 13.7 0 6.4 1.3 11.1 4 14.2 2.2 2.4 6.3 3.1 10 3.1h6.5l20.3-47.4H390l24.4 57.1V82.4h22l25.4 42v-42h14.8l-.2 60.3H456l-27.3-45.3v45.3h-29.4l-5.6-13.5h-30l-5.5 13.5h-16.8c-7 0-15.9-1.6-20.9-6.7-5-5.1-7.7-12.1-7.7-23 0-8.9 1.6-17.1 7.8-23.6zm-29.6-7h14.7v60.3H291V82.4zm-66.3 0h33.2c7.4 0 12.8.2 17.5 2.9s7.2 6.6 7.2 13.3c.2 6.9-3.8 13.3-10.2 16.1 2.8 1 5.2 2.8 7.1 5.1 2 3 2.4 5.7 2.4 11.1v11.9h-14.5v-7.6c0-3.6.4-8.8-2.3-11.8-2.1-2.1-5.3-2.6-10.5-2.6h-15.5v21.9h-14.4V82.4zm-58.2 0h48.2V95h-33.8v10.9h33v12.4h-33v12h33.8v12.4h-48.2V82.4zm-59.2 60.3l-21-47.3v47.3H57l-5.5-13.5h-30l-5.6 13.5H.2L26 82.4h21.4L72 139.5V82.4h23.5l18.9 40.9 17.3-40.9h24v60.3h-14.8l-.1-47.2-20.8 47.2h-12.7zm147.9 55.9h-18.8V214H255c5.5 0 9-2.7 9-8s-3.6-7.4-8.8-7.4z"/>
</svg>
