<?xml version="1.0" encoding="utf-8"?>
<!-- Generator: Adobe Illustrator 22.0.1, SVG Export Plug-In . SVG Version: 6.00 Build 0)  -->
<svg version="1.1" id="Layer_2_1_" xmlns="http://www.w3.org/2000/svg" xmlns:xlink="http://www.w3.org/1999/xlink" x="0px" y="0px"
	 viewBox="0 0 512 318.1" style="enable-background:new 0 0 512 318.1;" xml:space="preserve">
<style type="text/css">
	.disc-1{fill:#FFFFFF;}
	.disc-2{fill:#EF7D00;}
	.disc-3{fill:url(#DISC_RADIAL);}
	.disc-4{fill:#05171D;}
	.disc-5{fill:#1D1D1B;}
</style>
<path id="white-back" class="disc-1" d="M481.9,5C495.7,5,507,16.3,507,30.1V288c0,13.9-11.3,25.1-25.1,25.1H30.1
	C16.2,313.1,5,301.9,5,288V30.1C5,16.2,16.2,5,30.1,5H481.9"/>
<title>discover-card</title>
<path class="disc-2" d="M481.9,5C495.8,5,507,16.3,507,30.1V288c0,13.9-11.3,25.1-25.1,25.1H30.1C16.3,313.1,5,301.9,5,288V30.1
	C5,16.2,16.3,5,30.1,5H481.9 M481.9,0H30.1C13.5,0,0,13.5,0,30.1V288c0,16.6,13.5,30.1,30.1,30.1c0,0,0,0,0,0h451.8
	c16.6,0,30.1-13.5,30.1-30.1c0,0,0,0,0,0V30.1C512,13.5,498.5,0,481.9,0z"/>
<path class="disc-2" d="M508.6,298.8V177.2c0,0-136.7,96.4-386.9,139.6h359.5C496.6,316.3,505.5,311.3,508.6,298.8z"/>
<radialGradient id="DISC_RADIAL" cx="266.93" cy="102.4" r="36.7173" gradientTransform="matrix(1 0 0 1 5.32 13.88)" gradientUnits="userSpaceOnUse">
	<stop  offset="1.000000e-02" style="stop-color:#FFF2E8"/>
	<stop  offset="0.1" style="stop-color:#FEEDDF"/>
	<stop  offset="0.24" style="stop-color:#FDE1C7"/>
	<stop  offset="0.43" style="stop-color:#FACD9F"/>
	<stop  offset="0.65" style="stop-color:#F6B168"/>
	<stop  offset="0.89" style="stop-color:#F08E22"/>
	<stop  offset="1" style="stop-color:#EE7D00"/>
</radialGradient>
<path class="disc-3" d="M272.3,80c-20.5,0-37.2,16-37.2,35.8c0,21,15.9,36.8,37.2,36.8c20.7,0,37.1-15.9,37.1-36.4S293.1,80,272.3,80
	L272.3,80z"/>
<path class="disc-4" d="M61.2,81.3h-20V151h19.9c10.6,0,18.2-2.5,24.9-8c8-6.6,12.6-16.4,12.7-26.8C98.6,95.6,83.2,81.3,61.2,81.3z
	 M77.1,133.6c-4.3,3.9-9.8,5.6-18.6,5.6h-3.7V93.1h3.7c8.8,0,14.1,1.6,18.6,5.6c4.8,4.5,7.6,10.8,7.5,17.3
	C84.7,122.7,82,129.1,77.1,133.6L77.1,133.6z"/>
<path class="disc-4" d="M104.9,81.3h13.6V151h-13.6V81.3z"/>
<path class="disc-4" d="M151.8,108c-8.2-3-10.6-5-10.6-8.8c0-4.4,4.3-7.7,10.1-7.7c4.1,0,7.4,1.7,11,5.6l7.1-9.3
	c-5.6-5-13-7.8-20.5-7.7c-12.3,0-21.7,8.6-21.7,20c0,9.6,4.4,14.5,17.1,19.2c5.3,1.9,8,3.1,9.4,4c2.5,1.5,4.1,4.2,4.1,7.2
	c0,5.6-4.5,9.8-10.6,9.8c-6.5,0-11.7-3.2-14.8-9.3l-8.8,8.5c6.3,9.2,13.8,13.3,24.1,13.3c14.1,0,24-9.4,24-22.9
	C171.8,118.7,167.2,113.7,151.8,108L151.8,108z M176.1,116.2c0,20.5,16.1,36.4,36.8,36.4c5.9,0,11.7-1.4,17-4.1v-16
	c-5.4,5.4-10.2,7.6-16.4,7.6c-13.7,0-23.4-9.9-23.4-24.1c0-13.4,10-23.9,22.8-23.9c6.5,0,11.4,2.3,17,7.8V84
	c-5.1-2.8-10.9-4.3-16.7-4.3C192.6,79.7,176.1,95.9,176.1,116.2L176.1,116.2z"/>
<path class="disc-4" d="M340.1,128.1l-18.6-46.8h-14.9l29.6,71.5h7.3l30.1-71.5H359L340.1,128.1L340.1,128.1z M379.9,151h38.6v-11.8
	h-25v-18.8h24v-11.8h-24V93.1h25V81.3h-38.6L379.9,151L379.9,151z"/>
<path class="disc-4" d="M472.3,101.9c0-13.1-9-20.6-24.7-20.6h-20.2V151h13.6v-28h1.8l18.8,28h16.7l-22-29.4
	C466.7,119.5,472.3,112.5,472.3,101.9z M445,113.4h-4V92.2h4.2c8.5,0,13.1,3.6,13.1,10.3C458.3,109.6,453.7,113.4,445,113.4z"/>
<path class="disc-5" d="M481.9,86.5c0-1.2-0.8-1.9-2.3-1.9h-2v6.1h1.5v-2.4l1.7,2.4h1.8l-2-2.5C481.4,88,481.9,87.3,481.9,86.5
	L481.9,86.5z M479.3,87.3h-0.3v-1.6h0.3c0.7,0,1.1,0.3,1.1,0.8S480.1,87.3,479.3,87.3L479.3,87.3z"/>
<path class="disc-5" d="M479.9,82.3c-3,0-5.4,2.3-5.4,5.3s2.3,5.4,5.3,5.4c3,0,5.4-2.3,5.4-5.3c0,0,0,0,0-0.1
	C485.2,84.7,482.8,82.3,479.9,82.3z M479.9,92.1c-2.4,0.1-4.5-1.8-4.6-4.2c-0.1-2.4,1.8-4.5,4.2-4.6s4.5,1.8,4.6,4.2
	c0,0.1,0,0.1,0,0.2C484.1,90,482.3,92,479.9,92.1z M163.1,169.3l18.2,19.1v-18.1h2.6v24.4l-18.2-19v18h-2.6V169.3z"/>
<path class="disc-5" d="M162.9,169.3v24.6h3v-17.6l18.2,19v-25.2H181v17.7l-18.1-19.1V169.3z M163.4,169.9c0.8,0.8,18.2,19.1,18.2,19.1
	v-18.4h2.1v23.5l-18.2-19v18.3h-2.1L163.4,169.9z M196.5,170.3h12.1v2.4h-9.5v6.9h9.2v2.4h-9.2v9.1h9.5v2.4h-12.1V170.3z"/>
<path class="disc-5" d="M208.6,170.1h-12.3v23.8h12.6V191h-9.5v-8.7h9.2v-2.9h-9.2V173h9.5v-2.9H208.6L208.6,170.1z M208.3,170.6v1.9
	h-9.5v7.4h9.2v1.9h-9.2v9.6h9.5v1.9h-11.6v-22.8H208.3z M226.9,193.7h-2.6v-20.9h-5.6v-2.4h13.9v2.4h-5.7V193.7z"/>
<path class="disc-5" d="M232.6,170.1h-14.2v2.9h5.6v20.9h3.1V173h5.7v-2.9H232.6z M232.4,170.6v1.9h-5.7v20.9h-2.1v-20.9H219v-1.9
	H232.4z M250,187.8l7.5-18.7l7.5,18.7l6.1-17.5h2.8l-9,24.5l-7.5-18.8l-7.6,18.8l-8.9-24.5h2.9L250,187.8z"/>
<path class="disc-5" d="M257.4,169l-7.3,18.1l-6-17h-3.3l9.3,25.5c0,0,7.1-17.8,7.5-18.8c0.4,1.1,7.5,18.8,7.5,18.8l9.3-25.5H271l-6,17
	c-0.5-1.1-7.5-18.6-7.5-18.6L257.4,169z M250.2,187.9l7.3-18.1c0.4,1,7.6,18.7,7.6,18.7l6.3-17.9h2.3c-0.2,0.6-8.2,22.5-8.6,23.6
	l-7.5-18.8l-7.6,18.8c-0.4-1.1-8.4-23-8.6-23.6h2.3l6.3,17.9L250.2,187.9z M307.7,182c0,6.7-5.4,12.2-12.1,12.2
	c-6.7,0-12.2-5.4-12.2-12.1c0-6.7,5.4-12.2,12.1-12.2c0,0,0,0,0.1,0C302.2,169.9,307.6,175.3,307.7,182
	C307.7,182,307.7,182,307.7,182z M285.9,182c0.1,5.3,4.4,9.5,9.7,9.5c5.3-0.1,9.5-4.4,9.5-9.7c-0.1-5.2-4.3-9.5-9.5-9.5
	C290.2,172.4,285.9,176.7,285.9,182L285.9,182z"/>
<path class="disc-5" d="M283.1,182c0,6.8,5.5,12.4,12.3,12.5c6.8,0,12.4-5.5,12.5-12.3c0-6.8-5.5-12.4-12.3-12.5c0,0,0,0-0.1,0
	C288.7,169.7,283.1,175.2,283.1,182C283.1,182,283.1,182,283.1,182z M283.6,182c-0.1-6.6,5.2-12,11.8-12.1c6.6-0.1,12,5.2,12.1,11.8
	c0.1,6.6-5.2,12-11.8,12.1c0,0-0.1,0-0.1,0C289,193.8,283.6,188.5,283.6,182L283.6,182z"/>
<path class="disc-5" d="M285.7,182c0,5.4,4.5,9.8,9.9,9.7s9.8-4.5,9.7-9.9c0-5.4-4.4-9.7-9.8-9.7C290.1,172.1,285.7,176.5,285.7,182z
	 M286.2,182c0.1-5.1,4.3-9.3,9.4-9.2c5.1,0.1,9.3,4.3,9.2,9.4c-0.1,5.1-4.2,9.2-9.3,9.2C290.3,191.4,286.2,187.2,286.2,182
	C286.2,182,286.2,182,286.2,182z M321.5,193.6h-2.6v-23.3h3.4c4.4,0,8.5,1.2,8.5,6.4c0.2,3.4-2.4,6.2-5.7,6.4c0,0-0.1,0-0.1,0
	l7.4,10.5h-3.2l-7-10.2h-0.7L321.5,193.6L321.5,193.6z M321.5,181.1h0.8c2.9,0,5.9-0.6,5.9-4.2c0-3.8-2.8-4.2-5.9-4.2h-0.8V181.1z"
	/>
<path class="disc-5" d="M318.9,170.1h-0.2v23.8h3.1v-10.2h0.4c0,0.2,6.9,10.1,6.9,10.1l3.4,0.1h0.5c0,0-7.1-10-7.5-10.6
	c3.3-0.3,5.9-3.2,5.7-6.6c0-4.5-2.9-6.7-8.8-6.7L318.9,170.1L318.9,170.1z M322.3,170.6c5.6,0,8.3,2,8.3,6.2c0.2,3.2-2.3,6-5.5,6.2
	c0,0-0.1,0-0.1,0h-0.4l7.4,10.4h-2.7c0-0.2-6.9-10.1-6.9-10.1l-0.9-0.1h-0.2v10.2h-2.1v-22.9L322.3,170.6z"/>
<path class="disc-5" d="M321.5,172.5h-0.2v8.9h1c2.9,0,6.1-0.5,6.1-4.4c0-4.1-3.2-4.4-6.2-4.4L321.5,172.5z M322.3,173
	c3,0,5.7,0.3,5.7,4c0,3.5-2.9,3.9-5.7,3.9h-0.6v-7.9L322.3,173z M356,170.3h3.5l-11,10.9l11.3,12.5h-3.6l-9.6-10.7l-0.6,0.6v10.1
	h-2.6v-23.3h2.6v10L356,170.3z"/>
<path class="disc-5" d="M359.5,170.1h-3.6c0,0-8.8,8.9-9.6,9.6v-9.6h-3.1v23.8h3.1v-10.3c0.1-0.1,0.3-0.2,0.4-0.3
	c0.3,0.4,9.4,10.5,9.4,10.5l3.8,0.1h0.6c0,0-11.2-12.4-11.6-12.7l11.2-11.1L359.5,170.1L359.5,170.1z M358.9,170.6
	c-0.8,0.8-10.7,10.6-10.7,10.6l11.1,12.2h-3c0-0.1-9.4-10.6-9.4-10.6l-0.2-0.2l-0.8,0.8c0,0-0.1,9.5-0.1,10h-2.1v-22.9h2.1v10.4
	l10.3-10.4H358.9z"/>
</svg>
