<svg id="MC" xmlns="http://www.w3.org/2000/svg" viewBox="0 0 513 318.6">
  <style>
    .mc-color-fill1{fill:#e41d2c}
    .mc-color-fill2{fill:#f8b02b}
    .mc-color-fill3{fill:#fefefe}
  </style>
  <title>
    master-card
  </title>
  <linearGradient id="MC_RADIAL" gradientUnits="userSpaceOnUse" x1="6636.333" y1="7775.317" x2="6636.333" y2="19015.736" gradientTransform="matrix(.03 0 0 .03 57.43 -234.33)">
    <stop offset="0" stop-color="#1d4c80"/>
    <stop offset="1" stop-color="#173a63"/>
  </linearGradient>
  <path d="M30.6 0h451.8C499.3 0 513 13.7 513 30.6V288c0 16.9-13.7 30.6-30.6 30.6H30.6C13.7 318.6 0 304.9 0 288V30.6C0 13.7 13.7 0 30.6 0z" fill="url(#MC_RADIAL)"/>
  <path class="mc-color-fill1" d="M140.9 156.3l2.2-8.8c8.5-2.6 25.9-3.7 29.2 5.5 1.9 5.4-3.5 27.7-4.6 34.2l-8.3.1c-1.9-2.3-.4 2-1.6-3.7-7.9 7.1-24.9 6-23.6-8.4s13.7-12.4 27.1-14.5c-.2-9.1-11.7-6.7-20.6-4.6l.2.2zm62.5-1.4c-7.6 0-8.8-1.6-15.4 1.3.8 8.3 5.1 5 11.1 9 11.3 7.5-.8 30.6-27.8 20.7l1.5-8.4c7.6 1.5 11.4 3 17.3-.2 1.4-11.8-19.5-4.1-13.7-23 3.1-10.3 17.1-8.9 28.5-7.8l-1.6 8.5.1-.1zM87.1 137l17.9.6 1.9 28 9.7-22.4c3.3-8.1 1.1-6.3 21.6-6.1l-9.2 50.1-10-.1 5.5-36-14.8 36.2-12-.4c-.3-7-.9-31.6-2.8-36.3L88.8 187l-10.5-.1 8.8-49.9zm170.4 106.4l4.9-5.8c-9.8-1.3-11.6 1.5-16-6.4l22.5-.2c1.4-2.3 3.7-4.6 4.9-7.2-25.7-1.8-32.9 4.8-37-6.4H278l4.6-7.1-50.9-.2-2.3-6 54.9-.2c3.1-1.8 3.1-3.7 4-7.4l-52-.1c-9.3.1-9.9 2.2-11.7-6.3H290l2.1-7.2-19.1-.2-.9 4.9-11-.5 6.9-40.8 10.4 1.4c0 .2.2 1.1.2 1.4s.1.6.1.7l.6 2.1c2.9-3.5 4.8-6.1 11.6-5.8l-3.5 9.5c-2 2.6-7.8-.4-10.3 6.7l11.5.5c1.3-7.4 2.7-9.6 4.8-15.5l.1-3.5-71.7.2-.2 2.6c3.9 0 3.7-.7 6 1.2l-1.1 6.9c-7.2 1.8-7-2.6-7.7 6.9 1.1 1.8-.2.8 2 1.4l4.6.1c7.4-23.9 29.3-18.7 34.3-11.2 2.7 4 5.4 17.1-1.3 18.1l-22.3.2c1.1 11.8 14.6 9.3 23.4 6.4-.4 4.9 0 8.9-4.6 10.5-3.6 1.3-11.2.9-15.2 0-9.8-2.2-14-7.1-14.7-17.8l-4.2-.1c-3.9-1.8-.8 0-2.8-4.8-1.6 9.8-6.1 16.1 6.1 14.7-.7 5.8.1 7.8-6.3 8.5-18.7 2.2-12.6-10.3-9.6-27 4.8-26.6 1.1-23.4 14.6-23.1l69.6.1-1.4-7.2-67.3-.2 1.3-5.8 63.7-.3c-1.6-9.9-2-7.5-25.1-7.5h-35.3c2.4-8.5 1.2-6.2 24.1-6.2h31l-3.3-7.3-44.9-.1 3-6.1 37.5-.2c-4.8-9.8-4.6-7-31.1-7.5 3.4-8.4 9.3-6.3 19.7-6.3-2.9-4.7-5-4.3-6.8-8.3-4.3-2.2-8.2-6.2-12.5-9.2-33-23.4-77.9-25.8-113.8-8.3C98.7 72.2 67 108.4 67.3 158.5c.5 71.6 63.3 123.8 134.4 111.7 33.4-5.7 41.8-19.3 55.6-26.9l.2.1z"/>
  <path class="mc-color-fill2" d="M333.7 147.2c36.2-7.4 30.2 10.5 27.3 25-.9 4.3-.9 12.9-4.3 15.2-2 .1-4.1 0-6.1-.1-3.3-1.3-1.8 2.6-2.2-3.4-9.8 5.6-25.3 6.9-23.5-8.8 1.5-12.5 14.1-14.5 27-13.9-.5-9.2-8.9-7.7-20.6-4.8l2.5-9.2h-.1zm35.7-1.1l9.7.1c.1.3.2.5.2.8l1.5 4.3c1.8-2.7 5-5 10.2-5.1l-1.3 8.3-4.8 1.9c-9.6 3.1-9 15.2-11.6 31h-10.9l7-41.3zm51.6-8.9h9.9l-8.5 50.2c-11.1.1-8.4.7-11.9-3.5-7.2 10.8-29 .8-22.3-21.4 4.9-16.6 21.5-21 29.7-11.2l3.3-14.2-.2.1zm-163.4-63c1.8 4 4 3.6 6.8 8.3-10.4 0-16.4-2.2-19.7 6.3 26.5.5 26.3-2.3 31.1 7.5l-37.5.2-3 6.1 44.9.1 3.3 7.4h-31c-22.8 0-21.6-2.2-24.1 6.2h35.3c23.1 0 23.5-2.4 25.1 7.5l-63.8.2-1.3 5.9 67.3.2 1.4 7.2-69.6-.1-.9 6.5 71.6-.1-.1 3.5c5.4-5.1 4.4-7.8 14.5-10.8 8.3-2.3 13.5-.6 21.7 1.2l-1.8 10.8c-14-4.2-23.1-3.1-26.4 11.3-3.6 15.5 8.6 21.4 21.6 15.2-1.2 11.3-3 14.1-16.4 12.4-9.2-1.2-12-5.6-16.1-11.1h-16.7l-.9 6.4 19.1.2-2.1 7.2h-65.4c1.8 8.5 2.3 6.4 11.7 6.3l52 .1c-.9 3.5-.8 5.6-4 7.4l-54.9.2 2.3 6 50.9.2-4.6 7.1h-41.2c4.1 11.1 11.3 4.7 37 6.4-1.2 2.7-3.5 4.9-4.9 7.2l-22.5.2c4.3 7.8 6.2 5.1 16 6.4l-4.9 5.9c16.7 12.3 29.7 22.5 56.6 27.2 23.8 3.8 48.2.3 69.8-10.2 85.5-42.2 83.2-163.6-.7-203.8-30.1-14.4-70.1-15.7-101.3.7-15.1 7.8-18.7 13.4-24.3 16.8l.1.2z"/>
  <path class="mc-color-fill3" d="M78.1 187.1l10.5.1 6.1-36.4c1.9 4.7 2.4 29.3 2.8 36.3l12 .4 14.8-36.2-5.5 36 10 .1 9.2-50.1c-20.6-.2-18.3-2-21.6 6.1l-9.7 22.4-1.9-28-17.8-.6-8.9 49.9zm325.4-9.2c-8.8-9-1.3-23.9 6.9-22s6.5 21.7-6.9 22zm14.2-26.5c-8.2-9.8-24.6-5.4-29.7 11.2-6.7 22.1 15.1 32.1 22.3 21.4 3.5 4.2.8 3.5 11.9 3.5l8.5-50.2h-9.9l-3.3 14.2.2-.1zM337.5 178c-1.6-7.8 5.6-10.9 12.5-9.5.3 8-5.3 12.3-12.5 9.5zm-3.8-30.7l-2.5 9.2c11.7-2.8 20.2-4.3 20.6 4.8-12.9-.6-25.5 1.4-27 13.9-2 15.6 13.7 14.4 23.5 8.8.5 6-1 2.1 2.2 3.4 2 .2 4 .2 6.1.1 3.5-2.2 3.5-10.9 4.3-15.2 3-14.6 8.9-32.4-27.3-25h.1zm-174.2 20.9c.2 4-.5 7-3 9-1.8 1.3-7 2.8-9.1.8-6.5-6 5.7-9.9 12-9.8h.1zm-18.6-11.9c8.9-2.1 20.3-4.6 20.6 4.6-13.4 2.1-25.8.2-27.1 14.5s15.5 15.5 23.6 8.4c1.3 5.7-.2 1.4 1.6 3.7l8.3-.1c1.1-6.7 6.4-28.9 4.6-34.2-3.3-9.3-20.6-8.2-29.2-5.5l-2.2 8.8-.2-.2zm96.8 5.8c1.5-6 4.1-8.4 11-7.5 2.4 3.5 2.4 2.4 2.9 7.5h-13.9zm-12.4.6l-.5 6.3c.7 10.6 5 15.4 14.7 17.8 4 .9 11.6 1.3 15.2 0 4.6-1.5 4.2-5.6 4.6-10.5-8.8 2.9-22.3 5.4-23.4-6.4l22.3-.2c6.7-1.1 4-14 1.3-18.1-5-7.5-27-12.7-34.3 11.2l.1-.1zm68-15.5c-2.1 6-3.5 8.2-4.8 15.5v6.4l2 7.1c4.1 5.5 6.9 9.9 16.1 11.1 13.3 1.8 15.2-1.1 16.4-12.4-13.1 6.2-25.2.4-21.6-15.2 3.4-14.6 12.5-15.5 26.4-11.3l1.8-10.8c-8.2-1.6-13.4-3.4-21.7-1.2-10 2.8-9.1 5.6-14.5 10.8h-.1zm-88.4-.9c-11.4-.9-25.3-2.4-28.5 7.8-5.8 18.9 14.9 11.2 13.7 23-6 3.3-9.7 1.8-17.3.2l-1.5 8.4c27 9.9 39-13.1 27.8-20.7-6-4-10.3-.6-11.1-9 6.7-3 7.7-1.3 15.4-1.3l1.6-8.5-.1.1z"/>
  <path class="mc-color-fill3" d="M218 164.1l.8-2.8c.7-9.5.5-5.1 7.7-6.9l1.1-6.9c-2.2-1.9-2.1-1.2-6-1.2l.2-2.6.9-6.5c-13.6-.2-9.8-3.5-14.6 23.1-3 16.7-9.1 29.2 9.6 27 6.3-.7 5.6-2.7 6.3-8.5-12 1.4-7.5-4.9-6-14.7zm54.9 18.6l.9-6.4 1.2-7 2.1-7c2.6-7 8.4-4.1 10.3-6.7l3.5-9.5c-6.9-.2-8.8 2.3-11.6 5.8l-.6-2.1c0-.1-.1-.5-.1-.7s-.2-1.2-.2-1.4l-10.4-1.4-6.9 40.8 11 .5.9-4.9h-.1zm89.6 4.6h10.9c2.6-15.8 2-27.8 11.6-31l4.8-1.8 1.4-8.3c-5.1.1-8.4 2.4-10.2 5.1l-1.5-4.3c-.1-.2-.1-.6-.2-.8l-9.7-.1-7.1 41.2z"/>
  <path class="mc-color-fill2" d="M403.5 177.9c13.5-.2 15.1-20 6.9-22s-15.7 13-6.9 22z"/>
  <path class="mc-color-fill1" d="M159.5 168.2c-6.3-.1-18.6 3.9-12 9.8 2.1 1.9 7.4.4 9.1-.8 2.6-1.9 3.1-5 3-9h-.1zm114.3 7.9l16.7.1-2-7.1H275z"/>
  <path class="mc-color-fill2" d="M337.5 178c7.4 2.7 12.9-1.5 12.5-9.5-7-1.3-14.2 1.8-12.5 9.5zm-62.5-8.9h13.5v-6.4l-11.4-.6z"/>
  <path class="mc-color-fill1" d="M237.7 162.1h13.9c-.4-4.9-.5-4-2.9-7.5-6.9-.9-9.5 1.5-11 7.5z"/>
  <path class="mc-color-fill2" d="M218 164.1c2 4.8-1.1 3 2.8 4.8l4.2.1.5-6.3-4.6-.1c-2.3-.5-1.1.4-2-1.4l-.8 2.8-.1.1z"/>
</svg>
