<svg id="Layer_4" data-name="Layer 4" xmlns="http://www.w3.org/2000/svg" viewBox="0 0 513.04 318.62">
  <defs>
    <style>
      .mc-grey-fill2{fill:#5a5a5a}
      .mc-grey-fill3{fill:#fff}
      .mc-grey-fill4{fill:#b7b7b7}
    </style>
  </defs>
  <title>
    master-card-grey
  </title>
  <rect width="513.04" height="318.62" rx="30.6" ry="30.6" fill="#666"/>
  <path class="mc-grey-fill2" d="M141.21 156.71l2.22-8.76c8.53-2.57 25.93-3.74 29.2 5.49 1.87 5.37-3.5 27.68-4.56 34.22l-8.29.12c-1.87-2.34-.35 2-1.64-3.74-7.94 7.12-24.88 6-23.59-8.41s13.67-12.38 27.1-14.48c-.23-9.11-11.68-6.66-20.56-4.56zm62.49-1.4c-7.59 0-8.76-1.64-15.42 1.28.82 8.29 5.14 5 11.1 9 11.33 7.47-.82 30.6-27.8 20.67l1.52-8.41c7.59 1.52 11.45 3 17.29-.23 1.4-11.8-19.5-4.09-13.67-23 3.15-10.28 17.05-8.88 28.5-7.83l-1.64 8.53zM87.37 137.44l17.87.58 1.87 28 9.69-22.42c3.27-8.06 1.05-6.31 21.61-6.07l-9.23 50.11-10-.12 5.49-36-14.83 36.21-12-.35c-.35-7-.93-31.65-2.8-36.32l-6.07 36.44-10.51-.12zm170.41 106.4l4.91-5.84c-9.81-1.28-11.56 1.52-16-6.42l22.54-.23c1.4-2.34 3.74-4.56 4.91-7.24-25.7-1.75-32.94 4.79-37-6.42h41.23l4.56-7.12-50.93-.25-2.34-6 54.89-.23c3.15-1.75 3.15-3.74 4-7.36l-52-.12c-9.34.12-9.93 2.22-11.68-6.31h65.41l2.1-7.24-19.15-.23-.93 4.91-11-.47 6.89-40.76 10.39 1.4c0 .23.23 1.05.23 1.4s.12.58.12.7l.58 2.1c2.92-3.5 4.79-6.07 11.56-5.84l-3.5 9.46c-2 2.57-7.83-.35-10.28 6.66l11.45.47c1.28-7.36 2.69-9.58 4.79-15.53l.12-3.5L222 144l-.23 2.57c3.85 0 3.74-.7 6 1.17l-1.05 6.89c-7.24 1.75-7-2.57-7.71 6.89 1.05 1.75-.23.82 2 1.4l4.56.12c7.36-23.94 29.32-18.69 34.34-11.21 2.69 4 5.37 17.05-1.28 18.1l-22.31.23c1.05 11.8 14.6 9.34 23.36 6.42-.35 4.91 0 8.88-4.56 10.51-3.62 1.28-11.21.93-15.18 0-9.81-2.22-14-7.12-14.72-17.75l-4.2-.12c-3.85-1.75-.82 0-2.8-4.79-1.64 9.81-6.07 16.12 6.07 14.72-.7 5.84.12 7.83-6.31 8.53-18.69 2.22-12.61-10.28-9.58-27 4.79-26.63 1.05-23.36 14.6-23.13l69.61.12-1.4-7.24-67.27-.23 1.28-5.84 63.65-.35c-1.64-9.93-2-7.47-25.11-7.47h-35.3c2.45-8.53 1.17-6.19 24.06-6.19h31L280.2 103l-44.85-.12 3-6.07 37.49-.23c-4.79-9.81-4.56-7-31.07-7.47 3.39-8.41 9.34-6.31 19.74-6.31-2.92-4.67-5-4.32-6.77-8.29-4.32-2.22-8.18-6.19-12.5-9.23C212.22 41.9 167.37 39.45 131.4 57 99 72.62 67.28 108.82 67.63 158.93c.47 71.6 63.3 123.8 134.43 111.66 33.4-5.72 41.81-19.27 55.6-26.86z" transform="translate(-.3 -.44)"/>
  <path class="mc-grey-fill3" d="M78.37 187.55l10.51.12L95 151.22c1.87 4.67 2.45 29.32 2.8 36.32l12 .35 14.83-36.21-5.49 36 10 .12 9.23-50.11c-20.56-.23-18.34-2-21.61 6.07l-9.69 22.42-1.87-28-17.87-.58zm325.4-9.23c-8.76-9-1.28-23.94 6.89-22s6.54 21.76-6.89 22zM418 151.81c-8.18-9.81-24.64-5.37-29.67 11.21-6.66 22.07 15.07 32.12 22.31 21.37 3.5 4.2.82 3.5 11.91 3.5l8.53-50.22h-9.93l-3.27 14.25zm-80.22 26.63c-1.64-7.83 5.61-10.86 12.5-9.46.35 7.94-5.28 12.26-12.5 9.46zM334 147.72l-2.45 9.23c11.68-2.8 20.21-4.32 20.56 4.79-12.85-.58-25.46 1.4-27 13.9-2 15.65 13.67 14.37 23.48 8.76.47 6-1.05 2.1 2.22 3.39a51.14 51.14 0 0 0 6.07.12c3.5-2.22 3.5-10.86 4.32-15.18 3-14.6 8.88-32.35-27.33-25zm-174.22 20.9c.23 4-.47 7-3 9-1.75 1.28-7 2.8-9.11.82-6.54-6 5.72-9.93 12-9.81zm-18.57-11.91c8.88-2.1 20.32-4.56 20.56 4.56-13.43 2.1-25.81.23-27.1 14.48s15.53 15.53 23.59 8.41c1.28 5.72-.23 1.4 1.64 3.74l8.29-.12c1.05-6.66 6.42-28.85 4.56-34.22-3.27-9.34-20.56-8.18-29.2-5.49l-2.22 8.76zm96.79 5.84c1.52-6 4.09-8.41 11-7.47 2.45 3.5 2.45 2.45 2.92 7.47zm-12.38.58l-.47 6.31c.7 10.63 5 15.42 14.72 17.75 4 .93 11.56 1.28 15.18 0 4.56-1.52 4.2-5.61 4.56-10.51-8.76 2.92-22.31 5.37-23.36-6.42l22.31-.23c6.66-1.05 4-14 1.28-18.1-5-7.47-27-12.73-34.34 11.21zm68.01-15.53c-2.1 6-3.5 8.18-4.79 15.53v6.42l2 7.12c4.09 5.49 6.89 9.93 16.12 11.1 13.31 1.75 15.18-1.05 16.35-12.38-13.08 6.19-25.23.35-21.61-15.18 3.39-14.6 12.5-15.53 26.4-11.33l1.75-10.75c-8.18-1.64-13.43-3.39-21.72-1.17-10 2.8-9.11 5.61-14.48 10.75zm-88.41-.82c-11.45-.93-25.34-2.45-28.5 7.83-5.84 18.92 14.95 11.21 13.67 23-6 3.27-9.69 1.75-17.29.23l-1.52 8.41c27 9.93 39-13.08 27.8-20.67-6-4-10.28-.58-11.1-9 6.66-3 7.71-1.28 15.42-1.28l1.64-8.53z" transform="translate(-.3 -.44)"/>
  <path class="mc-grey-fill3" d="M218.3 164.54l.82-2.8c.7-9.46.47-5.14 7.71-6.89l1.05-6.89c-2.22-1.87-2.1-1.17-6-1.17l.23-2.57.93-6.54c-13.55-.23-9.81-3.5-14.6 23.13-3 16.7-9.11 29.2 9.58 27 6.31-.7 5.61-2.69 6.31-8.53-11.99 1.37-7.55-4.93-6.03-14.74zm54.89 18.57l.93-6.42 1.17-7 2.1-7c2.57-7 8.41-4.09 10.28-6.66l3.5-9.46c-6.89-.23-8.76 2.34-11.56 5.84l-.58-2.1c0-.12-.12-.47-.12-.7s-.23-1.17-.23-1.4l-10.39-1.4-6.89 40.76 11 .47.93-4.91zm89.58 4.67h10.86c2.57-15.77 2-27.8 11.56-31L390 155l1.4-8.29c-5.14.12-8.41 2.45-10.16 5.14l-1.52-4.32c-.12-.23-.12-.58-.23-.82l-9.69-.12z" transform="translate(-.3 -.44)"/>
  <path class="mc-grey-fill2" d="M159.78 168.62c-6.31-.12-18.57 3.85-12 9.81 2.1 1.87 7.36.35 9.11-.82 2.57-1.87 3.15-5 3-9z" transform="translate(-.3 -.44)"/>
  <path class="mc-grey-fill2" d="M273.83 176.13l16.7.12-1.98-7.13H275l-1.17 7.01z"/>
  <path class="mc-grey-fill2" d="M238 162.55h13.9c-.35-4.91-.47-4-2.92-7.47-6.86-.94-9.43 1.51-10.98 7.47z" transform="translate(-.3 -.44)"/>
  <path class="mc-grey-fill4" d="M334 147.6c36.21-7.36 30.25 10.51 27.33 25-.93 4.32-.93 12.85-4.32 15.18a51.14 51.14 0 0 1-6.07-.12c-3.27-1.28-1.75 2.57-2.22-3.39-9.81 5.61-25.34 6.89-23.48-8.76 1.52-12.5 14.13-14.48 27-13.9-.47-9.23-8.88-7.71-20.56-4.79l2.45-9.23zm35.74-1.05l9.69.12a2.17 2.17 0 0 1 .23.82l1.52 4.32c1.75-2.69 5-5 10.16-5.14L390 155l-4.79 1.87c-9.58 3.15-9 15.18-11.56 31h-10.88zm51.51-8.88h9.93l-8.53 50.22c-11.1.12-8.41.7-11.91-3.5-7.24 10.75-29 .82-22.31-21.37 4.91-16.59 21.49-21 29.67-11.21l3.27-14.25zM257.89 74.6c1.75 4 4 3.62 6.77 8.29-10.39 0-16.35-2.22-19.74 6.31 26.51.47 26.28-2.34 31.07 7.47l-37.49.23-3 6.07 44.85.12 3.27 7.36h-31c-22.78 0-21.61-2.22-24.06 6.19h35.27c23.13 0 23.48-2.45 25.11 7.47l-63.65.35-1.29 5.86 67.27.23 1.4 7.24-69.61-.12-.93 6.54 71.6-.12-.12 3.5c5.37-5.14 4.44-7.83 14.48-10.75 8.29-2.34 13.55-.58 21.72 1.17l-1.75 10.75c-14-4.2-23.13-3.15-26.4 11.33-3.62 15.53 8.64 21.37 21.61 15.18-1.17 11.33-3 14.13-16.35 12.38-9.23-1.17-12-5.61-16.12-11.1h-16.7l-.93 6.42 19.15.23-2.1 7.24h-65.38c1.75 8.53 2.34 6.42 11.68 6.31l52 .12c-.93 3.5-.82 5.61-4 7.36l-54.89.23 2.34 6 50.92.23-4.56 7.12H237.1c4.09 11.1 11.33 4.67 37 6.42-1.17 2.69-3.5 4.91-4.91 7.24l-22.54.23c4.32 7.83 6.19 5.14 16 6.42l-4.88 5.88c16.7 12.26 29.67 22.54 56.65 27.21A117.58 117.58 0 0 0 384.26 261c85.49-42.16 83.16-163.63-.7-203.81-30.13-14.37-70.08-15.65-101.26.7-15.07 7.84-18.69 13.44-24.3 16.83z" transform="translate(-.3 -.44)"/>
  <path class="mc-grey-fill4" d="M403.77 178.32c13.55-.23 15.07-20 6.89-22s-15.66 13-6.89 22zm-65.99.12c7.36 2.69 12.85-1.52 12.5-9.46-7.01-1.29-14.14 1.75-12.5 9.46z" transform="translate(-.3 -.44)"/>
  <path class="mc-grey-fill4" d="M275 169.12h13.55v-6.42l-11.45-.59-2.1 7.01z"/>
  <path class="mc-grey-fill4" d="M218.3 164.54c2 4.79-1.05 3 2.8 4.79l4.2.12.47-6.31-4.56-.12c-2.34-.47-1.05.35-2-1.4l-.82 2.8z" transform="translate(-.3 -.44)"/>
</svg>
