<svg id="VISA" xmlns="http://www.w3.org/2000/svg" viewBox="0 0 505.4 318.83">
  <defs>
    <style>
      .visa-color-fill{fill:#005696}
    </style>
  </defs>
  <title>
    visa-card
  </title>
  <path d="M483.22.17H22c-9 0-14.66 1.38-17.72 4.24C1.62 7.67.33 13 .33 20.9v276.68C.33 311.7 7.64 319 22 319h461.22c15 0 22.51-7.3 22.51-21.42V20.8c0-13.92-7.5-20.63-22.51-20.63z" transform="translate(-.33 -.17)" fill="#dfdfe0"/>
  <path d="M97 260.27c74.53-32 179.06-60.9 317.55-31.88l1.45-35.15c-146.09-16-250.92 30.6-319 63.57v3.45z" transform="translate(-.33 -.17)" fill="#f6ab1b"/>
  <path class="visa-color-fill" d="M174.52 167.51L206.8 61h28.82l-32.28 106.51h-28.82z"/>
  <path class="visa-color-fill" d="M162 61.27l-26 45.11c-6.61 11.85-10.46 17.77-12.34 25.27h-.39c.49-9.48-.89-21.12-1-27.64l-2.86-42.74H71l-.49 2.86c12.44 0 19.84 6.22 21.91 19.05l9.48 84.5h29.81l60.42-106.51H162zm224.09 106.41l-.79-15.79h-36l-7.4 15.89h-31.32l56.76-106.31h38.4l9.57 106.31h-29.22zm-3.26-62.78c-.3-7.9-.59-18.56-.1-25h-.39c-1.78 5.33-9.28 21.12-12.63 29l-10.76 23.3h25.27l-1.38-27.34zm-116.57 65.84a80.25 80.25 0 0 1-43.53-12.24l13.72-20.93c8.69 4.84 15.4 10.46 31.09 10.46 5 0 9.87-1.28 12.63-6 4-6.91-.89-10.66-12.14-17l-5.53-3.65c-16.68-11.45-23.89-22.21-16.09-41.16 5-12.14 18.26-21.22 40.17-21.22 15.1 0 29.22 6.51 37.51 12.93l-15.78 18.56c-8.1-6.49-14.71-9.78-22.31-9.78-6.12 0-10.66 2.37-12.34 5.53-3 5.92 1 10 9.77 15.4l6.61 4.24c20.24 12.73 25.07 26.16 20 38.69-8.88 21.32-26 26.16-43.83 26.16zm157.05-93.09h-1.88V66.1h4.34c2.76 0 4.24 1 4.24 3.36a3 3 0 0 1-3 3.16l3.26 5h-2.17l-3-4.94h-1.7v4.94zm2.07-6.51c1.38 0 2.67-.1 2.67-1.78 0-1.38-1.38-1.58-2.47-1.58h-2.27v3.36h2.07zm0 11c-6 0-10.27-4.44-10.27-10.46a10.22 10.22 0 1 1 10.27 10.42zm0-19.05c-4.54 0-8 3.55-8 8.59 0 4.74 3.06 8.59 8 8.59 4.44 0 8-3.55 8-8.59s-3.55-8.59-8-8.59z" transform="translate(-.33 -.17)"/>
</svg>
